<?xml version="1.0" encoding="utf-8"?>
<!-- Generator: Adobe Illustrator 25.2.3, SVG Export Plug-In . SVG Version: 6.00 Build 0)  -->
<svg version="1.1" id="Layer_2" xmlns="http://www.w3.org/2000/svg" xmlns:xlink="http://www.w3.org/1999/xlink" x="0px" y="0px"
	 width="3900px" height="300px" viewBox="0 0 3900 300" style="enable-background:new 0 0 3900 300;" xml:space="preserve">
<style type="text/css">
	.st0{fill:#00092E;}
	.st1{fill:#FFFFFF;}
	.st2{fill:#302231;}
</style>
<g id="XMLID_1_">
	<g>
		<path class="st0" d="M213.8,198.1c-3.8,0-7.2-1.6-10-4.2v0c-2.7-2.5-4.8-6-6-9.8c-3.8-11.7-0.8-33.5-36.1-33.5
			s-43.5,7.6-49.7,13.6c-5.1,4.9-7.7,12.2-9.2,20.5c-0.1,0.3-0.1,0.7-0.2,1c-2.8-0.2-8.2-1.6-10.6-9.5c-2.5-8.2,3-20.3,8.7-30.5
			c3.5-6.3,7.5-12.1,10-15.5c11.9,5.1,30.8,4.7,42.8,5c27.4,0.5,40.7-1.3,47.2-4.7c4.9,5.1,13.6,14.5,18.3,21.6
			c10.6,15.8,9.4,41.8-0.4,45.2C217,197.9,215.4,198.1,213.8,198.1z"/>
		<path class="st0" d="M213.8,198.1c2.7,11.2,6.2,35.6-12.2,44c-17.6,8-27.8-13.4-32-25.5c22.5-5.7,31.1-16.9,34.2-22.7
			C206.6,196.5,210,198.1,213.8,198.1z"/>
		<path class="st1" d="M111,95c0.7-0.7,1.3-1.4,1.8-2c3.4-3.6,6-14.7,17-22.4c6.2-4.3,15.2-7.6,28.5-7.7c10.6-0.1,18.8,0.5,25.5,4.7
			c2.2,1.3,4.2,3,6.1,5.1c4.9,5.4,6.8,13.2,8.3,19.7c0.7,3,1.2,5.7,1.9,7.8c2.6,8.3,9.8,12.8,6.4,23.7c-0.8,2.6-2.4,4.8-5.9,6.6
			c-6.5,3.4-19.8,5.2-47.2,4.7c-12-0.2-30.9,0.2-42.8-5c-5.6-2.4-9.7-6.1-10.7-11.6C98.3,109.5,105.4,101,111,95z"/>
		<path class="st0" d="M205.4,72.7c5,10.5-3.2,17.2-7.1,19.7c-1.4-6.5-3.4-14.2-8.3-19.7c-1.9-2.1-3.9-3.8-6.1-5.1
			C189.8,64.7,200.3,61.8,205.4,72.7z"/>
		<path class="st1" d="M103.3,185.7c-0.1-0.4-0.3-0.7-0.4-1.1c1.4-8.2,4.1-15.6,9.2-20.5c6.2-5.9,14.3-13.6,49.7-13.6
			s32.4,21.8,36.1,33.5c1.2,3.8,3.3,7.3,6,9.8v0c-3.1,5.9-11.7,17-34.2,22.7c-4.1,1-8.6,1.9-13.6,2.5c-4.8,0.6-9.2,0.5-13.3,0
			C119.3,216.1,107.9,196.5,103.3,185.7z"/>
		<path class="st0" d="M129.8,70.6c-11.1,7.7-13.6,18.8-17,22.4c-0.6,0.6-1.2,1.3-1.8,2c-4-5.1-12.4-18.2-2.3-27.9
			C116.8,59.1,125.4,65.9,129.8,70.6z"/>
		<path class="st0" d="M142.8,219.1c-4.4,8.6-15.2,19.3-27.7,15.4c-13-4-14.7-17.3-13.9-32c0.3-5.7,0.7-11.5,1.6-16.9
			c0.2,0,0.4,0,0.6,0C107.9,196.5,119.3,216.1,142.8,219.1z"/>
	</g>
</g>
<g id="XMLID_2_">
	<g>
		<path class="st0" d="M512.5,195.9c-0.1,0.2-0.3,0.5-0.5,0.8c-7.7,1.7-6.4-17-15.5-28.9c-5.4-7.1-26.6-12.9-42.2-10.6
			c-11.4,1.7-45.5,7.8-49.1,35.8c0,0.1,0,0.2,0,0.3c-0.6,0.2-1.3,0.4-2,0.5c-2.6,0.3-5.3-0.4-7.6-3.5c-9.8-13.5,5.6-40.2,12.1-50.3
			c9.3,4.6,27,7,48.5,6.6c24.2-0.4,38.5-5.7,45.6-11.7c3.8,5.7,10,15.5,12.7,23.7c4,12.2,5.5,35.3-1.8,38
			C512.6,196.3,512.5,196.1,512.5,195.9z"/>
		<path class="st0" d="M512.6,196.5c0.8,13,0.1,35.8-14.2,41c-13.9,5.1-21.9-7.7-25.6-16.2c22.9-3.8,34.7-17.7,39.3-24.7
			c0,0,0,0,0.1,0C512.3,196.6,512.4,196.6,512.6,196.5z"/>
		<path class="st1" d="M442.7,220.6c-20.6-4.3-32-15.7-38-24.3c0.1-1,0.2-2,0.4-3.1c0-0.1,0-0.2,0-0.3c3.7-28,37.7-34.1,49.1-35.8
			c15.6-2.3,36.8,3.5,42.2,10.6c9.1,11.9,7.8,30.7,15.5,28.9c-4.6,7-16.3,20.9-39.3,24.7c-3.9,0.6-8,1-12.5,1
			C453.8,222.4,448,221.7,442.7,220.6z"/>
		<path class="st1" d="M501.7,134.9c-7.1,6-21.4,11.4-45.6,11.7c-21.5,0.3-39.2-2-48.5-6.6c-4.8-2.4-7.3-5.4-7-9
			c0.9-10.1,6.4-11.5,11-22.5c0.8-1.8,1.6-3.9,2.7-6.1c3.5-7,9.1-15.3,19-20.8c5.9-3.2,13.4-5.5,22.8-5.8c7.5-0.2,13.6,1,18.6,3.2
			c10.4,4.4,16.1,12.7,20.3,20.1c2.2,3.9,4,7.6,5.6,10.3c4.7,7.4,9.7,12.4,5.5,20.2C505.2,131.3,503.8,133.1,501.7,134.9z"/>
		<path class="st0" d="M495.1,75.9c7.6,5.9,2.7,17.7-0.1,23.2c-4.1-7.4-9.9-15.7-20.3-20.1C479,76.3,488.8,71,495.1,75.9z"/>
		<path class="st0" d="M442.7,220.6c-3.2,7.8-9.4,17.4-20.6,15.5c-12.8-2.2-20.4-12.2-17.4-39.8
			C410.7,204.9,422.1,216.4,442.7,220.6z"/>
		<path class="st0" d="M433.3,81.6c-9.9,5.4-15.5,13.8-19,20.8c-3-3.6-8.1-11.5-2.3-19.6C418.2,74,427.9,78.2,433.3,81.6z"/>
	</g>
</g>
<g id="XMLID_3_">
	<g>
		<path class="st0" d="M700.4,200.3c-0.9-0.4-1.8-0.8-2.8-1.3c-17.4-9.5,4.5-52.6,12.7-67.5c10.9,5.1,29.6,5.7,44.7,6
			c17.2,0.4,35.6-0.9,45.3-7.8c6.8,5.4,17.5,15.5,19.9,27.5c2.6,12.5-2.6,25.8-11.5,33.8c-1.1-9.5-3.1-18.8-4.7-25.3
			c-25.2-17.8-63.4-8.2-72.8-0.3c-10.2,8.7-12,33.6-24.1,35.7C705.1,201.4,702.9,201.2,700.4,200.3z"/>
		<path class="st0" d="M809.3,198c0.9,15.2-1.3,29.6-12,33.1c-15.4,5.1-23.9-3.6-28.1-10.9C788.4,216.5,802.1,205.3,809.3,198z"/>
		<path class="st1" d="M808.7,191c0.3,2.3,0.5,4.6,0.6,7c-7.2,7.4-20.9,18.6-40.1,22.3c-3.6,0.7-7.4,1.1-11.4,1.2
			c-4.2,0.1-8.1-0.1-11.7-0.6c-21.8-2.6-33.9-13.7-39.1-19.8c12.1-2.1,13.9-27,24.1-35.7c9.4-8,47.6-17.6,72.8,0.3
			C805.6,172.3,807.6,181.5,808.7,191z"/>
		<path class="st1" d="M776.6,67.9c12.3,8.2,17.1,22.1,20.2,27.7c0.2,0.4,0.4,0.8,0.7,1.2c5.4,9.5,12,16.1,9,25
			c-1.1,3.2-3.2,5.8-6.2,7.9c-9.7,6.8-28,8.1-45.3,7.8c-15-0.3-33.8-0.9-44.7-6c-4.4-2.1-7.5-4.9-8.6-8.7c-3.8-13.9,6-18.8,9.7-25.7
			c0.3-0.6,0.7-1.4,1.1-2.3c2.7-6.1,7.5-18.2,18.4-26c5.5-4,12.7-6.8,21.9-7.1C762.9,61.4,770.6,64,776.6,67.9z"/>
		<path class="st0" d="M802.3,70.8c7.6,12.1-0.4,21.9-4.9,26c-0.2-0.4-0.4-0.8-0.7-1.2c-3.1-5.7-7.8-19.5-20.2-27.7
			C780.3,65.6,794.2,58,802.3,70.8z"/>
		<path class="st0" d="M730.8,68.7c-10.8,7.7-15.6,19.9-18.4,26c-5.2-3.7-12.7-12-4.3-26.2C713.3,59.9,724.6,64.9,730.8,68.7z"/>
		<path class="st0" d="M746.1,220.9c-5.6,9.5-20.1,30.1-36.5,24.4c-14.7-5.1-11.9-30.8-9.1-45.1c2.5,0.9,4.7,1.2,6.6,0.8
			C712.1,207.2,724.3,218.3,746.1,220.9z"/>
	</g>
</g>
<g id="XMLID_4_">
	<g>
		<path class="st0" d="M1130.1,131c8.1,1.6,9.2,14.1,4.1,23c-8.7,15.2-25.7,18.4-24.8,23c0,0.1,0,0.1,0,0.2
			c-9.7-3.3-26.6-8.2-48.7-10.7c-17.7-2.1-42.8,1.7-54.6,3.8c0.6-1.8,1.1-3.1,1.3-3.8c0.9-4.1-7.3-5.1-15.6-19.8
			c-8.3-14.7-1.5-23.3,6.9-25.3c4.7-1.1,9.7,3.8,13,7.8c0,0.3-0.1,0.6-0.1,0.9c-1.8,18.4,27.1,20.7,44.1,24.8
			c17,4.1,45.8,8,53.3-8.3c1-2.3,1.8-4.6,2.3-6.8C1116,135.1,1123.2,129.6,1130.1,131z"/>
		<path class="st0" d="M1114.5,103c5.3,6,1.6,16.7-4,22.1c-3.1-10.2-11.2-18.4-18.5-22.5C1097.5,99.9,1108.4,96,1114.5,103z"/>
		<path class="st1" d="M1110.6,125.1c1.4,4.6,1.8,9.5,0.7,14.7c-0.5,2.2-1.2,4.5-2.3,6.8c-7.5,16.3-36.3,12.4-53.3,8.3
			c-17-4.1-45.9-6.4-44.1-24.8c0-0.3,0.1-0.6,0.1-0.9c1.7-8.3,14.4-15.4,21.4-20.3c3.9,3.4,11.1,2.7,14.3,1c4.1-2.3,8.3-5.1,8.3-11
			c0-0.8-0.1-1.7-0.2-2.4c6.4-0.1,20.7,0.2,32.3,4.3c1.3,0.5,2.7,1.1,4.2,1.9C1099.4,106.7,1107.5,114.8,1110.6,125.1z"/>
		<path class="st0" d="M1110.8,197.3c2.5,14.5,4.3,39-10.1,43.4c-15.2,4.7-24.7-9.3-29.3-18.9c7.7-0.7,15-2.5,21.5-5.4
			C1104.3,211.3,1109.1,204.2,1110.8,197.3z"/>
		<path class="st1" d="M1110.8,197.3c-1.7,6.8-6.6,13.9-17.9,19c-6.6,3-13.8,4.7-21.5,5.4c-19.1,1.8-40.6-2.5-59.3-9.3
			c-9-11.5-9.8-23.3-8.4-32.1c0.6-4.2,1.7-7.7,2.6-10.2c11.7-2.1,36.8-5.9,54.6-3.8c22.1,2.5,39,7.4,48.7,10.7
			C1110.1,179.9,1113.2,188.4,1110.8,197.3z"/>
		<path class="st0" d="M1055.6,96.4c0.1,0.8,0.2,1.6,0.2,2.4c0,6-4.1,8.7-8.3,11c-3.2,1.8-10.4,2.4-14.3-1c-1.9-1.6-3-4.1-2.7-7.8
			c0.9-9.7,5.5-13.3,11.9-14.7C1048.2,85.2,1054.4,89.4,1055.6,96.4z"/>
		<path class="st0" d="M1012.1,212.5c-0.6-0.2-1.2-0.4-1.8-0.7c-19.7-7.5-25.3-11.9-22.5-22.5c1.7-6.4,9.5-8.4,15.9-8.9
			C1002.4,189.2,1003.1,201,1012.1,212.5z"/>
	</g>
</g>
<g id="XMLID_5_">
	<g>
		<path class="st1" d="M1407.4,165.3c7.6-4.7,5.7-19.3-0.2-21.8c-5.4-2.3-9-1.4-13.6,1.7c-5.7,3.9-11.2,19.3,6.2,21.5
			C1403,167.1,1405.5,166.5,1407.4,165.3z M1324.5,133.6c2.6-4.9,6.6-8.7,11.3-11.7c-2.2,2.1-3.4,5.1-2.5,8.1
			c1,3.3,6.4,4.9,11.3,3.1c4.5-1.7,6.2-6.2,5.4-9.9c-0.8-3.5-5.4-5-9.8-3.8c9.4-4.6,20.6-6.3,29.4-5.7c4.6,0.3,9.1,1.2,13.3,2.8
			c11.8,4.1,21.9,12.3,26.9,22.3c2.3,4.6,3.6,9.7,3.4,14.8c-0.2,5.8-2.3,10.1-5.7,13.2c-8.5,7.8-25,8.2-40.6,7.2
			c-15.8-1.1-48.6-3.4-45.5-30.1C1321.7,140,1322.8,136.6,1324.5,133.6z M1401.3,138.2c4.2-2,1.1-7.9-0.9-11
			c-2-3.1-9.8-6.4-11.9-4.8c-2.8,2.3-1.4,7.3,0.6,10.5C1390.7,135.3,1397,140.2,1401.3,138.2z M1373.8,118.6
			c0.3-1.3-1.9-2.8-3.2-2.8c-1.3,0-3.6,1.5-3.2,2.8C1367.8,119.7,1373.4,120.5,1373.8,118.6z M1347.6,149.5
			c1.2-7.8-11.6-14.1-17.5-11.8c-7.6,2.8-9.6,17.5-4.2,22.9C1331.3,165.9,1346.2,158.8,1347.6,149.5z"/>
		<path class="st0" d="M1392.4,97.5c16.4-0.4,19.3,22.6,17.3,41.3c-5-10-15.1-18.2-26.9-22.3C1381.5,110.1,1380.4,97.8,1392.4,97.5z
			"/>
		<path class="st0" d="M1312.1,164.5c-3.8-2.7-8-7.9-10.7-19.1c-4.9-20.3,3.9-34.3,13.6-32.7c8.1,1.3,9.5,13.5,9.6,21
			c-1.6,3-2.8,6.4-3.2,10.2c-3,26.7,29.7,29,45.5,30.1c15.6,1.1,32.2,0.6,40.6-7.2c0.1,2.8,0.2,6.3,0.2,9.9
			c-3.8,2.7-12.2,6.5-29.1,6.3c-27.3-0.3-49.8-5.9-57.8-8.1c0.2-2.2,0.3-4.1-0.2-5.4C1319.9,167.5,1316.2,167.4,1312.1,164.5z"/>
		<path class="st0" d="M1407.4,165.3c-1.9,1.2-4.4,1.8-7.5,1.4c-17.4-2.2-11.9-17.6-6.2-21.5c4.5-3.1,8.2-4,13.6-1.7
			C1413.1,146,1415,160.6,1407.4,165.3z"/>
		<path class="st1" d="M1365.1,221.8c-1.8,0-3.8,0-5.8-0.1c-19.9-0.9-30.4-6-35.7-12.7c-8.4-10.6-3.9-25.2-2.9-34.1
			c8.1,2.2,30.5,7.8,57.8,8.1c16.9,0.2,25.3-3.6,29.1-6.3c-0.1,5.3-0.5,10.7-1.6,14.2c-1.3,4-2.9,11.6-8.7,18.4
			C1391.6,215.8,1382.1,221.5,1365.1,221.8z"/>
		<path class="st0" d="M1400.4,127.2c2,3.1,5.1,9,0.9,11c-4.2,2-10.6-2.9-12.1-5.4c-2-3.1-3.4-8.2-0.6-10.5
			C1390.6,120.7,1398.5,124.1,1400.4,127.2z"/>
		<path class="st0" d="M1397.3,209.2c-1.8,8.8-6.2,21.7-16.5,21.9c-9.6,0.2-13.8-5.2-15.6-9.3
			C1382.1,221.5,1391.6,215.8,1397.3,209.2z"/>
		<path class="st0" d="M1370.6,115.8c1.3,0,3.5,1.5,3.2,2.8c-0.4,1.9-6,1.1-6.4,0C1367,117.3,1369.3,115.8,1370.6,115.8z"/>
		<path class="st0" d="M1349.9,123.2c0.8,3.7-0.8,8.2-5.4,9.9c-4.9,1.8-10.3,0.2-11.3-3.1c-0.9-3,0.2-6,2.5-8.1
			c1.4-0.9,2.8-1.7,4.3-2.4C1344.5,118.2,1349.1,119.7,1349.9,123.2z"/>
		<path class="st0" d="M1330.1,137.6c5.9-2.2,18.7,4,17.5,11.8c-1.4,9.3-16.4,16.4-21.7,11C1320.5,155.1,1322.5,140.4,1330.1,137.6z
			"/>
		<path class="st0" d="M1320.7,174.9c-1,8.9-5.5,23.6,2.9,34.1c-5.2-1.5-12.9-5.2-18.9-14c-7.9-11.7-7.5-21.8-1.1-27.5
			c2.3-2,5.7-2.8,8.5-3.1c4.2,3,7.8,3,8.5,5C1321,170.8,1321,172.7,1320.7,174.9z"/>
	</g>
</g>
<g id="XMLID_6_">
	<g>
		<path class="st0" d="M1694.4,136.3c2.1-2.8,4.8-5.4,7.8-6.7c1.9-0.8,3.9-1.1,6-0.8c12.8,1.9,15.4,15.4,13.2,30.1
			c-1,6.3-5.2,12.8-8.2,16.6c-5.4-8.2-15.6-16.1-33.9-17.6c3-1.9,7.3-5.3,9.4-11.1C1689.7,144,1691.7,139.9,1694.4,136.3z"/>
		<path class="st0" d="M1719,190.2c2,3,2.7,6.8,1.4,10.8c-1.8,5.8-8.7,9.3-15,9.4c-4,0.1-7.9-1.2-10.2-4.1
			c-6.3-7.9,3.6-21.9,10.9-22.2C1711.6,183.9,1716.4,186.3,1719,190.2z"/>
		<path class="st1" d="M1713.3,175.5c3.6,5.4,5.2,10.9,5.7,14.7c-2.6-3.9-7.4-6.3-12.9-6.1c-7.3,0.3-17.2,14.3-10.9,22.2
			c2.3,2.9,6.2,4.2,10.2,4.1c-5.3,5.3-15,12.7-28.6,14.7c-17.2,2.5-31.7-1.1-39.4-3.9c3.6-2.1,6.8-5.5,7-10.8
			c0.4-9.4-10.3-16.7-18.1-15.4c-4.7,0.8-8.7,4.4-10.9,8.9c0-1.4,0.1-3.6,0.5-6.3c1.2-7.9,5.2-20.2,17.3-29.1
			c5.7-4.1,13.1-7.5,22.9-9.4c1.1,1.9,3.5,5.3,7.9,5c4.7-0.4,6.1-4.1,6.6-6.5c3.2-0.1,6.1,0,8.9,0.2
			C1697.7,159.4,1707.8,167.4,1713.3,175.5z M1694.1,179.3c2.1-2.3,4.7-9.8,1.4-12.4c-3-2.4-9.8-1.5-12.6,1.7
			c-3.7,4.2-4.6,12-0.1,14.5C1687,185.5,1692,181.5,1694.1,179.3z M1667,168.8c0.1-1.1-1.5-2.3-2.8-2.3c-1.8,0-2.8,2.1-2.4,2.7
			C1662.3,170.2,1666.8,169.9,1667,168.8z M1645.4,189.7c3.1-1,4-6.4,3.1-10.6c-1-4.8-6.1-8.6-10.7-6.8c-4.9,1.9-5.2,9.8-3.7,12.6
			C1636.2,188.7,1640.9,191.1,1645.4,189.7z"/>
		<path class="st0" d="M1689.1,106.6c13.6,0.7,13.7,16.4,13.2,23c-3.1,1.3-5.7,3.8-7.8,6.7c-5.6-2.3-15.8-5.3-29.7-4.9
			C1666.7,123.4,1673,105.7,1689.1,106.6z"/>
		<path class="st0" d="M1695.5,166.8c3.3,2.6,0.7,10.2-1.4,12.4c-2.1,2.3-7.1,6.2-11.3,3.8c-4.4-2.5-3.5-10.3,0.1-14.5
			C1685.7,165.3,1692.5,164.4,1695.5,166.8z"/>
		<path class="st1" d="M1651.5,132.8c1.2-0.3,2.4-0.5,3.7-0.7c3.3-0.5,6.5-0.7,9.5-0.8c13.9-0.4,24.1,2.6,29.7,4.9
			c-2.7,3.6-4.7,7.7-5.7,10.6c-2.1,5.7-6.3,9.2-9.4,11.1c-2.8-0.2-5.7-0.3-8.9-0.2c-2.2,0.1-4.5,0.2-6.9,0.4
			c-2.6,0.3-5.1,0.6-7.5,1.1c-9.8,1.8-17.2,5.2-22.9,9.4c-1.8-2.6-4.7-6.9-8.4-11.2c-1.2-1.4-3-3-5.3-4.4
			C1623.8,147.7,1634.9,136.4,1651.5,132.8z"/>
		<path class="st0" d="M1664.2,166.6c1.3,0,3,1.1,2.8,2.3c-0.1,1.1-4.7,1.4-5.2,0.4C1661.4,168.6,1662.3,166.6,1664.2,166.6z"/>
		<path class="st2" d="M1663.5,158.1c2.4-0.2,4.7-0.4,6.9-0.4c-0.5,2.4-1.9,6.1-6.6,6.5c-4.3,0.4-6.8-3-7.9-5
			C1658.4,158.8,1660.9,158.4,1663.5,158.1z"/>
		<path class="st0" d="M1648.5,179.1c0.8,4.2,0,9.6-3.1,10.6c-4.4,1.4-9.2-1-11.3-4.8c-1.6-2.8-1.2-10.6,3.7-12.6
			C1642.4,170.5,1647.5,174.3,1648.5,179.1z"/>
		<path class="st0" d="M1637.3,221.3c-2.3,1.3-4.8,2.1-6.9,2.4c-5.3,0.8-12.4-0.4-15.4-5.6c-2.4-4.2-1.9-9.6,0.4-14.1
			c2.2-4.5,6.2-8.2,10.9-8.9c7.8-1.2,18.5,6,18.1,15.4C1644.1,215.7,1640.9,219.2,1637.3,221.3z"/>
		<path class="st0" d="M1631.1,111.5c13.9-1.7,18.8,13.7,20.4,21.4c-16.7,3.6-27.7,14.8-32.1,20.2c-2.4-1.5-5.2-2.8-8.1-3.3
			C1611.7,140.3,1614.4,113.5,1631.1,111.5z"/>
		<path class="st0" d="M1611.2,149.7c2.9,0.6,5.7,1.9,8.1,3.3c2.3,1.4,4.2,3,5.3,4.4c3.7,4.4,6.7,8.6,8.4,11.2
			c-12.1,8.9-16.1,21.1-17.3,29.1c-2.3-1.5-10.6-7.1-16.7-15.4c-6.3-8.7-6.8-22.2,0.8-29.7C1603,149.3,1607.2,148.8,1611.2,149.7z"
			/>
	</g>
</g>
<g id="XMLID_7_">
	<g>
		<path class="st0" d="M2012.5,187.5c-2.2,2.4-5.2,3.9-8.3,4.1c-5.4,0.3-11-2.2-12.4-8.7c-0.8-4,0-10.2,4.6-13.5
			c1.5-1.1,3.5-1.8,5.9-2c3.9-0.3,8.4,2,11.1,5.2c1.5,1.7,2.4,3.7,2.4,5.7C2015.9,182.1,2014.5,185.3,2012.5,187.5z"/>
		<path class="st0" d="M1996.4,137.3c4.6-4.5,9.8-7.1,14.9-4.8c13.7,6.2,8.1,29.5,2.1,40.2c-2.7-3.2-7.2-5.5-11.1-5.2
			c-2.4,0.2-4.4,0.9-5.9,2c-3.9-3.2-9.6-5.5-16.1-6.5c2.3-5.3,7.7-16.3,14.3-23.8v0C1995.2,138.6,1995.8,137.9,1996.4,137.3z"/>
		<path class="st1" d="M1980.3,163c6.6,1,12.3,3.3,16.1,6.5c-4.6,3.2-5.5,9.5-4.6,13.5c1.4,6.4,7,9,12.4,8.7
			c3.1-0.2,6.1-1.7,8.3-4.1c1.1,3.4,1.9,9-1.1,15.4c-3.2,6.9-9,13.6-39.2,18.1c-30.1,4.5-46.4-3.7-49.7-11.3
			c-2.3-5.3-2.6-12.4-2.4-17.4c0.4,0.1,0.7,0.2,1.1,0.3c3.2,5.1,9.8,7.3,15.3,5.8c4.2-1.2,9.1-6,9.4-12.4c0.2-4.2-1.8-8.9-5.6-11.7
			c3-2.8,11.6-9.6,22.9-11.3C1969.1,162.1,1975,162.2,1980.3,163z"/>
		<path class="st0" d="M1974.1,99.8c24.3,0.4,22.5,27,21,36.7c-5.4-3.1-16.3-8-30.3-8.1C1961.8,119,1957.5,99.5,1974.1,99.8z"/>
		<path class="st1" d="M1949.2,130.3c1.1-0.3,2.2-0.6,3.4-0.8c4.3-0.8,8.3-1.1,12.2-1.1c14,0.1,24.9,5,30.3,8.1
			c-0.2,1.2-0.4,2.1-0.5,2.7v0c-6.7,7.5-12,18.5-14.3,23.8c-5.3-0.8-11.2-0.9-17.1,0c-11.3,1.7-19.8,8.5-22.9,11.3
			c-1.6-1.2-3.5-2-5.6-2.3c-1.3-3.4-3.6-7.8-7.3-11.2c-1.7-1.6-4.5-3.9-7.9-5.9C1922.7,149.4,1932.3,135.1,1949.2,130.3z"/>
		<path class="st0" d="M1934.7,172c2.1,0.3,4,1.1,5.6,2.3c3.7,2.8,5.8,7.4,5.6,11.7c-0.3,6.4-5.2,11.2-9.4,12.4
			c-5.4,1.5-12.1-0.7-15.3-5.8c-0.4-0.6-0.7-1.3-1-2c-0.3-0.7-0.5-1.5-0.6-2.3c-1.1-6.4,2.6-13.9,9.4-15.8
			C1931,171.9,1932.9,171.8,1934.7,172z"/>
		<path class="st0" d="M1915.4,152.7c1.4,0.6,2.8,1.4,4.1,2.2c3.3,2,6.2,4.4,7.9,5.9c3.7,3.5,5.9,7.8,7.3,11.2
			c-1.8-0.2-3.7-0.1-5.8,0.4c-6.8,1.9-10.5,9.4-9.4,15.8c0.1,0.8,0.4,1.6,0.6,2.3c0,0.5-0.1,1.1-0.1,1.7
			c-20.4-6.6-26-29.2-19.8-37.9C1903.9,149.4,1909.9,150.2,1915.4,152.7z"/>
		<path class="st0" d="M1922.9,104.3c17.5-4.1,24.2,16.9,26.3,26c-16.8,4.8-26.5,19.1-29.7,24.5c-1.3-0.8-2.7-1.5-4.1-2.2
			C1912.2,140.2,1905.8,108.4,1922.9,104.3z"/>
	</g>
</g>
<g id="XMLID_8_">
	<g>
		<path class="st0" d="M2309,152.6c16.7,6.5,24.9,17,28,22.8c5.6,10.7,5.8,26.2-3.9,29.5c-5.6,2-10.3,0.7-13.3-0.7
			c-0.2-1.8-0.7-3.5-1.6-5.2c-1.1-2.1-2.8-3.7-4.6-4.9c0.1-5.1,3.2-17.1,0.5-24.5c-3-8.3-12.8-15.1-50.1-13.9
			c-37.3,1.1-48.8,17.3-50.1,23.7c-2.2,10.9,4.7,16.6,6.7,22c-2.7,1.1-3.9,3.1-4.5,5.4c-2.2,2.1-5.8,4.5-10.7,4.3
			c-9.1-0.4-12-10.4-10.3-19.2c1.1-5.8,5.5-16.2,16.4-25.7c10.4-9,26.5-17.1,51-19.1C2282.6,145.6,2297.8,148.2,2309,152.6z"/>
		<path class="st0" d="M2319.8,204.3c0.8,7.3-3.8,14.9-9.9,15.2c-5,0.2-10.8-1.3-14.5-4.6c-1.9-1.6-3.3-3.6-3.9-6
			c-1.9-7.2,1.1-12.1,5.7-15.1c3.8-2.6,11.1-3,16.5,0.4c1.8,1.2,3.4,2.8,4.6,4.9C2319.1,200.8,2319.6,202.6,2319.8,204.3z"/>
		<path class="st1" d="M2314,169.8c2.7,7.4-0.4,19.4-0.5,24.5c-5.4-3.4-12.7-2.9-16.5-0.4c-4.5,3-7.5,7.9-5.7,15.1
			c0.6,2.4,2,4.4,3.9,6c-4.3,2-13.1,5.4-24.6,6.5c-12.3,1.1-26.1-0.3-32.3-1c2.4-2.5,4.3-5.9,4.5-9.1c0.4-6-9-10.5-16.9-10.5
			c-2.2,0-4,0.3-5.4,0.9c-1.9-5.4-8.9-11.1-6.7-22c1.3-6.4,12.8-22.6,50.1-23.7C2301.2,154.7,2311,161.5,2314,169.8z M2295,177
			c2.3-4.5,2.4-10.3-1.5-13c-4.3-3-9.4,0.8-12.1,4.9c-2.7,4.2-2.3,12.9,2.1,14.3C2288.6,184.9,2292.8,181.5,2295,177z M2265.3,164.9
			c0.2-1.9-1.8-2.5-2.9-2.3c-1.5,0.2-3.4,2-2.6,3.3C2260.3,166.8,2265.1,166.3,2265.3,164.9z M2243.1,191.3c5.6-1.5,6-7.9,5.4-12.2
			c-0.8-6.4-8.9-10.2-14.3-8.1c-4.9,1.9-6,9.5-3.9,13.9C2232.3,189.4,2237.4,192.8,2243.1,191.3z"/>
		<path class="st1" d="M2300.9,135.5c5.3,5.9,7.4,12.6,8.2,17.1c-11.3-4.4-26.4-7.1-46.6-5.4c-24.5,2-40.7,10.1-51,19.1
			c0.3-2.7,1.1-7.3,3-12.4c4-10.5,13.1-23.4,33.5-28.5c3.9-1,8.2-1.7,13-2c3.1-0.2,6-0.3,8.7-0.2
			C2285.5,123.8,2295.1,129.2,2300.9,135.5z"/>
		<path class="st0" d="M2293.5,164c3.9,2.7,3.8,8.5,1.5,13c-2.3,4.5-6.4,7.9-11.5,6.2c-4.4-1.5-4.8-10.1-2.1-14.3
			C2284.1,164.7,2289.2,161,2293.5,164z"/>
		<path class="st0" d="M2286.4,111.3c12.7,0.6,14.3,17.9,14.5,24.2c-5.8-6.3-15.3-11.6-31.2-12.2
			C2272.7,118.3,2278.6,110.9,2286.4,111.3z"/>
		<path class="st0" d="M2262.4,162.6c1.1-0.2,3.2,0.4,2.9,2.3c-0.2,1.4-5,1.9-5.6,0.9C2259,164.5,2260.9,162.7,2262.4,162.6z"/>
		<path class="st0" d="M2248.5,179c0.6,4.3,0.2,10.7-5.4,12.2c-5.7,1.5-10.7-1.9-12.8-6.4c-2.1-4.5-0.9-12,3.9-13.9
			C2239.6,168.9,2247.7,172.7,2248.5,179z"/>
		<path class="st0" d="M2238.4,220.3c-2,2.1-4.4,3.5-6.4,3.7c-4.5,0.4-15.8-4.1-16.2-10.2c-0.1-2.3-0.2-4.8,0.3-6.9
			c0.6-2.3,1.8-4.3,4.5-5.4c1.4-0.6,3.1-0.9,5.4-0.9c7.9,0,17.3,4.5,16.9,10.5C2242.7,214.5,2240.8,217.9,2238.4,220.3z"/>
		<path class="st0" d="M2227.4,120.7c10.8-4.4,17.5,1.2,20.5,4.8c-20.4,5.1-29.5,18-33.5,28.5
			C2211.2,142.9,2213.3,126.4,2227.4,120.7z"/>
	</g>
</g>
<g id="XMLID_9_">
	<g>
		<path class="st0" d="M2523.8,197.1c-3.3-1-6.3-2.5-8.8-4.7c-10.9-9.4-7.2-21.4-2.6-27.1c2.8-3.6,7.4-6.1,11.4-7.8
			c-0.2,0.4-0.3,0.8-0.4,1c-2.3,4.5-6.4,15.4-1.9,20.7c7,8.2,32.4,10.2,47.8,8.7c15.4-1.5,31.9-7.4,35.8-16.2
			c3.8-8.7,0.6-17.4-1.7-21.1c18,5.9,19.9,21.7,13.4,35.4c-0.5,1.1-1.1,2-1.9,2.9c-7.1,8.2-24.9,7.7-47.1,8.4
			C2554,197.7,2536.5,201,2523.8,197.1z"/>
		<path class="st1" d="M2614.8,188.9c2.3,4,4.1,9.8,1.5,16c-5.3,12.4-24.8,14.7-42.5,16.6c-14.6,1.6-37.8-0.9-45.9-6
			c-6.6-4.2-5.6-12.8-4-18.3c12.7,3.9,30.2,0.6,43.9,0.2C2589.9,196.6,2607.7,197.1,2614.8,188.9z"/>
		<path class="st1" d="M2598.4,143.7c2.3,2.9,3.7,5.3,4.3,6.1c0.2,0.2,0.3,0.5,0.5,0.8c2.3,3.6,5.6,12.3,1.7,21.1
			c-3.9,8.8-20.3,14.7-35.8,16.2c-15.4,1.5-40.8-0.5-47.8-8.7c-4.5-5.3-0.4-16.2,1.9-20.7c0.1-0.2,0.3-0.6,0.4-1
			c0.6-1.6,1.6-4.3,3.3-7.5c2.6-5.1,6.6-11.4,13-16.2c5.3-4,12.1-6.9,21-7.3c5.2-0.2,9.9,0.4,14,1.4
			C2586.8,131.1,2594.2,138.3,2598.4,143.7z"/>
		<path class="st0" d="M2597.5,124.6c7.1,5.2,3.4,14.5,0.9,19.1c-4.3-5.4-11.7-12.7-23.4-15.7C2579,125.2,2589.7,118.9,2597.5,124.6
			z"/>
		<path class="st0" d="M2540,133.8c-6.4,4.8-10.4,11.1-13,16.2c-5.3-3.7-15.6-12.9-3.7-22.8C2532.6,119.6,2537.9,128.8,2540,133.8z"
			/>
	</g>
</g>
<g id="XMLID_10_">
	<g>
		<path class="st0" d="M2921.4,202.5c-3.7-2.4-8.2-6.9-14.4-8.6c-6.4-1.7-26,2.6-45.9,5.6c-8.2,1.2-28.4,0-37.7-0.7
			c-0.1-0.9-0.1-1.7-0.3-2.3c-1.9-5.6-14.3-12.8-16.6-21.8c-2-8.2,1.1-17.8,7.5-19.2c2.5-0.5,5.1-0.2,7,0.3c0,0,0,0,0,0.1
			c-2.9,8.2-3.2,16.1-1.8,20c3.6,10.4,18.1,16.6,48.6,15.1c27.9-1.4,39.4-13.9,43.4-23c8.6,2.2,18.8,9.1,21.8,18.9
			c2.3,7.6-0.8,14.3-5.6,16.9C2925.5,204.7,2923.6,203.9,2921.4,202.5z"/>
		<path class="st1" d="M2911.2,167.8c-4,9.2-15.5,21.7-43.4,23c-30.5,1.5-45-4.7-48.6-15.1c-1.4-4-1.1-11.8,1.8-20c0,0,0,0,0,0
			c0,0,0,0,0,0c3.3-9.4,10.2-19.3,22.3-24.6c3.5-1.5,7.3-2.6,11.7-3.2c8.2-1.1,14-1.4,18.1-1.3c-0.5,2.6-0.2,5.3,0.7,7.3
			c2.3,4.9,7.5,7.5,15.4,6.4c3.4-0.5,5.7-2.5,7.1-4.9c1.6,3.3,4.2,7.9,6.5,10.2c3.8,3.8,10.2,7.5,10.2,14.7
			C2913,162.2,2912.5,164.8,2911.2,167.8z M2898.7,160.8c4.5-2,4.4-7.3,3.7-10.4c-0.6-2.6-4.4-9-9.7-7.6c-5.5,1.4-5.5,8-4.8,11.7
			C2888.9,159.5,2894.8,162.5,2898.7,160.8z"/>
		<path class="st1" d="M2907,193.9c6.1,1.6,10.7,6.1,14.4,8.6c-10.5,9.8-45.6,21.6-71.2,18.2c-27-3.7-26.4-15.7-26.8-21.8
			c9.3,0.7,29.4,2,37.7,0.7C2881,196.5,2900.6,192.2,2907,193.9z"/>
		<path class="st0" d="M2902.4,150.3c0.7,3.1,0.9,8.5-3.7,10.4c-3.9,1.7-9.9-1.3-10.9-6.3c-0.7-3.7-0.7-10.3,4.8-11.7
			C2898,141.3,2901.8,147.7,2902.4,150.3z"/>
		<path class="st0" d="M2873.1,126.7c0.7-3.7,2.9-7.2,7.1-8.5c6.4-2,13.2,1.9,16.2,6.8c1.7,2.8,1.7,7.1-0.1,10.5
			c-1.4,2.5-3.7,4.5-7.1,4.9c-7.9,1.1-13.2-1.5-15.4-6.4C2872.9,132,2872.6,129.3,2873.1,126.7z"/>
		<path class="st0" d="M2826.4,125.4c7.3-3.5,13.8,2.3,16.9,5.8c-12.1,5.2-18.9,15.1-22.3,24.6c0,0,0,0,0,0s0,0,0,0
			C2816.8,145.6,2814.7,131,2826.4,125.4z"/>
	</g>
</g>
<g id="XMLID_11_">
	<g>
		<path class="st0" d="M3216.4,190.8c5.2,2.9,11.1,8.4,9.2,18c-1.2,6.2-14.2,9-29.9,10.3c-2.1-3.3-5.1-9.2-4.2-15.7
			c1-7.4,4.9-11.6,7.9-13.8c3.2,1.2,6.6,2.1,10.4,2.5C3212.1,192.3,3214.4,191.8,3216.4,190.8z"/>
		<path class="st0" d="M3216.4,190.8c-1.9,1.1-4.2,1.6-6.6,1.4c-3.8-0.4-7.2-1.3-10.4-2.5c-15.4-5.8-27-18.9-57.1-17
			c-11.4,0.7-25.6,11.8-32.6,17.9c-0.5-3.8-0.7-8.1-0.4-12.9c0.3-4.9,1-9.1,2-12.8c7-5.3,21.4-14.2,38.4-13.7
			c20.2,0.6,42.9,6.6,57,13.6c5.9,2.9,10.4,6.1,12.5,9C3224.2,181,3221.6,187.9,3216.4,190.8z"/>
		<path class="st1" d="M3148.1,117.6c1.4-0.3,2.5-0.5,3.5-0.6c11.3-1.1,20.6,0.3,25.8,1.4c-2.4,4.5,0.1,10.3,2.4,13
			c3.7,4.2,12.2,6.9,15.8,4.5c1.3-0.9,2.2-2.3,2.6-4.1c1.7,2.8,3.1,6,3.3,10.3c0.2,3.7,3.7,7.4,4.5,11c1.1,4.8,0.9,8.9,0.5,11.6
			c-14.1-7-36.7-13-57-13.6c-17-0.5-31.4,8.4-38.4,13.7c2.6-9.9,7-16.2,9.6-23.3c1.4-4,3.3-7.4,5.4-10.2
			C3132.9,122.6,3142.2,118.9,3148.1,117.6z M3198.6,149.5c1.4-4.1-0.1-7.9-2.3-8.9c-2.1-1-5.1-0.1-7.2,2.3
			c-2.4,2.8-2.1,8.8,1.3,10.3C3193.7,154.6,3197.3,153.2,3198.6,149.5z"/>
		<path class="st0" d="M3196.3,140.6c2.1,1,3.7,4.8,2.3,8.9c-1.3,3.7-4.9,5.1-8.2,3.7c-3.3-1.4-3.7-7.5-1.3-10.3
			C3191.3,140.4,3194.2,139.6,3196.3,140.6z"/>
		<path class="st0" d="M3177.4,118.4c0.6-1,1.3-2,2.4-2.8c3.7-2.8,12.7-0.3,15,2.8c3.1,4.2,4.3,9.6,3.4,13.4v0
			c-0.4,1.8-1.3,3.2-2.6,4.1c-3.6,2.4-12.1-0.3-15.8-4.5C3177.5,128.7,3174.9,123,3177.4,118.4z"/>
		<path class="st1" d="M3199.3,189.6c-3,2.2-6.9,6.4-7.9,13.8c-0.9,6.5,2.1,12.4,4.2,15.7c-17.4,1.4-38.1,1-50.3,1
			c-6.7,0-31.8-0.5-35.7-29.5c7-6.2,21.2-17.2,32.6-17.9C3172.4,170.8,3184,183.8,3199.3,189.6z"/>
		<path class="st0" d="M3133.8,108.3c8.6-2.4,12.8,5.5,14.3,9.3c-5.9,1.3-15.2,5-21.9,13.8C3123.1,124.5,3123.7,111,3133.8,108.3z"
			/>
	</g>
</g>
<g id="XMLID_12_">
	<g>
		<path class="st0" d="M3515.3,184.5c3.2,3.7,4.4,9.4,3.1,17c-1.9,10.2-6,17.3-15.4,17.7c-8.4,0.3-17.7-5.3-18.5-15.3
			c-0.1-1.2-0.1-2.5,0.1-3.9c1.5-12.1,12-20.7,21.1-20C3509.7,180.3,3513,181.8,3515.3,184.5z"/>
		<path class="st0" d="M3508.6,143.5c1.5,1.6,2.8,3.4,4.1,5.3c3.4,5.1,4.3,12.6,4.2,20c-8.2-6.8-26.6-19-55-20.4
			c-27.9-1.3-44.4,11.1-51.7,18.5c0.1-7,1.8-14.6,4.7-21.9c8.7-7.7,24.6-18.8,43.6-18.3C3480.8,127.1,3497.5,131.1,3508.6,143.5z"/>
		<path class="st1" d="M3446.5,203.8c-14.1-3.2-30.9-10.8-35.2-26.3c-0.3-1-0.5-2.1-0.7-3.2c-0.4-2.4-0.5-4.9-0.5-7.5
			c7.2-7.4,23.7-19.8,51.7-18.5c28.4,1.4,46.9,13.6,55,20.4c-0.1,5.7-0.8,11.3-1.6,15.8c-2.3-2.6-5.6-4.2-9.7-4.5
			c-9.1-0.7-19.6,7.9-21.1,20c-0.2,1.3-0.2,2.6-0.1,3.9c-4.9,1-13.7,2.4-22.5,2.2C3458.1,205.8,3452.6,205.2,3446.5,203.8z"/>
		<path class="st1" d="M3446.5,110.9c3.6-1.3,7.3-2.2,11.3-2.5c14.4-1,22.1,1.1,26.1,3.3c-1.3,3.8-0.4,7.8,1.8,10.2
			c3.8,4.1,13,3.9,15.8,1.9c0.3-0.2,0.6-0.5,0.9-0.8c1.6,2.8,3.7,6.6,4.7,9.4c1.3,3.6,1.6,7.8,1.6,10.9
			c-11.2-12.4-27.8-16.4-50.1-16.9c-19-0.5-34.9,10.6-43.6,18.3c2-4.9,4.5-9.8,7.6-14.2C3428.6,121.9,3436.7,114.6,3446.5,110.9z"/>
		<path class="st0" d="M3502.4,123.1c-0.3,0.3-0.6,0.5-0.9,0.8c-2.8,2.1-12.1,2.3-15.8-1.9c-2.2-2.4-3.1-6.5-1.8-10.2
			c0.6-1.7,1.7-3.4,3.3-4.8c5.6-4.9,15.6-3.2,18.4,0.4C3508.4,110.9,3507.2,118.7,3502.4,123.1z"/>
		<path class="st0" d="M3446.5,203.8c-0.8,7-3.7,18.1-12.1,18.7c-9.1,0.6-18.1-3.4-21.8-16.2c-2.4-8.2-1.9-20.8-1.2-28.8
			C3415.6,193.1,3432.5,200.6,3446.5,203.8z"/>
		<path class="st0" d="M3423.5,111.5c7.3-7.9,18.1-3.3,23-0.5c-9.8,3.7-17.9,10.9-24,19.7C3420,126.9,3416.4,119.1,3423.5,111.5z"/>
	</g>
</g>
<g id="XMLID_13_">
	<g>
		<path class="st0" d="M3818.1,193c1.6,7,1.6,14.9-0.9,23.9c-5.3,19.6-14.7,24.1-23.7,24.1c-8.5,0-18.5-10-18.6-21.7
			c0-0.7,0-1.4,0.1-2.1c1.4-14.5,27.1-29.1,42.4-26.7C3817.8,191.4,3818,192.2,3818.1,193z"/>
		<path class="st0" d="M3817.5,190.6c-2.9-10.3-9-18.4-15.3-24.9c-10.9-11.3-34.2-17.3-61.7-15.8c-19.1,1.1-31.9,10.1-38.1,15.5
			c0-6.2,0.3-13.1,0.8-20.3c4.2-3.9,11.8-9.5,22.3-10.2c20.7-1.5,37.3,2.3,48.6,0.8c8.4-1.1,18.4-4.5,28.3-1.7
			c3.4,1,6.8,2.7,10.1,5.5c12.2,10.4,21.8,41.8,5.8,53.6C3818,192.2,3817.8,191.4,3817.5,190.6z"/>
		<path class="st1" d="M3702.9,177.8c-0.4-3.6-0.5-7.8-0.5-12.5c6.1-5.4,19-14.4,38.1-15.5c27.5-1.5,50.8,4.5,61.7,15.8
			c6.3,6.5,12.5,14.7,15.3,24.9c-15.3-2.4-41,12.1-42.4,26.7c-0.1,0.7-0.1,1.4-0.1,2.1c-7.3,1.9-20.4,3.6-36-2
			c-2.1-0.7-4.2-1.6-6.4-2.7c-27.1-12.8-27.2-23.4-29-32C3703.3,181.2,3703.1,179.6,3702.9,177.8z"/>
		<path class="st1" d="M3706.7,105.9c1.1-6.3,7.7-17.3,18.1-25.1c5-3.8,11-6.8,17.6-8.2c-2.6,7.2,5.8,11.1,12.4,12.5
			c5.3,1.1,13.5-0.6,15.1-4.9c0.5-1.3,0.7-2.8,0.8-4.2c5.6,1.8,12.2,6.2,15.4,6.8c3.8,0.8,9.3-2.1,15.1,0.8
			c6.8,3.4,12.6,19.8,9.4,32.8c-2.1,8.6-5.6,14.2-8.2,17.5c-9.9-2.8-19.9,0.6-28.3,1.7c-11.3,1.5-27.9-2.2-48.6-0.8
			c-10.4,0.8-18.1,6.3-22.3,10.2c0.8-13.3,2.2-27.3,3.4-38.5C3706.6,106.3,3706.7,106.1,3706.7,105.9z M3801.8,93
			c1.3-0.6,2.3-3,1.5-3.8c-0.7-0.8-5.5,0.4-5.5,2.1C3797.9,92.4,3800.6,93.6,3801.8,93z M3786.9,100.1c2.6-1.6,4.2-7.6,0.6-12.7
			c-2.9-4.1-8.5-6.8-12.7-4.5c-2.8,1.5-2.7,9.3-0.8,13C3776.4,100.9,3783.2,102.3,3786.9,100.1z"/>
		<path class="st0" d="M3803.4,89.2c0.7,0.9-0.3,3.2-1.5,3.8c-1.3,0.6-4-0.6-4-1.7C3797.9,89.6,3802.7,88.3,3803.4,89.2z"/>
		<path class="st0" d="M3787.4,87.4c3.7,5.1,2,11.1-0.6,12.7c-3.7,2.3-10.4,0.8-13-4.2c-1.9-3.7-1.9-11.5,0.8-13
			C3779,80.6,3784.5,83.3,3787.4,87.4z"/>
		<path class="st0" d="M3742.4,72.6c0.2-0.7,0.6-1.4,1.1-2.2c4.9-7.9,12.4-10.2,18.8-8.7c5.3,1.2,8.7,7.8,8.3,14.3
			c-0.1,1.4-0.3,2.8-0.8,4.2c-1.5,4.3-9.8,6-15.1,4.9C3748.3,83.7,3739.8,79.8,3742.4,72.6z"/>
		<path class="st0" d="M3732.6,214.6c2.2,1,4.3,1.9,6.4,2.7c-0.7,7.9-3.8,20.7-16.4,20.9c-12.5,0.1-20.7-13.4-21.5-29.4
			c-0.4-9.6,0.7-22.4,1.8-31c0.2,1.8,0.4,3.4,0.7,4.8C3705.3,191.2,3705.5,201.8,3732.6,214.6z"/>
		<path class="st0" d="M3702.1,80.6c5.7-7.7,17.3-2.7,22.7,0.2c-10.4,7.8-17,18.8-18.1,25.1C3702.2,101.5,3694.1,91.4,3702.1,80.6z"
			/>
	</g>
</g>
</svg>
