<?xml version="1.0" encoding="utf-8"?>
<!-- Generator: Adobe Illustrator 25.2.3, SVG Export Plug-In . SVG Version: 6.00 Build 0)  -->
<svg version="1.1" id="Layer_2" xmlns="http://www.w3.org/2000/svg" xmlns:xlink="http://www.w3.org/1999/xlink" x="0px" y="0px"
	 width="3900px" height="300px" viewBox="0 0 3900 300" style="enable-background:new 0 0 3900 300;" xml:space="preserve">
<style type="text/css">
	.st0{fill:#FFFFFF;}
	.st1{fill:#FCBBC3;}
</style>
<g id="XMLID_1_">
	<g>
		<path class="st0" d="M175.5,225.5c-10.9,3.8-24.3,4.9-39.5,0.8c-6.8-1.9-12.6-4-17.5-6.3c-26.2-12.3-26.3-29.6-21.7-41
			c0.3-0.7,0.6-1.3,0.9-2c2.1-4.4,4.8-7.7,6.5-8.9c6.8-5.1,60.6,1.8,69.2,10.7c8.2,8.5-5.9,29.4,6.5,32.5c12.4,3.1,20.8-3.2,25.7-13
			c0,0.3,0,0.6,0.1,1C202.5,208.4,191.7,219.9,175.5,225.5z"/>
		<path class="st0" d="M192.8,140.6c-9.2,6-25.6,9.4-54.2,2.6c-9.1-2.2-26.3-5.1-36.8-12.9c-4.9-3.7-8.3-8.4-8.7-14.7
			C92,98.4,100.6,95,104.7,85.1c0.3-0.7,0.6-1.4,0.9-2.1c3.8-8.2,10.7-18.7,23.4-23.3c6-2.2,13.2-3,22-1.8c13.8,2,22.7,6.2,27.3,8.9
			c-1.4,1-2.6,2.2-3.5,3.5c-5.1,6.8-3.9,13.7,1.1,20.9c6,8.4,13.6,9,18.9,6.4c0.4,2.8,1.3,6.2,3.2,9.4c4,7.1,6.7,16.4,4.5,22
			C201,132.9,198.1,137.2,192.8,140.6z"/>
		<path d="M205.6,199.3c0.6,10.8-0.3,31.7-16.4,33.8c-6.2,0.8-10.8-3.7-13.6-7.6C191.7,219.9,202.5,208.4,205.6,199.3z"/>
		<path d="M118.6,220c-3.7,9.9-12.5,27.6-27.1,21c-17-7.7-1.8-52.3,4.8-62.2c0.2,0.1,0.4,0.2,0.5,0.3
			C92.3,190.4,92.4,207.7,118.6,220z"/>
		<path d="M105.8,57.4c9.1-7.9,18.7-1.6,23.2,2.3c-12.7,4.6-19.6,15-23.4,23.3C101.2,78.2,94.1,67.6,105.8,57.4z"/>
		<path d="M194.7,97.7c-5.2,2.7-12.9,2.1-18.9-6.4c-5.1-7.2-6.2-14.1-1.1-20.9c1-1.3,2.2-2.5,3.5-3.5c5.6-4.2,13.8-5,20.2,1.8
			c7.9,8.5,3.4,23.7-1.7,27.7C196.1,96.9,195.5,97.3,194.7,97.7z"/>
		<path d="M206.3,196.7C206.3,196.7,206.3,196.7,206.3,196.7c-0.2,0.6-0.5,1.1-0.8,1.6c-4.9,9.9-13.3,16.1-25.7,13
			c-12.4-3.1,1.7-24-6.5-32.5c-8.6-8.9-62.4-15.8-69.2-10.7c-1.7,1.3-4.4,4.5-6.5,8.9c-0.4,0.3-0.9,0.9-1.4,1.7
			c-3.6-2.1-8.2-6.6-9.3-16c-1.3-10.4,9.8-25.9,14.9-32.4c10.5,7.9,27.7,10.8,36.8,12.9c28.7,6.8,45.1,3.4,54.2-2.6
			c7.5,5.5,16.7,14,17.8,23.5C211.8,174.7,210.5,187.1,206.3,196.7z"/>
	</g>
	<g>
	</g>
</g>
<g id="XMLID_2_">
	<g>
		<path class="st0" d="M495.9,144.2c-3.5,2.6-7.6,4.1-11.4,4.7c-7.4,1.2-63.6,2.8-85-12.4c-4.1-2.9-6.9-6.3-7.9-10.5
			c-2-8.2,5.1-14.1,9.6-19.8c2-2.5,3.5-5.4,5-8.6c4-8.2,8-17.6,18.7-22.1c5.4-2.3,12.6-3.3,22.3-2.4c12.3,1.2,18.7,5.1,21.7,7.9
			c-2.7,3.6-3.9,7.6-3.1,10.1c3.7,12.4,17.8,11.3,21.4,11c1.2-0.1,2.6-0.7,4-1.9c4.9,5.9,14.4,18.5,13.5,28.1
			C504.2,135.8,500.5,140.9,495.9,144.2z"/>
		<path class="st0" d="M422.5,222.7c-19.4-8.6-27.5-27.4-30.7-38.6c-0.3-1.1-0.6-2.1-0.8-2.9c7.4-3.1,14.2-15,26.8-13.9
			c18.1,1.7,53.6,6.4,64.9,14.1c11.7,8,10.1,17,14.2,22.6c-4.7,0.7-12.4,2.7-20.2,8.7c-5.9,4.6-9.3,9.9-8.8,17.8
			c0,0.7,0.1,1.4,0.2,2.2c-5.7,0.3-18.3-0.5-41.7-8.4C425.2,223.8,423.8,223.3,422.5,222.7z"/>
		<path d="M405.1,74.1c5.8-6.1,14.8-1.8,19.8,1.5c-10.7,4.5-14.6,13.9-18.7,22.1C402.6,91.8,398.2,81.4,405.1,74.1z"/>
		<path d="M491.3,100.4c-1.3,1.1-2.7,1.8-4,1.9c-3.7,0.3-17.8,1.4-21.4-11c-0.8-2.5,0.4-6.6,3.1-10.1c2.4-3.3,6.1-6.1,10.7-7.1
			c6.5-1.3,17.5,5.4,16.9,14.1C496.2,94,493.9,98.2,491.3,100.4z"/>
		<path d="M422.5,222.7c-5,5.4-14.8,13.2-25,6.4c-14.1-9.5-6.3-42.5-5.7-45C395,195.3,403.1,214.1,422.5,222.7z"/>
		<path d="M468.3,232.7c-0.1-0.8-0.2-1.5-0.2-2.2c-0.6-7.9,2.9-13.2,8.8-17.8c7.7-6,15.4-8,20.2-8.7c1.5,2.1,3.9,3.8,8.1,4.7
			c1.4,0.3,2.6,0.3,3.8,0c-0.8,14.2-10.6,44.7-23.8,42.9C473.3,250.1,469.4,240.4,468.3,232.7z"/>
		<path d="M508.9,208.8c-1.1,0.3-2.4,0.3-3.8,0c-4.2-1-6.5-2.6-8.1-4.7c-4.2-5.7-2.5-14.6-14.2-22.6c-11.3-7.8-46.9-12.4-64.9-14.1
			c-12.6-1.2-19.4,10.8-26.8,13.9c-3.2,1.3-6.5,1-10.5-2.9c-9-8.8,10.6-32.6,18.9-41.8c21.4,15.2,77.7,13.6,85,12.4
			c3.8-0.6,7.9-2.1,11.4-4.7c9,6.2,15.4,14.8,19.6,25.6C520.3,181.9,518.8,206.1,508.9,208.8z"/>
	</g>
	<g>
	</g>
</g>
<g id="XMLID_3_">
	<g>
		<path class="st0" d="M693.6,185.4c0.6-6.6,3.9-12,5.8-14.4c4.5-6.2,29.5-7.8,39.5-6.2c33,5.1,42.3,14.7,52,19.2
			c2.7,1.3,6.5,2.1,10.6,2.5c0.2,4.7,0.2,11.2-0.4,18c-7.2-0.5-19,0.2-30,7.7c-4.7,3.2-8.8,7.9-11.5,12.7
			c-7.6,0.1-18.3-1.4-33.3-6.7c-0.9-0.3-1.7-0.6-2.6-0.9C697.9,207.8,692.7,195.2,693.6,185.4z"/>
		<path class="st0" d="M792.6,142.8c-8.7,4.6-23.4,6.5-47.5,2.7c-17.8-2.8-29.5-7-37.3-11.9c-9.6-5.9-13.3-12.8-15.2-19.2
			c-3-10.2,0.7-17.6,11.3-28.5c0.2-0.2,0.4-0.4,0.6-0.6c7.2-7.7,12.6-19.4,26.8-24.5c4.1-1.5,8.9-2.4,14.7-2.5
			c13.3-0.3,24.8,4.2,31.5,7.7c-1.8,1.5-3.4,3.5-4.7,6.1c-8.4,17.6,8,25.8,13,26.5c3.3,0.5,6.1,0.1,8.3-0.9
			c2.6,9.8,12.2,22.5,8.6,33.7C801.2,135.8,798.2,139.9,792.6,142.8z"/>
		<path d="M693.6,185.4c-0.9,9.9,4.3,22.4,30,31.9c0.9,0.3,1.8,0.6,2.6,0.9c-3.2,4.2-10,9.3-22.1,3.8c-11.3-5.1-11.8-28.2-11.7-35.9
			C692.9,185.9,693.2,185.6,693.6,185.4z"/>
		<path d="M759.5,224.9c2.8-4.8,6.8-9.5,11.5-12.7c10.9-7.5,22.8-8.2,30-7.7c-0.9,10-3.1,20.6-8.2,26.9
			c-9.3,11.5-20.9,20.1-32.5,14.1C753.9,242.2,754.7,233.2,759.5,224.9z"/>
		<path d="M731.2,60.8c-14.2,5.1-19.6,16.8-26.8,24.5c-3.4-6.5-7.2-17.7,0.3-27.1C712.9,48,725.1,55.8,731.2,60.8z"/>
		<path d="M777.5,66c6.7-5.4,16-3.6,20.4-0.9c5.6,3.4,5.7,13,4.8,20c-0.6,4.6-3.2,10.3-8.6,12.7c-2.3,1-5,1.4-8.3,0.9
			c-5-0.8-21.4-9-13-26.5C774,69.4,775.7,67.4,777.5,66z"/>
		<path d="M692.5,186.2c-4.7,3.1-10.6,4.9-15.2-1.1c-10.4-13.9,19.3-41.8,30.4-51.4c7.8,4.9,19.5,9.1,37.3,11.9
			c24.1,3.8,38.8,1.9,47.5-2.7c3,2.4,6.5,4.8,10.1,6.1c11.9,4.2,30.7,14.4,25.4,27.7c-3.2,8.1-16.1,10.7-26.7,9.8
			c-4.1-0.3-7.9-1.2-10.6-2.5c-9.6-4.5-18.9-14.1-52-19.2c-10-1.5-35,0-39.5,6.2c-1.8,2.5-5.2,7.9-5.8,14.4
			C693.2,185.6,692.9,185.9,692.5,186.2z"/>
	</g>
	<g>
	</g>
</g>
<g id="XMLID_4_">
	<g>
		<path class="st0" d="M1101.8,163.8c1.4,4.6,10.9,26,8.3,38.7c-0.4-0.3-0.8-0.6-1.2-0.8c-5.8-3.6-29.5,0.2-30.7,17.5
			c-0.2,2.3-0.1,4.4,0.2,6.2c-6,2.9-35.7,15.9-58.4,3.2c-19.9-11.1-23.8-28.3-24.4-40.8c7.1-8.4,22.4-21.6,49.2-24.7
			c25.5-2.9,45.5-1.5,56.6-0.1C1101.6,163.2,1101.7,163.5,1101.8,163.8z"/>
		<path class="st0" d="M1098.1,114.1c0,0.6-0.1,1.2-0.3,1.8c-3.9,14.9-23.3,20.9-48.6,27.1c-33.8,8.3-57.7-0.6-58.2-11.7
			c-0.1-1.6-0.1-2.9,0-3.9c0.5-7,3.7-4.7,6-19.4c0.2-1,0.3-2,0.6-3.1c1.9-8.6,5.8-16.6,10.8-22.9c4.1-5.2,8.9-9.2,13.7-11.1
			c12-4.9,24.6-4.4,31-3.7c-2.6,5.9-0.4,14.2,3.1,18.2c6.8,7.9,15.4,5.6,19.9,1.8c1.3,1.8,2.7,3.6,3.8,5
			C1082.4,95.4,1098.5,104.5,1098.1,114.1z"/>
		<path d="M1110.1,202.4c6.7,5.2,8,15.2,6.3,27.8c-1.7,12.8-13,15.1-19.9,13c-6.3-1.9-16.3-5.6-18.1-17.9c-0.3-1.9-0.4-3.9-0.2-6.2
			c1.1-17.3,24.9-21.1,30.7-17.5C1109.4,201.9,1109.8,202.2,1110.1,202.4z"/>
		<path d="M1008.5,82.1c-4.9,6.2-8.9,14.3-10.8,22.9c-9.9-7.6-8-16.1-4.7-20.3C995.6,81.5,1002.9,81.5,1008.5,82.1z"/>
		<path d="M1076.2,87.2c-4.5,3.8-13.1,6.2-19.9-1.8c-3.4-4-5.7-12.3-3.1-18.2c0.8-1.8,2.1-3.4,4-4.6c7.9-4.9,15.8-1.7,20.7,4.3
			c4.9,6,4.9,12.1,0.2,18.3C1077.6,85.9,1076.9,86.6,1076.2,87.2z"/>
		<path d="M1117.2,109.9c10.9,8.9,2.5,20.5-7,34.4c-8.9,13.1-9.9,14.4-8.7,18.6c-11.1-1.4-31.1-2.8-56.6,0.1
			c-26.9,3-42.1,16.3-49.2,24.7c-0.4-8,0.6-14.2-0.5-15.6c-2.6-3.8-16-10-18.8-23.7c-2.1-10.4,0.3-19.5,6.4-22.2
			c3.1-1.4,6-0.2,8.3,1.3c-0.1,1.1-0.1,2.3,0,3.9c0.5,11.1,24.4,20,58.2,11.7c25.2-6.2,44.6-12.2,48.6-27.1c0.2-0.6,0.3-1.2,0.3-1.8
			C1103.5,110.6,1112.3,106,1117.2,109.9z"/>
	</g>
	<g>
	</g>
</g>
<g id="XMLID_5_">
	<g>
		<path class="st1" d="M1379.8,97.5c3.2-1.7,4.2,5.7,3.1,7.6c-1.1,2-4.8,5.4-7.1,3.4C1373.6,106.6,1377,99,1379.8,97.5z"/>
		<path class="st0" d="M1405.8,166.6c0.8,1.8,1.3,3.7,1.4,5.5c0.4,5.2-0.1,21.8-9.7,35c-6,8.2-15.5,15.1-30.7,17.3
			c-43.5,6.1-56.2-9.4-59.9-16.7c-4.4-8.8-5.1-18.2-5.2-26c5.5-5,20.5-17.9,31-20.7c30.9-8.1,51.6-4.1,63.8-10.4c0,0.1,0,0.2,0,0.3
			C1396.5,152.9,1402.8,159.7,1405.8,166.6z"/>
		<path class="st0" d="M1378.4,90.8c-0.6-1.4-5.2,1.2-4,2.8c0.6,0.8,2.4,1.4,3.5,0.8C1379.1,93.8,1379,92.2,1378.4,90.8z
			 M1363.4,84.8c2.8,1.7,10.5,0.8,16.4,3.5c8.6,4,9.8,20.6,6.9,30c-0.1,0.4-0.3,0.8-0.4,1.2c-5,13.6-21.6,19.9-43.5,28.2
			c-12.2,4.6-39.2,13-48.6,5.9c-7.2-5.5-4.3-14.2-3.8-19.2c0-0.3,0.1-0.6,0.1-0.8c0.2-3.1-1.9-6.6-3-11.1c-0.6-2.5-0.9-5.2-0.4-8.5
			c1.2-7.8,3.5-12.5,6.8-16.4c3-3.6,6.9-6.5,11.6-10.6c6.7-5.8,13.3-7.5,16.8-8c-0.4,1.8-0.4,3.5,0.1,4.6c1.6,3.4,8.8,4,17.2,2.5
			c6.4-1.1,9.8-4.8,11.5-8.5C1355.2,79.2,1361.1,83.4,1363.4,84.8z M1382.9,105.2c1.1-2,0.1-9.3-3.1-7.6c-2.8,1.5-6.2,9-3.9,11
			C1378.1,110.5,1381.8,107.1,1382.9,105.2z M1354.2,102.6c6.2,1.4,9.7-3.4,8.5-8.5c-1-4.1-12.3-8.9-14.7-6.8
			C1342.6,92.1,1348,101.2,1354.2,102.6z"/>
		<path d="M1422.2,164.4c7.3,3.7,6.3,10.1,3.4,18.4c-3.4,9.6-14.5,23.2-28.1,24.2c9.6-13.2,10.1-29.8,9.7-35
			c-0.1-1.8-0.7-3.6-1.4-5.5C1410,164.6,1417.2,161.9,1422.2,164.4z"/>
		<path d="M1378.4,90.8c0.6,1.4,0.7,3.1-0.5,3.7c-1.1,0.6-2.9-0.1-3.5-0.8C1373.3,92,1377.8,89.3,1378.4,90.8z"/>
		<path d="M1294,97.6c-3.3,3.9-5.6,8.7-6.8,16.4c-0.5,3.2-0.2,6,0.4,8.5c-11.5-5-12.8-16.9-7.2-23.6
			C1284.4,94.3,1290.2,95.9,1294,97.6z"/>
		<path d="M1351.2,77.7L1351.2,77.7c-1.7,3.7-5.1,7.3-11.5,8.5c-8.5,1.5-15.7,0.9-17.2-2.5c-0.5-1.1-0.5-2.7-0.1-4.6
			c1.4-6.1,7.4-14.8,16-16.2c12.4-2.1,14.3,5.7,14.3,8.3C1352.7,72.8,1352.3,75.2,1351.2,77.7z"/>
		<path d="M1362.7,94.1c1.2,5.1-2.3,9.9-8.5,8.5c-6.2-1.4-11.7-10.5-6.2-15.2C1350.4,85.3,1361.7,90,1362.7,94.1z"/>
		<path d="M1405.4,109c8.2,2.3,8.5,12.9,4.5,21.6c-6.5,14.5-12.9,17.5-13.4,19.9c-12.1,6.3-32.8,2.2-63.8,10.4
			c-10.5,2.8-25.4,15.6-31,20.7c-0.1-7,0.3-12.7-1-15.5c-2.4-5.1-19.8-15.8-10.2-31.6c-0.6,5-3.5,13.8,3.8,19.2
			c9.3,7.1,36.4-1.3,48.6-5.9c21.9-8.3,38.5-14.7,43.5-28.2c0.1-0.4,0.3-0.8,0.4-1.2C1391.2,114.2,1399.7,107.4,1405.4,109z"/>
	</g>
	<g>
	</g>
</g>
<g id="XMLID_6_">
	<g>
		<path class="st1" d="M1621.4,189.7c2.1,2.3,2.4,5.1,0.7,6.6c-1.4,1.2-7.6,1.1-9.7-1.4c-1.8-2.2-2.8-7.1-0.8-8.8
			C1613.7,184.3,1619.1,187.2,1621.4,189.7z"/>
		<path class="st0" d="M1623.9,156.1c9-3.3,20.8-6.2,33.2-5.2c3,0.2,6,0.7,9,1.4c-0.2,1-0.3,1.9-0.4,2.9
			c-0.6,9.5,9.1,15.2,13.3,17.2c-9.1,5.1-17.6,14.6-21,18.7c-5.8-3.1-13.7-5.9-24.2-7.7c-8.4-1.5-15-2.3-20.2-2.6
			c0.1-3.9,0.1-12.7-3-18.8C1613.6,160.4,1618.2,158.2,1623.9,156.1z"/>
		<path class="st0" d="M1582.6,210.2c-0.9,5.7,1.7,8.2,5.1,8.8c2.5,0.4,5.1-4.2,5.7-7.9c0.6-3.7-2-8.6-5.1-9
			C1584.5,201.4,1583.2,205.9,1582.6,210.2z M1613.7,180.8c5.2,0.3,11.8,1.1,20.2,2.6c10.5,1.8,18.3,4.5,24.2,7.7
			c14.2,7.6,16.6,17.9,15.9,24.2c-0.1,0.7-0.2,1.4-0.3,2.1c-1.2,6.5-4.9,10.8-7.2,12.9c-0.6-2.3-2-4.4-4.6-5.7
			c-7.1-3.7-20,4.3-20.9,10.4c-0.4,2.8-0.3,5,0.7,6.8c-6.2,1.1-22.5,2.9-44.4-1.7c-3.9-0.8-7-1.9-9.6-3.1
			c-10.8-5.3-11.1-13.7-9.9-19.4c0.6-2.9,1.7-5,2-5.7c0.1-0.1,0.1-0.2,0.1-0.3c3.6-7.6,4.4-16.7,9.2-22
			C1594,184,1597.3,179.9,1613.7,180.8z M1621.4,189.7c-2.3-2.5-7.7-5.4-9.9-3.5c-2,1.7-1,6.6,0.8,8.8c2.1,2.5,8.4,2.6,9.7,1.4
			C1623.8,194.8,1623.5,192,1621.4,189.7z M1640.7,213.9c0.9-4.2-1.1-8.8-9-9.6c-7.9-0.8-16.4,11-13.8,18.1
			c0.9,2.6,7.3,4.6,13.3,2.8C1637.9,223.2,1639.9,218.1,1640.7,213.9z M1608.8,196.9c1-1-0.4-3.2-1.7-3.9c-1-0.6-3.7,0.3-3.9,1.5
			C1602.9,195.8,1607.5,198.2,1608.8,196.9z"/>
		<path d="M1587.6,237c-2.3,1.5-6,3.1-11,2.3c-11.5-1.9-11.6-12.2-7.6-17.2c2.5-3.2,6.2-4.2,8.7-4.5
			C1576.5,223.2,1576.9,231.7,1587.6,237z"/>
		<path d="M1588.2,202c3.1,0.5,5.6,5.4,5.1,9c-0.6,3.7-3.1,8.3-5.7,7.9c-3.4-0.6-5.9-3.1-5.1-8.8
			C1583.2,205.9,1584.5,201.4,1588.2,202z"/>
		<path d="M1666.5,230.3c0.9,3,0.4,6.3-0.3,8.1c-2,4.8-9.6,9.3-17.8,7.3c-3.6-0.9-5.6-2.2-6.7-4c-1-1.8-1.1-4-0.7-6.8
			c0.9-6.2,13.8-14.1,20.9-10.4C1664.4,225.9,1665.8,228,1666.5,230.3z"/>
		<path d="M1631.7,204.2c7.9,0.9,9.9,5.4,9,9.6c-0.8,4.2-2.8,9.3-9.6,11.3c-6,1.8-12.3-0.2-13.3-2.8
			C1615.3,215.3,1623.8,203.4,1631.7,204.2z"/>
		<path d="M1607.1,193c1.3,0.7,2.7,2.9,1.7,3.9c-1.3,1.3-5.9-1.1-5.7-2.4C1603.4,193.2,1606.1,192.4,1607.1,193z"/>
		<path d="M1610.7,162c3.1,6.1,3.2,14.9,3,18.8c-16.4-0.9-19.7,3.2-24.7,8.8c-4.7,5.3-5.6,14.4-9.2,22c-5-36.5,4.4-54.7,20.5-55.9
			C1605.5,155.3,1608.7,158.1,1610.7,162z"/>
		<path d="M1655.7,127.2c3.5,3.6,3.3,15.8,1.5,23.7c-12.4-0.9-24.2,1.9-33.2,5.2c0.1-4.8,1.2-14,8-20.4
			C1641.6,126.6,1652.5,124,1655.7,127.2z"/>
		<path d="M1695,170c9.5,4.1,5.6,19.1,1.9,27.5c-2.7,6.1-10.6,18.6-23.2,19.9c0.1-0.7,0.2-1.4,0.3-2.1c0.6-6.4-1.8-16.6-15.9-24.2
			c3.4-4.1,11.9-13.6,21-18.7c4.5-2.5,9.2-4,13.5-3.1C1693.5,169.4,1694.3,169.6,1695,170z"/>
		<path d="M1666.2,152.2c2.5-13,16-24.9,27.3-22.8c12.1,2.3,12.6,14,11.9,22.9c-0.7,8.9-5.3,14.3-10.4,17.7
			c-0.7-0.3-1.5-0.6-2.3-0.7c-4.3-0.9-9,0.6-13.5,3.1c-4.2-2-13.9-7.7-13.3-17.2C1665.9,154.1,1666,153.2,1666.2,152.2z"/>
	</g>
	<g>
	</g>
</g>
<g id="XMLID_7_">
	<g>
		<path class="st1" d="M1917.1,187.8c4.3,1.8,7.2,6.4,6.7,8.8c-0.7,2.7-5.2,3.3-7.6,2.4c-2.4-0.8-7.3-3.6-7.1-7.7
			C1909.3,188.2,1912.8,186,1917.1,187.8z"/>
		<path class="st0" d="M1903.1,170.8c4.6-5.4,12.5-12.3,23.8-13.9c1.7,2.6,3.6,4.8,5,6.5c-1.4,0.4-2.5,0.8-3.2,1.3
			c-4.1,3.1-7,9.7-3.7,18.8c-4.1-0.8-11.6-1.9-18.6-1.3c-1.5-1.9-3.7-4.6-6.3-7.6C1900.9,173.5,1901.9,172.2,1903.1,170.8z"/>
		<path class="st0" d="M1886.1,202.3c-1.7,1.2-4.9,6-4,10.7c0.9,4.9,5.8,4.3,7.8,2.9c2-1.4,3.8-5.4,3.8-10
			S1889.8,199.6,1886.1,202.3z M1906.4,182.2c7-0.6,14.5,0.5,18.6,1.3c1,2.7,2.4,5.5,4.5,8.6c13,19,39.8,24.3,45.7,17.2
			c0.8-0.9,1.2-2.1,1.4-3.4c2-0.4,3.6-1.6,4.8-3.3c0.4,8.4-2.5,18.5-4.5,22.8c-1.7,3.7-4.4,6.5-6.5,8.3c-1.6-2.3-4.1-4.5-7.1-5.5
			c-5.9-2-17.2,4.8-18.1,7.9c-0.8,2.6-0.6,5.1,0.9,7.1c-7.2,1.1-21,2.3-36.8,0.2c-11.2-1.5-19.6-4.2-25.5-7.5
			c-6.3-3.6-9.7-7.9-10.6-12.2c-0.3-1.5-0.3-2.9-0.2-4.2c0.6-5.7,4.4-10.3,6.9-13.1c0.3-0.4,0.7-0.8,0.9-1.1
			c3.7-4.2,5.1-15.5,16.1-20.9C1899.8,183.2,1903.1,182.5,1906.4,182.2z M1938.6,218.9c2-2.5,2.5-8.2-1.4-10.2
			c-5.3-2.7-16.8,1.4-19.2,7.1c-1.4,3.4-0.3,7.9,3.7,9C1930.3,227.3,1936.6,221.5,1938.6,218.9z M1923.8,196.5
			c0.6-2.3-2.3-7-6.7-8.8c-4.3-1.8-7.8,0.5-8,3.5c-0.3,4.1,4.6,6.9,7.1,7.7C1918.6,199.8,1923.2,199.3,1923.8,196.5z M1908.9,202
			c0.8-0.4,0.2-3.1-0.8-3.8c-0.9-0.7-4-0.1-4.1,1C1903.8,201.1,1907.8,202.6,1908.9,202z"/>
		<path d="M1908.2,198.2c0.9,0.7,1.5,3.3,0.8,3.8c-1.1,0.6-5.2-0.9-4.9-2.7C1904.2,198.1,1907.2,197.6,1908.2,198.2z"/>
		<path d="M1873.4,223.7c0.9,4.4,4.3,8.7,10.6,12.2c-3.7,1.3-10,3.1-14.5,1.6c-7.5-2.5-6.5-9.9-2.5-14.4c1.5-1.7,4.2-2.9,6.3-3.6
			C1873,220.9,1873.1,222.3,1873.4,223.7z"/>
		<path d="M1970.5,233.8c1.6,2.3,2.4,4.8,1.9,6.4c-1.4,4.8-10.4,9.3-18.6,7.3c-3.8-0.9-6.2-2.4-7.5-4.2c-1.5-2.1-1.7-4.6-0.9-7.1
			c0.9-3.1,12.1-9.9,18.1-7.9C1966.4,229.2,1968.9,231.4,1970.5,233.8z"/>
		<path d="M1981.5,202.6c-1.2,1.8-2.8,2.9-4.8,3.3c1.5-9-8.3-26.5-16.4-35.3c-7.7-8.4-21.7-9-28.4-7.2c-1.5-1.7-3.3-4-5-6.5
			c-3.2-4.8-6.2-10.7-6.2-16.1v0c0-1.5,0.2-2.9,0.7-4.3c4.5-12.4,23.2-7.1,31.1-1.1c13.3,10.2,30.8,42.4,31.6,53.1
			C1984.5,194.2,1983.7,199.4,1981.5,202.6z"/>
		<path d="M1976.8,206c-0.2,1.3-0.7,2.5-1.4,3.4c-5.9,7.1-32.7,1.8-45.7-17.2c-2.1-3.1-3.6-5.9-4.5-8.6c-3.3-9.1-0.5-15.8,3.7-18.8
			c0.7-0.5,1.8-0.9,3.2-1.3c6.8-1.7,20.7-1.2,28.4,7.2C1968.4,179.5,1978.3,197,1976.8,206z"/>
		<path d="M1920.6,140.8c0,5.4,3,11.3,6.2,16.1c-11.3,1.6-19.2,8.5-23.8,13.9c-4.4-5-13.2-16.2-14.2-25.2
			c-0.8-6.7,1.1-16.4,10.7-16.4C1905.8,129.1,1914.9,135.9,1920.6,140.8L1920.6,140.8z"/>
		<path d="M1900.2,174.6c2.6,2.9,4.8,5.7,6.3,7.6c-3.4,0.3-6.6,1-9.3,2.3c-11,5.4-12.4,16.7-16.1,20.9c-0.3,0.3-0.6,0.7-0.9,1.1
			c-3.6-3.6-13.9-14.3-14.9-22.2c-1-8.6,0.4-22.1,11.6-24.9C1883.4,157.7,1893.2,166.8,1900.2,174.6z"/>
		<path d="M1893.7,205.9c0,4.5-1.8,8.6-3.8,10c-2,1.4-6.9,2-7.8-2.9c-0.9-4.7,2.2-9.5,4-10.7
			C1889.8,199.6,1893.7,201.4,1893.7,205.9z"/>
		<path d="M1937.2,208.8c4,2,3.4,7.6,1.4,10.2c-2,2.5-8.3,8.4-16.9,5.9c-4-1.1-5.1-5.6-3.7-9
			C1920.4,210.1,1931.9,206.1,1937.2,208.8z"/>
	</g>
	<g>
	</g>
</g>
<g id="XMLID_8_">
	<g>
		<path class="st1" d="M2220.1,178.3c2.1-0.2,4.7,1.7,4.5,3c-0.3,2.1-7.9,5.2-10.4,1.9C2213.1,181.6,2216.9,178.6,2220.1,178.3z"/>
		<path class="st0" d="M2285.9,162.2c5.7,2.5,10.7,5.7,14.3,8.9c-2.4,0.2-4.2,0.9-5,2c-3.4,4.7-2.1,23.4,4.5,28.8
			c1.2,0.9,2.7,1.4,4.4,1.6c-4.4,6.7-11.5,11.4-15.5,13.7c0.2-6.3-0.7-12.7-3.2-18.3c-3-6.7-23.8-29.4-64-29.5
			c7.7-5.5,20.3-12.4,35.1-13c0.2,0,0.5,0,0.7,0C2267.4,156,2277.5,158.4,2285.9,162.2z"/>
		<path class="st0" d="M2215.6,173.8c2.7,0.1,5.7,0.4,9,0.7c21.4,2.3,35.7,14.3,42.5,21.6c-1.2,10.8-7.3,24.1-8.3,29.6
			c-0.2,0.9-0.3,1.9-0.5,3.1c-3,1.7-6.9,2.9-9.8,3.7c0-0.6-0.1-1.1-0.2-1.6c-2.3-8.9-23.5-6.4-26.2-0.9c-0.8,1.6-1.1,4.3-0.6,7.1v0
			c-6,0.1-16.2-0.2-25.4-3.7c-3.2-1.2-5.7-3.1-7.5-5.3c-5.9-7.1-5.7-17.9-5.8-24.7c0-1.3,0-2.4-0.1-3.4c-0.3-3.7-1.2-12.5,2.2-17.6
			c0.4-0.6,0.9-1.2,1.5-1.8C2190,177.6,2194.6,172.7,2215.6,173.8z M2214.6,186c-1.3-0.2-4.1,0.7-4.1,1.9c0,1.7,5.3,2.1,6.1,1.1
			C2217.3,188.1,2216,186.2,2214.6,186z M2214.3,183.2c2.4,3.3,10.1,0.2,10.4-1.9c0.2-1.3-2.4-3.2-4.5-3
			C2216.9,178.6,2213.1,181.6,2214.3,183.2z M2246.5,202.6c0.9-2,1.9-7.8-6.4-8.6c-7.6-0.7-13.4,5.7-13,10.7
			c0.4,4.9,3.8,6.2,7.8,6.1C2240.4,210.6,2245.4,205.1,2246.5,202.6z M2199.9,199.3c3.7-2.7,4.9-7.5,4.4-10.1
			c-0.6-3-5.1-5.1-8.1-3.2c-3,1.9-4.2,7.9-2.5,11.6C2195,200.4,2197.5,201.1,2199.9,199.3z"/>
		<path d="M2248.6,232.4c0,5.3-5.9,10.5-7.9,11.7c-2.3,1.3-10.9,3.6-15.2,0c-2.2-1.8-3.3-4.5-3.8-7.2v0c-0.5-2.7-0.2-5.4,0.6-7.1
			c2.6-5.5,23.9-8,26.2,0.9C2248.5,231.4,2248.6,231.9,2248.6,232.4z"/>
		<path d="M2174.3,210.6c3-3.2,6.5-5.8,8.6-7.3c0.1,6.8-0.1,17.6,5.8,24.7c-3.2,0.9-9.1,1.9-14,0.4c-5.4-1.7-6.3-9-4.3-12.6
			C2171.4,213.9,2172.8,212.2,2174.3,210.6z"/>
		<path d="M2158,193.3c5.9-5.7,15.9-11.4,27.1-11.1c-3.5,5.1-2.5,13.9-2.2,17.6c0.1,0.9,0.1,2.1,0.1,3.4c-2.1,1.5-5.6,4.1-8.6,7.3
			c-3.4,0.6-9.1,1.2-13.5-0.1C2156.1,209,2151,200.1,2158,193.3z"/>
		<path d="M2204.3,189.2c0.6,2.6-0.7,7.4-4.4,10.1c-2.4,1.8-4.9,1.1-6.2-1.7c-1.7-3.7-0.5-9.7,2.5-11.6
			C2199.2,184.1,2203.6,186.2,2204.3,189.2z"/>
		<path d="M2214.6,186c1.3,0.2,2.7,2.1,1.9,3c-0.8,0.9-6.1,0.6-6.1-1.1C2210.5,186.7,2213.3,185.8,2214.6,186z"/>
		<path d="M2240.1,193.9c8.2,0.8,7.2,6.6,6.4,8.6c-1.1,2.6-6.1,8-11.6,8.2c-3.9,0.1-7.4-1.2-7.8-6.1
			C2226.8,199.6,2232.5,193.2,2240.1,193.9z"/>
		<path d="M2275.2,151.6c7.9,1.7,9.6,5.3,10.7,10.6c-8.4-3.7-18.5-6.2-28.8-5.9C2260.5,153.9,2267.7,149.9,2275.2,151.6z"/>
		<path d="M2288.6,217.1c-0.1,5.5-1,10.8-2.3,15.3c-2.6,9.8-8.3,14.3-17.5,13.2c-11-1.3-11.3-10.4-10.5-16.9
			c0.1-1.1,0.3-2.2,0.5-3.1c1-5.5,7.1-18.8,8.3-29.6c-6.8-7.3-21.1-19.3-42.5-21.6c-3.3-0.4-6.3-0.6-9-0.7c1.4-1.2,3.3-2.8,5.8-4.5
			c40.3,0.2,61.1,22.9,64,29.5C2287.9,204.4,2288.8,210.9,2288.6,217.1z"/>
		<path d="M2300.2,171c7.1-0.8,19.2,2,23.3,7.6c4.5,6.2,1.7,14.5-2.3,18.6c-2.8,3-11.1,6.7-17.1,6.1c-1.7-0.2-3.2-0.7-4.4-1.6
			c-6.6-5.4-7.9-24.1-4.5-28.8C2296,171.9,2297.8,171.3,2300.2,171z"/>
	</g>
	<g>
	</g>
</g>
<g id="XMLID_9_">
	<g>
		<path class="st0" d="M2603.1,205.4c-7,10.1-21.3,19.6-36.1,21c22.4-12,32.1-30.8,32.2-41.4c0.1-7.4-7.3-13.7-16.2-14.1
			c-6.5-0.3-14.4,5-18.2,7.9c-2.7-7.4-9-4.3-12.1-14.4c1.3-2.7,1.8-5.6,2-6.8c0,0,0,0,0,0c1.7,0,4,0.1,6.8,0.3
			c5.8,0.5,13.4,1.8,20.6,4.8c3.1,1.3,6.2,2.8,9,4.5c4.4,2.6,8.2,5.8,11.2,9.6c3.9,5.1,6.1,11.2,5,18.5
			C2607,198.5,2605.5,202,2603.1,205.4z"/>
		<path class="st0" d="M2564.9,178.8c0.5,1.3,0.8,2.9,1,4.9c1.3,13-7.8,26.1-28.8,33.3c-23,7.9-45.2-2.1-50.3-9.8
			c-4.1-6.2-5.9-12.5-5.6-20.4c0.6-3.2,1.2-5.8,1.5-7.1c-0.2-0.3-0.4-0.7-0.5-1.1c0.2-1.3,0.5-2.6,0.8-3.9
			c3.2-13.3,12.3-20.3,22.6-24c1.7-0.6,3.5-1.1,5.2-1.6c7.6-1.9,16.4-1.7,21.8-1.3c-3,1.8-4.9,3.9-4.9,5.2
			c0.4,8.1,6.8,16.2,15.6,17.1c4.9,0.5,7.7-2.5,9.3-5.8C2555.9,174.5,2562.2,171.4,2564.9,178.8z"/>
		<path d="M2496.2,146.3c4.5,0.4,7.7,2.7,9.4,4.4c-10.3,3.7-19.4,10.7-22.6,24c-0.3,1.4-0.6,2.7-0.8,3.9c-2-4.4-4.8-12.4-3.1-21.2
			C2480.8,148.5,2489.7,145.7,2496.2,146.3z"/>
		<path d="M2580.4,151.6c13.6,0.2,13.9,5.3,13.6,8.8c-0.3,3.3-1.5,5.5-2.6,6.8c-2.9-1.8-5.9-3.2-9-4.5c-7.3-3-14.9-4.2-20.6-4.8
			C2564,155.8,2570.2,151.4,2580.4,151.6z"/>
		<path d="M2627.2,178.8c8.6,6.2,7.9,16.2,0.4,21.5c-7,4.9-15.6,6.2-24.5,5.1c2.4-3.4,3.9-6.9,4.4-10.2c1-7.2-1.1-13.4-5-18.5
			C2607.3,175.6,2619.6,173.4,2627.2,178.8z"/>
		<path d="M2567,226.5c-1.4,0.8-2.9,1.5-4.5,2.2c-22,10.2-51.9,12.6-72.1-2.8c-12.1-9.3-11-28.2-9.2-39c-0.3,7.9,1.5,14.2,5.6,20.4
			c5.1,7.6,27.3,17.7,50.3,9.8c21-7.2,30.1-20.3,28.8-33.3c-0.2-2-0.6-3.7-1-4.9c3.8-2.8,11.7-8.1,18.2-7.9
			c8.8,0.4,16.3,6.7,16.2,14.1C2599,195.7,2589.4,214.4,2567,226.5z"/>
		<path d="M2554.8,157.6C2554.8,157.6,2554.8,157.6,2554.8,157.6c-0.2,1.2-0.7,4.1-2,6.8c-1.6,3.3-4.4,6.3-9.3,5.8
			c-8.9-0.9-15.2-9-15.6-17.1c-0.1-1.4,1.9-3.5,4.9-5.2c4-2.4,9.9-4.1,15.4-2.8C2553.8,146.3,2555.4,153.2,2554.8,157.6z"/>
	</g>
	<g>
	</g>
</g>
<g id="XMLID_10_">
	<g>
		<path class="st0" d="M2897.6,181c3,5,4.5,11,2.4,17.6c-2.9,9-8.5,15.7-16.4,19.4c-1.8,0.9-3.7,1.5-5.7,2c1.2-4.4-0.2-11.2-9.5-13
			c-11.6-2.3-15.2-10.2-14.4-21.1c6.7-3.7,10.3-8.1,11.3-11.7c1.5-5.1-0.1-8.9-2.1-12.2c6.3,1.3,18.2,4.1,23.8,8
			C2890.8,172.6,2894.9,176.4,2897.6,181z"/>
		<path class="st0" d="M2861.8,167.4c0.8-0.1,2.4-1.4,1.9-2.5c-0.8-1.5-4.4,0.1-4.4,1.1C2859.2,166.6,2861,167.4,2861.8,167.4z
			 M2863.2,162.1c1.9,3.3,3.6,7,2.1,12.2c-1.1,3.6-4.7,8-11.3,11.7c-6.8,3.7-16.8,6.7-30.5,7.2c-19,0.8-33.7-2.1-43.3-5.3
			c-1.9-8.5-1.7-18.7-0.1-28.3c0.1-0.8,0.2-1.5,0.4-2.2c1.7-9.2,8.1-17.4,15-23c4.4-3.5,9-5.9,12.9-6.9c5.9-1.5,12.9-1.3,17.7-0.9
			c-0.1,0-0.1,0.1-0.2,0.1c-4.5,3.1-10.4,11.4-7.3,17.5c6.8,13.6,26.1,3.4,27.9-1.7c0.7-2.1,0.8-4.2,0.3-6.2c1.9,1.3,4.3,3.4,6.2,6
			c2.8,3.9,5.6,10.7,6.5,13.6C2860.3,157.8,2861.8,159.8,2863.2,162.1z M2854.3,161.9c0.7-3.3-1.4-9.9-5.9-9.9
			c-4.5,0-6.4,9.9-4.5,12.3C2848.1,169.7,2853.6,165,2854.3,161.9z"/>
		<path d="M2863.7,164.8c0.6,1.1-1.1,2.4-1.9,2.5c-0.8,0.1-2.5-0.8-2.5-1.4C2859.2,165,2862.9,163.3,2863.7,164.8z"/>
		<path d="M2918.9,193.8c4.8,5.7,5.7,20-11.9,24c-9.9,2.2-18.6,1.2-23.5,0.2c7.9-3.7,13.6-10.5,16.4-19.4c2.1-6.5,0.6-12.6-2.4-17.6
			C2903.3,183.1,2913.6,187.5,2918.9,193.8z"/>
		<path d="M2877.9,220.1c-0.3,1.1-0.8,2.1-1.3,2.8c-5.4,7.1-24.3,9-46,5.1c-22.3-4.1-37.3-15.2-46-29.1c-2-3.1-3.4-6.9-4.3-10.9
			c9.6,3.2,24.3,6.1,43.3,5.3c13.7-0.5,23.7-3.5,30.5-7.2c-0.8,10.9,2.8,18.8,14.4,21.1C2877.6,208.9,2879,215.6,2877.9,220.1z"/>
		<path d="M2783.1,125.5c5.5,0.2,10,5.3,12.5,8.9c-7,5.6-13.3,13.8-15,23c-0.1,0.7-0.3,1.5-0.4,2.2c-3.8-2.2-9.4-6.9-10.6-15.8
			C2767.6,130,2774.6,125.2,2783.1,125.5z"/>
		<path d="M2846.9,136.2L2846.9,136.2c0.5,2.1,0.4,4.2-0.3,6.3c-1.8,5.1-21.2,15.2-27.9,1.7c-3.1-6.1,2.8-14.4,7.3-17.5
			c0.1,0,0.1-0.1,0.2-0.1c4.6-3,12.9-2.7,16.5,1.8C2844.8,130.9,2846.3,133.5,2846.9,136.2z"/>
		<path d="M2848.3,152c4.5,0,6.6,6.6,5.9,9.9c-0.6,3.1-6.1,7.8-10.4,2.5C2841.9,162,2843.8,152,2848.3,152z"/>
	</g>
	<g>
	</g>
</g>
<g id="XMLID_11_">
	<g>
		<path class="st0" d="M3185.9,222.8c-3.2,2.8-7.9,5.6-15.1,7.6c-18.3,5.2-60.6,3.9-74.9-9c-5.7-5.2-8.4-12.8-9.2-20.8
			c4.7-4.8,12.6-9.9,25.2-10.4c31.5-1.3,55.6,15.8,62.7,21.2c4.8,3.7,11.8,4.8,16.8,3.9C3190.8,217.1,3189.2,219.9,3185.9,222.8z"/>
		<path class="st0" d="M3152.9,129.5c8.1,0.7,12.9,2.5,15.2,3.7c-1.5,1-2.4,2.4-2.5,3.9c-0.3,3.7,4.3,9.6,12,11.9
			c2.1,0.6,3.8,0.7,5.4,0.4c1.5,2.1,3.3,5,4.2,7.8c1.1,3.5-0.3,11.8,0.8,14c1.1,2.2,2.4,9.9-2.3,14.5c-11.4-7.4-31.6-14.9-49.4-18.7
			c-14-3-32.3-1.9-44.2-0.7c0.8-1.8,1.5-3.3,2.1-4.2c5.7-8,15.8-22.3,29-29c3.8-1.9,7.9-3.3,12.2-3.6
			C3142.5,129,3148.3,129.1,3152.9,129.5z M3163.2,168.1c0.9,7.2,6.6,5.7,7.9,5.1c2.4-1.1,5-6.2,4.9-8.8c-0.2-3.8-0.2-7.3-4.5-7.2
			C3166.6,157.4,3162.8,165.1,3163.2,168.1z"/>
		<path d="M3152.9,129.5c-4.6-0.4-10.4-0.5-17.4,0c-4.3,0.3-8.4,1.6-12.2,3.6c2.2-5.4,8.1-16.5,18.2-16.1
			C3150.3,117.4,3152.5,124.7,3152.9,129.5z"/>
		<path d="M3182.9,149.3c-1.5,0.3-3.3,0.2-5.4-0.4c-7.6-2.3-12.2-8.2-12-11.9c0.1-1.5,1-2.9,2.5-3.9c2.1-1.5,5.4-2.2,9-1.5
			c5.9,1.1,13.5,4.7,12.9,9.7C3189.5,145.1,3187.1,148.6,3182.9,149.3z"/>
		<path d="M3176,164.4c0.1,2.7-2.4,7.7-4.9,8.8c-1.3,0.6-7,2.1-7.9-5.1c-0.4-3,3.4-10.7,8.3-10.9
			C3175.8,157,3175.8,160.6,3176,164.4z"/>
		<path d="M3210.6,209.5c6.2,6.2,1.9,14.7-3.4,17.5c-4,2.1-12.1,5.8-21.3-4.2c3.3-2.9,4.9-5.7,5.6-7.5c2.3-0.4,4.2-1.3,5.2-2.5
			c1.4-1.8,2.3-4.3,2.2-7.3C3202.5,205.4,3207.2,206.1,3210.6,209.5z"/>
		<path d="M3199,205.4c0.1,3.1-0.8,5.6-2.2,7.3c-1,1.3-2.9,2.1-5.2,2.5c-5,0.9-12-0.3-16.8-3.9c-7.1-5.4-31.1-22.5-62.7-21.2
			c-12.7,0.5-20.6,5.7-25.2,10.4c-1.3-12.8,2.2-26.9,5.3-34.3c11.9-1.2,30.2-2.3,44.2,0.7c17.8,3.8,38,11.3,49.4,18.7
			c3.1,2,5.5,4,7.1,5.9C3197.1,196.8,3198.8,201.6,3199,205.4z"/>
	</g>
	<g>
	</g>
</g>
<g id="XMLID_12_">
	<g>
		<path class="st0" d="M3476.6,199.4c-2.4,7.5-6.6,14.7-13.9,17.8c-4.9,2-10.3,2.9-16,2.8c-9.7-0.1-20-2.9-29.2-6.9
			c-9.6-4.2-18-9.7-23-14.7c-4.6-4.7-6.7-9.4-7.3-14.5c-0.6-5.1,0.3-10.5,1.6-16.4c0.7-3.2,2.7-7.9,5.2-13.1
			c9.5-0.9,22.6-1.4,33.5,1.1c27.1,6.2,41.9,20.9,51.6,30.5C3478.8,190,3478,194.8,3476.6,199.4z"/>
		<path class="st0" d="M3452.5,98.8c14.5,0.2,24.1,4.7,29.1,7.8c-1.7,0.8-2.9,2.1-2.9,3.9c0,4.8,4.7,10.4,8,13.4
			c1.3,1.2,2.9,2.1,4.5,2.4c0.1,2.5,0.5,5.9,1.9,8.1c2.3,3.6,5.1,15.8-1.2,24.6c-7.3-9.4-17.2-19.3-37.6-25.2
			c-16.3-4.7-36.9-3.1-46.6-1.9c-0.1-0.7-0.1-1.4-0.1-2.2c0-2.1,0.1-4.4,0.7-7c0.7-2.9,4.3-7,9.5-11c8.8-6.6,22-12.9,33.2-13
			C3451.6,98.8,3452.1,98.8,3452.5,98.8z"/>
		<path d="M3417.5,213.2c-2.5,5.1-6,11.4-9.1,14.2c-4,3.6-17,4.2-20.8-9.3c-2.9-10.4-1.3-26.9-0.4-34.2c0.6,5.1,2.7,9.8,7.3,14.5
			C3399.5,203.5,3407.9,209,3417.5,213.2z"/>
		<path d="M3476.6,199.4c4.2,9,9.2,21.7,6.4,26.9c-4.5,8.3-15.1,7.5-22.2,4.9c-5.2-1.9-10.5-6.7-14.1-11.1c5.7,0.1,11.1-0.8,16-2.8
			C3470,214.2,3474.2,206.9,3476.6,199.4z"/>
		<path d="M3448.1,91.4c3.6,0.8,4.4,4.5,4.5,7.4c-0.4,0-0.9,0-1.4,0c-11.2,0.1-24.4,6.4-33.2,13c1.2-6.8,4.4-10.8,8.6-14.8
			C3431.2,92.4,3441.4,89.9,3448.1,91.4z"/>
		<path d="M3491.2,126.3c-1.6-0.3-3.1-1.2-4.5-2.4c-3.4-3-8-8.6-8-13.4c0-1.8,1.2-3.1,2.9-3.9c2.6-1.2,6.5-1.3,9.4-0.2
			c4.9,1.8,9.5,6.8,6.6,14.8C3496.1,125.6,3493.6,126.8,3491.2,126.3z"/>
		<path d="M3492,159c0.7,0.9,1.3,1.7,1.9,2.6c7.5,10.2,6.6,22.4,3.4,26.4c-2.6,3.2-9,6.8-14.3,1.9c-1.2-1.1-2.4-2.3-3.8-3.7
			c-9.7-9.6-24.5-24.3-51.6-30.5c-10.9-2.5-24-2-33.5-1.1c3.8-7.8,8.8-16.6,12.2-22.4c0.5-0.1,1-0.1,1.5-0.2
			c9.7-1.2,30.2-2.8,46.6,1.9C3474.8,139.6,3484.7,149.5,3492,159z"/>
	</g>
	<g>
	</g>
</g>
<g id="XMLID_13_">
	<g>
		<path class="st0" d="M3760.9,94.6c1.4,2.9,3.8,7,7.6,9.1c6.5,3.7,13.1,4.5,16.7,9.6c2,2.9,2.9,15.2-2.9,21
			c-1.1,1.1-2.4,1.9-3.9,2.5c-12.6,4.3-42.9,4.5-53.4,6.8c-8.5,1.8-22.9,5.3-31.9,2c-2-0.7-3.8-1.8-5.2-3.3
			c-3.9-4.3-4.6-17.3-1.6-28.2c1.2-4.5,3-8.6,5.4-11.6c3.6-4.5,9-9.4,17.2-12.7c7-2.8,16-4.3,27.8-3.4c1.9,4,16.4,9.6,21.4,9.1
			C3759.2,95.4,3760.1,95.1,3760.9,94.6z M3769.9,111.4c0.9-4.4-8.1-11.1-10.7-10.3c-4,1.1-4.8,5.3-3.9,9c0.9,3.7,3.1,5.9,4.5,6.4
			C3762.4,117.3,3769.1,115.3,3769.9,111.4z"/>
		<path class="st0" d="M3722.6,215.4c-14.9-2.8-25.9-8.5-33.5-13.7c-2-10.3-2.5-20.6-1.9-25.8c0-0.3,0.1-0.6,0.1-0.9
			c9.3-4.6,27.8-12.8,46.2-14.3c23.4-2,37.1,1,45.5,2.8c2.1,5.7,5.8,19,0.3,31.3c-0.1-0.1-0.2-0.1-0.3-0.2
			c-7.9-4.2-19.9,1.4-22.6,10c-1.4,4.6-1.9,8.6-1.6,12C3742.5,217.9,3731.8,217.2,3722.6,215.4z"/>
		<path d="M3779.3,194.8c7.8,4.5,14,19.5,9.6,30.6c-2.7,6.7-11,11.7-19.9,8.9c-5.8-1.8-13.5-6.9-14.2-17.7c-0.2-3.4,0.2-7.4,1.6-12
			c2.7-8.6,14.7-14.3,22.6-10C3779.1,194.7,3779.2,194.8,3779.3,194.8z"/>
		<path d="M3722.6,215.4c-1.8,6.4-6.2,16.1-16.7,14.5c-8.8-1.3-14.1-14.7-16.7-28.2C3696.6,206.9,3707.7,212.6,3722.6,215.4z"/>
		<path d="M3695.1,85.9c5.2,0.8,10.3,2.5,13.8,3.9c-8.2,3.2-13.5,8.2-17.2,12.7c-2.4,3-4.2,7.1-5.4,11.6c-1.9-1.9-3.9-5.1-4.4-10.6
			C3680.6,90.7,3687.1,84.7,3695.1,85.9z"/>
		<path d="M3760.9,94.6c-0.8,0.5-1.7,0.8-2.8,1c-4.9,0.5-19.5-5.1-21.4-9.1c-0.2-0.3-0.2-0.6-0.2-0.9c0.3-3.7,5.9-9.9,11.4-11.3
			c3.9-1,13.6-1.4,15,6.2C3764,86.7,3764.1,92.4,3760.9,94.6z"/>
		<path d="M3759.2,101.1c2.7-0.8,11.7,5.9,10.7,10.3c-0.8,3.9-7.5,6-10.2,5.1c-1.4-0.5-3.7-2.7-4.5-6.4
			C3754.4,106.3,3755.2,102.2,3759.2,101.1z"/>
		<path d="M3779,163.6c-8.4-1.8-22.1-4.8-45.5-2.8c-18.4,1.6-36.9,9.7-46.2,14.3c1.1-8.2,4-21.6,5.8-29.5c9.1,3.3,23.4-0.2,31.9-2
			c10.4-2.3,40.8-2.5,53.4-6.8c1.6-0.5,2.8-1.4,3.9-2.5c7.4,2.6,18.5,7.6,20.1,15.9c1.6,7.9-6.6,14.1-15.5,14.5
			C3784.9,164.8,3782.4,164.3,3779,163.6z"/>
	</g>
	<g>
	</g>
</g>
</svg>
