<?xml version="1.0" encoding="utf-8"?>
<!-- Generator: Adobe Illustrator 25.2.3, SVG Export Plug-In . SVG Version: 6.00 Build 0)  -->
<svg version="1.1" xmlns="http://www.w3.org/2000/svg" xmlns:xlink="http://www.w3.org/1999/xlink" x="0px" y="0px" width="3900px"
	 height="300px" viewBox="0 0 3900 300" style="enable-background:new 0 0 3900 300;" xml:space="preserve">
<style type="text/css">
	.st0{display:none;}
	.st1{fill:#FFFFFF;}
	.st2{fill:#FCBBC3;}
</style>
<g id="Layer_1" class="st0">
	<image style="display:inline;overflow:visible;" width="3900" height="300" xlink:href="3side.png" >
	</image>
</g>
<g id="Layer_2">
	<g id="XMLID_3_">
		<g>
			<path class="st1" d="M209.2,186.5c-1.9,12.8-8.2,23.7-29.8,28.5c-3.9,0.9-8.4,1.6-13.4,2c0.7-2.4,1.2-4.7,1.4-6.8
				c1.4-14.7-12.8-21.5-28.8-15.2c-9.2,3.6-17.9,10.6-24.3,16.7c-0.2-8,0-16.4,0.2-22.5c11.8-6.2,21.7-19,36-28.7
				c11.6-7.9,35.9-11.9,58.9,0.5c0.4,2.9,0.6,5.8,0.6,8.8c0,0.3,0,0.6,0,0.9C210,176.1,210,181.4,209.2,186.5z"/>
			<path class="st1" d="M198.4,129.5c-4.3,3.8-11.1,7.5-21.4,10c-16.2,3.8-42.8,3.7-57.9-3.1c-2.5-1.1-4.8-2.5-6.5-4
				C99.4,121,106,100,115.8,86.3c1.6,5.4,7.2,6.8,16.5,5c11.3-2.3,14.7-9.9,14.4-15.5c-0.1-1.7-0.9-3.4-2.3-4.8
				c2.3-1.3,8.2-3.6,20.6-2.6c2,0.2,3.9,0.4,5.7,0.7c13.3,2.2,20.4,7.8,23.7,12c0.7,0.9,1.2,2,1.8,3.3c2.2,5.7,3,14.3,3.6,17.6
				c1.1,5.9,6.9,10.6,5.5,17.2C204.5,122.1,202.6,125.8,198.4,129.5z M193.9,113.1c1.4-0.3,2.1-1,2.1-2.7c0-1.7-4.8-1.1-5.5,0.3
				C189.7,112.3,192.5,113.3,193.9,113.1z M161.6,118.8c6.2-1.7,8.6-8.5,8.3-16.2c-0.2-6.8-5.8-9.6-9.5-8.1
				c-4.8,2-12.2,8.4-10.6,17.4C151.2,119,155.4,120.5,161.6,118.8z"/>
			<path d="M196.1,110.4c0,1.7-0.7,2.4-2.1,2.7c-1.4,0.3-4.2-0.7-3.4-2.4C191.2,109.3,196.1,108.7,196.1,110.4z"/>
			<path d="M197.6,73.8c0.4,4.2-0.7,8.1-1.6,10.6c-0.5-1.3-1.1-2.4-1.8-3.3c-3.2-4.2-10.4-9.8-23.7-12c3.4-2.2,9.7-5.6,15.8-5.2
				C193.8,64.4,197.1,69,197.6,73.8z"/>
			<path d="M144.3,71c1.4,1.4,2.3,3,2.3,4.8c0.3,5.7-3.1,13.3-14.4,15.5c-9.2,1.9-14.9,0.4-16.5-5c-0.4-1.2-0.5-2.6-0.5-4.2
				c0.2-6.4,6.1-13,12.6-14.4C135,66.2,141.1,67.9,144.3,71z"/>
			<path d="M169.9,102.6c0.3,7.8-2.1,14.5-8.3,16.2c-6.2,1.7-10.4,0.1-11.7-6.9c-1.6-9,5.8-15.4,10.6-17.4
				C164.1,93.1,169.7,95.8,169.9,102.6z"/>
			<path d="M209.4,161c-1.3-9.4-4.5-18-7.3-24.3c4.1,1,11.8,3.5,17,9.6c5.8,6.9,10.9,13.8,8.8,20.3c-1.3,4.1-9.5,7.1-17.8,4
				c0-0.3,0-0.6,0-0.9C210,166.8,209.8,163.9,209.4,161z"/>
			<path d="M114.5,189.2c-0.4,0.2-0.9,0.5-1.3,0.7c-12.4,5.9-23.8-2-24.6-9.6c-1-9.4,5.2-16.4,11.4-24.6
				c4.5-5.9,14.1-14.9,19.1-19.3c15,6.7,41.7,6.9,57.9,3.1c10.3-2.4,17.1-6.1,21.4-10c1,1.8,2.2,4.2,3.6,7.3
				c2.8,6.3,6,14.9,7.3,24.3c-23-12.4-47.3-8.4-58.9-0.5C136.2,170.1,126.3,183,114.5,189.2z"/>
			<path d="M209.2,186.5c3.1,6.9,5.1,20.4,2.6,30.7c-1.8,7.4-10.4,14.7-20.8,12.7c-6-1.2-9.8-9.2-11.7-14.9
				C201,210.2,207.4,199.3,209.2,186.5z"/>
			<path d="M166,217c-4.2,14.6-16.6,33.3-29,33.7c-12,0.4-17.1-3.9-21-19.9c-1.1-4.4-1.6-11.6-1.7-19.1c6.4-6.1,15.1-13.1,24.3-16.7
				c16-6.3,30.2,0.6,28.8,15.2C167.2,212.3,166.7,214.6,166,217z"/>
		</g>
		<g>
		</g>
	</g>
	<g id="XMLID_4_">
		<g>
			<path class="st1" d="M433.8,194.4c-1.1,0.4-2.3,0.9-3.5,1.4c-11.4,5.1-17.9,10.6-21.4,14.6c-2.5-10.3-4.6-23.4-3.4-35
				c0.8-7.6,2.1-14.4,3.6-20c4.5,0.2,11.6,1.2,15.9,4.8C433.8,167.6,424,189.8,433.8,194.4z"/>
			<path class="st1" d="M509.2,187.2c-2.4,8.8-7.6,17.2-18.5,25.5c-6,4.6-11.5,7.3-16.1,8.9c-5.4,1.8-9.7,2.1-12.5,2
				c1.7-4.2,2.9-8.6,3.5-12.9c1.3-9.4-5.2-17.1-16-18.5c11.4-6.6,13.1-22.4,21.1-29.8c6.9-6.4,18.9-14.9,38.1-10.3
				c1.5,5.8,2.7,12.2,2.6,17.9C511.2,176,510.8,181.7,509.2,187.2z"/>
			<path class="st1" d="M412.2,144.7c-3.4-2-5.6-4.2-6.8-6c-5.6-8.5,0-18.3,4.2-24.6c2.1-3,4-7.2,5.4-10.7c1.4,0.7,3.1,1.3,5,1.6
				c11,2,18.1-2.4,20.3-15.8c0.4-2.2,0.1-4.3-0.6-6.3c8.6-3.9,21.4-3.9,31.8-1.8c6,1.2,11.1,3.1,14.3,5.3c4.4,3.2,7.1,6.8,8.9,10.3
				c3,5.8,3.5,11.4,5.8,14c3.7,4.2,12.4,3.9,10.7,16.1c-0.4,3.3-1.4,6.9-7.5,10.6c-6,3.7-16.8,7.5-36.8,11.1
				C438,153.9,421,149.9,412.2,144.7z M494.7,123.7c1-0.2,2.5-1.6,2.2-2.8c-0.2-0.8-4.7-0.5-5,0.8
				C491.5,123.2,494.1,123.8,494.7,123.7z M459.9,130c6.2-3.6,9.3-11.9,7.9-16.9c-0.9-3.4-6.5-8.7-13-5.1c-5.1,2.8-7,14.9-5.6,19.2
				C450.3,130.8,456,132.2,459.9,130z"/>
			<path d="M433.8,194.4c5.9-2.1,11.2-2.7,15.8-2.1c-2.8,1.6-6.3,2.7-10.5,2.9C436.8,195.3,435.1,195,433.8,194.4z"/>
			<path d="M509.2,187.2c0.7,9.1,1.2,23.7-1.6,31.2c-4.2,11.3-13.3,20.6-22.3,18.9c-5.8-1.1-9.2-10-10.8-15.7
				c4.6-1.6,10.1-4.3,16.1-8.9C501.6,204.4,506.8,196,509.2,187.2z"/>
			<path d="M462.1,223.6c-3.6,8.8-9.9,16.4-19.1,18.7c-13.5,3.4-25.7-9-28.8-15.5c-1.3-2.8-3.5-8.8-5.3-16.4c3.6-4,10-9.5,21.4-14.6
				c1.2-0.5,2.3-1,3.5-1.4c1.4,0.6,3.1,1,5.3,0.8c4.3-0.2,7.7-1.3,10.5-2.9c10.8,1.4,17.3,9.1,16,18.5
				C465,215,463.8,219.5,462.1,223.6z"/>
			<path d="M503.8,137.5c1.3,3.2,3.3,8.5,4.9,14.6c-19.2-4.5-31.2,3.9-38.1,10.3c-8,7.4-9.7,23.2-21.1,29.8c-4.6-0.6-10,0-15.8,2.1
				c-9.7-4.6,0.1-26.7-8.9-34.2c-4.3-3.6-11.4-4.5-15.9-4.8c1.1-4.5,2.3-8.1,3.2-10.7c8.8,5.1,25.7,9.2,54.7,3.9
				C487,145,497.9,141.2,503.8,137.5z"/>
			<path d="M496.3,87.1c0,3.8-0.8,7.3-1.6,9.7c-1.8-3.5-4.4-7.1-8.9-10.3c-3.1-2.2-8.3-4.1-14.3-5.3c3.3-2.2,8.7-5,14-4.3
				C494.4,78.1,496.3,83.7,496.3,87.1z"/>
			<path d="M496.9,120.9c0.4,1.2-1.1,2.6-2.2,2.8c-0.7,0.1-3.2-0.5-2.8-2C492.2,120.4,496.6,120,496.9,120.9z"/>
			<path d="M467.8,113.1c1.4,5.1-1.7,13.4-7.9,16.9c-4,2.2-9.6,0.8-10.7-2.8c-1.3-4.3,0.6-16.4,5.6-19.2
				C461.4,104.3,466.9,109.7,467.8,113.1z"/>
			<path d="M415.1,103.5c-6.6-3.4-7.6-10.4-4.6-17.3c3.7-8.2,10.5-12.1,18.4-11.3c5.6,0.6,9.4,3.9,11,8.1c0.7,2,1,4.2,0.6,6.3
				c-2.2,13.4-9.3,17.8-20.3,15.8C418.2,104.8,416.5,104.2,415.1,103.5z"/>
		</g>
		<g>
		</g>
	</g>
	<g id="XMLID_5_">
		<g>
			<path class="st1" d="M809.6,189.9c-0.7,3.2-1.5,5.9-2.5,8.1c-3.6,7.6-13.2,15.5-24.9,18.7c-2.2,0.6-4.4,1-6.7,1.3
				c-5.4,0.6-10.5-0.3-14.7-1.6c0.6-1.3,1-2.5,1.5-3.7c2.6-7.1,2.1-20.1-5.3-23c-6.8-2.6-32.7-4.6-46.9,10.8
				c-0.5-6.7-0.7-15-0.7-22.6c4.4-3.2,13-8.2,24.3-7.9c26.2,0.8,29.4,19,39.5,22c9.1,2.7,16.8-2.6,16.4-13.9
				c-0.2-7.5-3.1-15.7-6.1-22c6.6-1.7,17.3-3.6,25.9-0.9C811.6,167.6,811.5,180.6,809.6,189.9z"/>
			<path class="st1" d="M770.3,70.4c0.1,0,0.1,0,0.2,0c13.2,3.1,20.9,9.4,24,16.5c0.7,1.5,1.2,3.1,1.4,4.7c1.9,11.5,9.4,14.9,8.5,26
				c-0.4,4.5-2.2,8.4-5.4,11.7c-7.3,7.5-21.7,12-43.1,12.9c-19.9,0.8-33.4-2-41.4-8.2c-4.2-3.2-6.9-7.4-8.3-12.5
				c-2.8-10.2,2.2-24.2,9.5-31.6c1.6,2.1,4.2,3.4,7.8,3.4c8.7,0,23-2.8,23.7-14.3c0.1-1.9-1.1-4.4-3.3-6.6
				C748.7,70.4,758.3,67.6,770.3,70.4z M794,113c1.3,0,2.5-2.3,2.4-3.4c-0.1-0.8-5.4,0.4-5.7,1.6C790.2,113,793.3,113,794,113z
				 M768.8,109.6c1.5-5.7-0.2-13.8-4.7-14.9c-4.9-1.1-10.3,2.1-13,8.1c-2.6,6-2.8,14.3,3.6,16.9
				C761.1,122.4,767.3,115.2,768.8,109.6z"/>
			<path d="M796.5,109.6c0.1,1-1.1,3.4-2.4,3.4c-0.8,0-3.9,0-3.3-1.8C791.1,109.9,796.4,108.8,796.5,109.6z"/>
			<path d="M760.8,216.4c-2.9,6.6-8.3,13.9-23.4,15.1c-18.1,1.5-23.7-12.4-26-21.1c-0.6-2.3-1.1-5.8-1.4-9.9
				c14.2-15.5,40.1-13.4,46.9-10.8c7.3,2.8,7.9,15.8,5.3,23C761.8,213.9,761.3,215.1,760.8,216.4z"/>
			<path d="M809.6,189.9c3.1,5.7,6.7,14.2,6.5,22.6c-0.4,14.3-3.8,25.6-14.7,26c-7.5,0.3-15.2-13.3-19.3-21.8
				c11.7-3.2,21.3-11.1,24.9-18.7C808.1,195.9,808.9,193.1,809.6,189.9z"/>
			<path d="M783.4,156.2c3.1,6.3,5.9,14.6,6.1,22c0.4,11.3-7.2,16.6-16.4,13.9c-10.2-3-13.4-21.3-39.5-22
				c-11.3-0.3-19.9,4.6-24.3,7.9c0-5.3,0.2-10.3,0.4-14.1c0.5-8.7,3.2-22.4,4.7-29.9c8.1,6.3,21.5,9.1,41.4,8.2
				c21.5-0.9,35.9-5.4,43.1-12.9c5.2,6.8,8.5,16.1,10.3,25.9C800.7,152.6,790,154.5,783.4,156.2z"/>
			<path d="M797.2,77.6c0.2,4.4-1.1,7.4-2.7,9.4c-3.1-7.2-10.8-13.4-24-16.5c-0.1,0-0.1,0-0.2,0c2.5-2.2,7.7-5.8,14.9-4.9
				C791.9,66.4,796.8,70.1,797.2,77.6z"/>
			<path d="M743.9,72.5c2.2,2.2,3.4,4.8,3.3,6.6c-0.8,11.5-15.1,14.3-23.7,14.3c-3.6,0-6.2-1.3-7.8-3.4c-2.2-2.9-2.6-7.2-1.3-11.3
				c2.3-7.1,10.2-10.5,18.8-10.5C737.8,68.2,741.4,70.1,743.9,72.5z"/>
			<path d="M764.1,94.7c4.5,1,6.2,9.2,4.7,14.9s-7.7,12.8-14.1,10.2c-6.4-2.6-6.2-10.9-3.6-16.9C753.8,96.8,759.2,93.6,764.1,94.7z"
				/>
		</g>
		<g>
		</g>
	</g>
	<g id="XMLID_6_">
		<g>
			<path class="st2" d="M1063.9,125.8c3.2-1.1,10.3,1.4,8.8,5.7c-1.3,3.4-9.9,6.2-11.9,3.7C1058.8,132.5,1060.5,126.9,1063.9,125.8z
				"/>
			<path class="st1" d="M1108,161.4c1.4,4.5,4.3,9.4,3.9,17.8c-12.2-0.8-18.8,12.7-19.3,19.7c-0.2,2.8,0.5,6,2.4,8.9
				c-10.9,16.3-37.5,17.3-47.7,17c-1.4-5.3-5.6-10.3-12.8-14c-11.5-5.9-21.7-5.3-30.4-1.1c-0.8-9,0.2-20.4,1-26.6
				c7.6-0.1,12.1-2.6,16.4-5.3c6.2-4,30-16.4,45.5-18.4C1084.7,157.1,1099.7,159.5,1108,161.4z"/>
			<path class="st1" d="M1081.6,87.9c1.1,1.1,2.2,2.3,3.1,3.4c6.2,7.3,11.4,3.8,17.8,10.2c2,2,3.5,7.5,3.5,13.6c0,7.5-2.3,16-8.9,20
				c-21.8,13.5-63.8,16.9-81.1,18.1c-4.2-3.6-11.8-9.1-19.2-10.6c-1.5-3.8-3.4-10-3-17.6c0.2-5.5,4.9-13.3,7.5-17.2
				c0.8,0.2,1.7,0.3,2.6,0.2c7.9-0.6,15.3-9.6,15.3-14.4c0-2-0.7-3.9-1.8-5.6c5.4-3.5,17.6-10.6,29.9-10.7c2.8,0,5.4,0,7.8,0.2
				C1069.2,78.4,1076.5,82.8,1081.6,87.9z M1086.2,102.9c0-5.2-4.8-11.4-9.9-12.4c-4.6-0.9-6.6,2.8-7.3,4.7
				c-1.1,2.8-1.7,12,6.5,15.1C1083.6,113.3,1086.2,107.4,1086.2,102.9z M1072.6,131.4c1.6-4.2-5.5-6.7-8.8-5.7
				c-3.4,1.1-5.1,6.8-3.1,9.3C1062.7,137.6,1071.4,134.9,1072.6,131.4z M1061.5,122.1c1.7,0,2.5-3.1,2.3-4.5
				c-0.3-1.4-6.8,0.4-7.1,2.3C1056.5,121.1,1059.8,122.1,1061.5,122.1z M1032.2,123.5c1.6-8.2-8-16.2-12-16.4
				c-5.6-0.3-7.6,4-8.3,7.3c-0.9,4.4-0.6,14.7,6.5,18.1C1025.5,135.9,1031,129.9,1032.2,123.5z"/>
			<path d="M1063.7,117.6c0.3,1.4-0.6,4.5-2.3,4.5c-1.7,0-5-1-4.8-2.3C1056.9,118,1063.4,116.2,1063.7,117.6z"/>
			<path d="M1072.6,65.9c7.9,0.6,11.6,4.4,11.3,12.3c-0.2,4.8-1.4,7.9-2.3,9.7c-5.2-5.1-12.4-9.5-26.4-10.5
				C1058.2,74.1,1066.2,65.4,1072.6,65.9z"/>
			<path d="M1017.6,87.9c1.1,1.6,1.8,3.5,1.8,5.6c0,4.8-7.4,13.8-15.3,14.4c-1,0.1-1.8,0-2.6-0.2c-5.9-1.4-7.7-9-7-15.7
				c0.9-7.6,7.1-10.8,12.4-10.3C1011,82.2,1015.2,84.5,1017.6,87.9z"/>
			<path d="M1020.2,107.1c4,0.2,13.6,8.2,12,16.4c-1.2,6.4-6.8,12.4-13.8,9c-7.1-3.4-7.4-13.7-6.5-18.1
				C1012.6,111.1,1014.6,106.8,1020.2,107.1z"/>
			<path d="M1076.3,90.5c5.1,1,9.9,7.2,9.9,12.4c0,4.5-2.5,10.4-10.7,7.3c-8.2-3.1-7.6-12.3-6.5-15.1
				C1069.7,93.2,1071.7,89.6,1076.3,90.5z"/>
			<path d="M1047.3,224.8c0.8,2.7,0.8,5.5,0.2,8.3c-1.4,6.2-6.8,19.5-17.5,19.2c-10.7-0.3-21.8-22.3-25.1-37.6
				c-0.3-1.5-0.6-3.2-0.8-5.1c8.8-4.2,18.9-4.8,30.4,1.1C1041.8,214.5,1045.9,219.5,1047.3,224.8z"/>
			<path d="M1112,179.2c1.6,0.1,3.2,0.4,5,1.1c14.4,5.1,14.7,16.4,13.8,24c-0.9,7.1-9.6,15.5-22,12.4c-7-1.8-11.3-5.1-13.7-8.9
				c-1.9-2.9-2.6-6.1-2.4-8.9C1093.2,191.9,1099.8,178.4,1112,179.2z"/>
			<path d="M1016.1,153.2c17.2-1.2,59.3-4.6,81.1-18.1c6.6-4.1,8.9-12.5,8.9-20c2.1-1.8,5.2-3.9,8.1-4c6.1-0.1,9.6,7.9,5.6,20.3
				c-2.7,8.3-12.1,18.9-12.4,25.4c-0.1,1.6,0.2,3.1,0.7,4.6c-8.3-1.9-23.4-4.3-41.1-2.1c-15.4,1.9-39.2,14.4-45.5,18.4
				c-4.3,2.8-8.8,5.2-16.4,5.3c-3.3,0.1-7.1-0.3-11.8-1.2c-18.8-3.8-20.1-25-18.1-32.1c1.9-6.9,6.5-8.2,18.6-7.6c1,0.1,2,0.2,3,0.4
				C1004.4,144.1,1011.9,149.6,1016.1,153.2z"/>
		</g>
		<g>
		</g>
	</g>
	<g id="XMLID_7_">
		<g>
			<path class="st2" d="M1355.9,141.9c0.2,5.7-8.3,10.7-13.2,8.1c-4.9-2.6-3.7-11,0.4-13C1347.8,134.8,1355.8,137.7,1355.9,141.9z"
				/>
			<path class="st1" d="M1398.4,207.6c-12.1,11.2-34.9,17.9-43.6,20.1c-2.8-4.9-6.8-9.4-11.6-12c-10.5-5.7-23.9-6.6-28.1-2.5
				c-2.1,2.1-3,4.5-3,7.1c-5-4.9-11.2-12.1-15.2-20c17.1,1.5,44.8-9.2,50.1-19.3c2.4-4.6,3.9-9-0.9-12.4c5-2.8,15.2-7.9,25.7-10.2
				c17.8-3.9,28.3-1.1,35.7-3.9c1.2,4.7,2.8,12.8,2.3,22.5c-0.3,6.7-1.7,14.1-4.8,21.7C1403.6,202,1401.3,204.9,1398.4,207.6z"/>
			<path class="st1" d="M1386.7,126.1c-1.2,9.5-8.6,13.6-20.7,21.3c-11.5,7.2-30.6,14-39.8,17c-14,0.4-30.3,5.9-32.8,15.2
				c-0.2,0.7-0.3,1.3-0.4,2c-13.7-13.5-16.6-30.2-15.2-45.1c0.6-6.2,1.9-12.2,3.6-17.5c1.2-3.8,3.1-7.4,5.6-10.7
				c10.1-13.3,29.4-22.2,44.2-22.8c1.1-0.1,2.2-0.1,3.3,0c13.7,0.6,22.4,5.8,27.8,10.8c3.7,3.4,5.8,6.7,6.9,8.4
				c2.6,4.2,15.5,1.5,17.3,12.8C1386.9,120.8,1387,123.6,1386.7,126.1z M1369.1,112.5c0.1-6.1-6.8-10.8-10.6-11.6
				c-3.8-0.8-8.6-0.5-9,6.8c-0.5,8.2,7.2,12.1,12.2,12.4C1365.6,120.3,1369,115.1,1369.1,112.5z M1342.7,150
				c4.9,2.6,13.4-2.4,13.2-8.1c-0.1-4.2-8.1-7.1-12.8-4.9C1339,139,1337.8,147.4,1342.7,150z M1342.6,133.7c0,0,2.2-2.5,1.7-3.8
				c-0.8-2-8,2.2-6.8,3.8C1338.5,134.9,1342.6,133.7,1342.6,133.7z M1315.6,141.1c2.6-4.5,1.2-14.3-3.7-16.5
				c-4.9-2.3-7.6-2-12.4,2.1c-3,2.5-6.1,16,1,19.6C1306.6,149.5,1312.9,145.7,1315.6,141.1z"/>
			<path d="M1272.3,109.6c5.2-2.1,11-1.8,14.6-1.2c-2.5,3.3-4.4,6.9-5.6,10.7c-1.6,5.3-3,11.2-3.6,17.5c-2.8-1-6.6-3.1-9.6-7.3
				C1262.1,120.7,1266.6,111.9,1272.3,109.6z"/>
			<path d="M1311.9,124.6c4.9,2.3,6.3,12,3.7,16.5c-2.6,4.5-9,8.3-15.1,5.2c-7.1-3.6-3.9-17.1-1-19.6
				C1304.2,122.7,1307,122.4,1311.9,124.6z"/>
			<path d="M1363.8,83.2c0.5,4.3-0.6,9.6-1.6,13.1c-5.4-5-14.1-10.2-27.8-10.8c-1.1-0.1-2.2-0.1-3.3,0c1.8-3.9,5.5-10.4,11.2-11.7
				C1350.6,71.9,1363.1,76.1,1363.8,83.2z"/>
			<path d="M1358.5,100.9c3.8,0.8,10.7,5.5,10.6,11.6c-0.1,2.6-3.5,7.8-7.3,7.6c-5.1-0.3-12.7-4.2-12.2-12.4
				C1349.9,100.4,1354.7,100.2,1358.5,100.9z"/>
			<path d="M1344.2,129.9c0.5,1.2-1.7,3.8-1.7,3.8s-4.1,1.3-5.1,0C1336.2,132.1,1343.4,127.9,1344.2,129.9z"/>
			<path d="M1354.8,227.7c3.4,5.8,5.1,12,4.5,15.9c-1.1,7.2-15,9.7-28.9,0.7c-10.4-6.7-18.3-16.2-18.3-23.9c0-2.6,0.9-5.1,3-7.1
				c4.2-4.2,17.5-3.2,28.1,2.5C1347.9,218.3,1351.9,222.9,1354.8,227.7z"/>
			<path d="M1427.1,178.8c7.9,2.6,12.4,12.8,1.1,20c-9.5,6-20.3,9.2-29.8,8.8c2.9-2.7,5.2-5.6,6.5-8.8c3.1-7.6,4.4-15,4.8-21.7
				C1415.2,177.1,1422.6,177.4,1427.1,178.8z"/>
			<path d="M1407.3,154.6c-7.4,2.9-17.8,0-35.7,3.9c-10.5,2.3-20.7,7.5-25.7,10.2c-1.9-1.3-4.7-2.5-8.8-3.4c-3.2-0.7-7-1-10.9-0.9
				c9.2-3,28.3-9.8,39.8-17c12.1-7.6,19.5-11.8,20.7-21.3c8.6-4.2,28.3-12.5,35.1-4.8c5.7,6.4,0.4,22-10.8,31.2
				C1409.9,153.4,1408.6,154.1,1407.3,154.6z"/>
			<path d="M1345.9,168.7c4.8,3.4,3.4,7.8,0.9,12.4c-5.3,10.2-33,20.9-50.1,19.3c-3.1-6-4.9-12.5-3.8-18.9c0.1-0.7,0.2-1.4,0.4-2
				c2.4-9.3,18.8-14.8,32.8-15.2c3.9-0.1,7.7,0.2,10.9,0.9C1341.2,166.2,1344.1,167.4,1345.9,168.7z"/>
		</g>
		<g>
		</g>
	</g>
	<g id="XMLID_8_">
		<g>
			<path class="st2" d="M1612.1,181.5c3.2,1.3,6,4.4,5.7,7.7c-0.4,3.4-1.5,5.1-4.1,4.9c-4.7-0.3-11.3-5.5-11.1-10.2
				C1602.6,181.3,1608.9,180.2,1612.1,181.5z"/>
			<path class="st1" d="M1662.7,164.9c4.8,12.2,13.9,23.2,34.3,15.5c-3.5,10.5-8.2,21.7-18,33.4c-5.4,6.5-14.4,11.6-23.6,15.5
				c3.6-14.9,8-47,5.3-61c-0.2-1.1-0.5-2.2-0.8-3.3L1662.7,164.9z"/>
			<path class="st1" d="M1638.3,135.4c9.8-1.9,19.7,2.6,24.8,5.5c-2.7,8.3-3,17.1-0.3,24l-2.8,0.2c-2.7-8.1-9.2-15.2-19.2-8.6
				c-1.3,0.9-2.5,1.8-3.6,2.8c0.3-7.6,0.3-16.8-1.4-21.3c-0.2-0.5-0.4-1.1-0.6-1.7C1636.1,135.9,1637.2,135.6,1638.3,135.4z"/>
			<path class="st1" d="M1578.9,160.8c-5.1,2-7.8,8.7-6.5,13c0.8,2.8,4,4.2,7.6,3.4c3.7-0.8,7.4-4.5,8.2-9.3
				C1588.9,163.4,1584,158.8,1578.9,160.8z M1606.4,153.2c2.7,1.6,5.3,3.9,7.6,6.6c6.1,7.4,10.7,19.8,12.7,26.2
				c0.4,12.5,5.2,24.2,6.9,27.8c0.1,3.7-0.3,7.8-1.3,12.4c-1.2,5.6-4.1,9.8-7,12.8c-1.5,0.4-2.7,0.8-3.4,1c-5.1,1.8-24.7,2-33.3,2
				c0.4-1.2,0.6-2.7,0.5-4.5c-0.5-11-12.7-11.5-19.5-10.7c-2.7,0.3-5.1,1.2-6.9,2.5c-3.2-4-11.6-16.4-10.9-33.6
				c0.1-2.3,0.3-4.4,0.7-6.3c2.3-11.3,9.1-18,14.5-22c2.4-1.8,4.6-3,5.9-3.9c4.8-3.1,12.4-11.9,17.2-13.3
				C1595.2,148.9,1601.1,150,1606.4,153.2z M1617.8,189.2c0.4-3.3-2.4-6.4-5.7-7.7c-3.2-1.3-9.5-0.2-9.6,2.4
				c-0.2,4.7,6.4,9.8,11.1,10.2C1616.2,194.3,1617.4,192.6,1617.8,189.2z M1604.3,221.2c1.1-4.5-2.3-11.3-8.5-13.3
				c-6.2-2-13.1,1.2-13.1,5.6c0,3.9,3.5,6.9,8.3,9.7C1595.8,226,1603.2,225.7,1604.3,221.2z M1595.9,188.8c1.7,0.4,2.6-3.4,2.6-4.3
				c0-1.3-1.5-3.6-3.2-3.4C1592.7,181.4,1594.6,188.5,1595.9,188.8z"/>
			<path d="M1588.5,242.1c-1.8,5.6-7.6,6.3-10.9,6.8c-4,0.6-12.8-0.4-16.8-8.3c-2.5-5-1.3-8.9,1.8-11.2c1.8-1.4,4.2-2.2,6.9-2.5
				c6.8-0.8,18.9-0.3,19.5,10.7C1589.1,239.4,1588.9,240.9,1588.5,242.1z"/>
			<path d="M1595.8,207.9c6.2,2,9.6,8.8,8.5,13.3c-1.1,4.5-8.5,4.8-13.3,2c-4.8-2.8-8.3-5.7-8.3-9.7
				C1582.7,209.1,1589.6,205.9,1595.8,207.9z"/>
			<path d="M1553.9,160.8c5.4,0.3,10.4,4.2,13.1,6.7c-5.4,4-12.2,10.6-14.5,22c-2.4-2.7-6.1-7.8-7.8-14.8
				C1542.2,163.9,1549.1,160.5,1553.9,160.8z"/>
			<path d="M1578.9,160.8c5.1-2,10,2.6,9.3,7.1c-0.8,4.8-4.5,8.5-8.2,9.3c-3.7,0.9-6.8-0.6-7.6-3.4
				C1571.1,169.4,1573.8,162.8,1578.9,160.8z"/>
			<path d="M1598.6,184.5c0,0.9-0.9,4.7-2.6,4.3c-1.3-0.3-3.2-7.4-0.6-7.7C1597,180.9,1598.6,183.2,1598.6,184.5z"/>
			<path d="M1633.6,213.8c-0.1-11.2-4.2-18.4-5.7-23.9c0,0-0.4-1.5-1.2-3.9c-0.3-9.5,2.1-19.4,10.4-26.8c1.1-1,2.3-1.9,3.6-2.8
				c10-6.6,16.6,0.5,19.2,8.6c0.3,1.1,0.6,2.2,0.8,3.3c2.7,13.9-1.7,46-5.3,61c-11.7,4.9-23.9,8-30.2,9.7c2.9-3,5.8-7.3,7-12.8
				C1633.3,221.6,1633.6,217.5,1633.6,213.8z"/>
			<path d="M1635,136.2c0.2,0.6,0.4,1.1,0.6,1.7c1.7,4.5,1.8,13.7,1.4,21.3c-8.3,7.3-10.6,17.3-10.4,26.8c-2-6.3-6.6-18.8-12.7-26.2
				c-2.3-2.8-4.9-5-7.6-6.6c0.5-5.5-0.8-14.1,0.4-22.4c0.8-4.9,5.8-9.6,12.6-10.5C1628.7,119,1632.5,129.5,1635,136.2z"/>
			<path d="M1667.6,97.7c5.4,5.6,5.8,17.3,5.1,26.1c-4.3,4.7-7.7,10.7-9.7,17c-5.1-2.9-14.9-7.4-24.8-5.5c-3.3-14.3-2.7-25,1.7-32.2
				C1644.6,95.6,1660.5,90.3,1667.6,97.7z"/>
			<path d="M1663,140.9c2-6.3,5.4-12.3,9.7-17c0.6-0.7,1.2-1.3,1.8-1.8c10.5-9.8,22.3-4.5,27.7,4.5c5.4,9,3.4,26.9-1.1,41
				c-1.3,4.2-2.6,8.5-4.1,12.9c-20.4,7.6-29.6-3.4-34.3-15.5C1660,158,1660.4,149.1,1663,140.9z"/>
		</g>
		<g>
		</g>
	</g>
	<g id="XMLID_9_">
		<g>
			<path class="st1" d="M1982.9,161.1c9.3,22,1.9,42.4-13.8,58.7c-2.4,2.5-5.5,4.8-9.2,6.9c-0.3-9.1-4.1-20.7-6.4-28.4
				c-2-6.9-9.5-15.2-16.8-21.5c7.7,0,27.7-4.8,32.8-34.8C1975.3,147.9,1980.1,154.5,1982.9,161.1z"/>
			<path class="st1" d="M1883.7,162.5c-3.7-1.4-8.1,2.5-10.3,5.4c-2.3,2.8-2.8,10.3-0.8,12.3c4.1,4.1,9.5,2.5,11.9-0.4
				C1889.2,174.1,1887.4,163.9,1883.7,162.5z M1881,155.4c1.8-1.5,3.6-2.6,5.4-3.1c7.9-1.9,22,2.5,26.9,14.6
				c-8.7,1.2-17.4,7.2-16,20.8c1.9,17.7,38.3,37.8,52.3,44.1c-11.3,4.7-24.6,8-35.8,9.3c-8.7,1-18.6,0.4-23.6-0.1
				c0.8-1.6,1.2-3.4,1.2-5.1c0.3-7.3-2.6-10-8.5-11.9c-2.6-0.9-9.4,0.1-14.4,2.6c-4.6-6.8-12.1-19.8-11.2-31.6c0,0,0-0.1,0-0.1
				c1.1-13.3,6.1-18.4,9.7-22.5c1-1.1,1.9-2.1,2.6-3.2C1872.1,165.6,1876.4,159.2,1881,155.4z M1910.1,219.8
				c0.6-5.1-4.5-11.9-9.9-12.7c-5.4-0.9-15,2.1-16.1,6.2c-1.7,6.5,6,11.3,11,11.9C1901.6,225.9,1909.5,224.9,1910.1,219.8z"/>
			<path d="M1890.2,241c-2.3,4.9-7.6,8.5-14.8,7.8c-9.6-0.8-14.4-10.9-12.7-16.4c0.7-2.4,3-4.4,5.9-5.8c5.1-2.6,11.8-3.5,14.4-2.6
				c5.8,1.9,8.8,4.5,8.5,11.9C1891.4,237.7,1890.9,239.4,1890.2,241z"/>
			<path d="M1867.1,172.4c-3.7,4.1-8.6,9.2-9.7,22.5c-2-1.8-4.7-4.6-5.8-7.4c-2.5-6.2,0.9-13,4.5-14.5
				C1859.7,171.5,1864.3,171.9,1867.1,172.4z"/>
			<path d="M1883.7,162.5c3.7,1.4,5.5,11.7,0.8,17.3c-2.4,2.9-7.8,4.5-11.9,0.4c-2.1-2.1-1.5-9.5,0.8-12.3
				C1875.6,165,1880.1,161.1,1883.7,162.5z"/>
			<path d="M1900.2,207.1c5.4,0.8,10.4,7.6,9.9,12.7c-0.6,5.1-8.5,6.1-15,5.4c-5-0.6-12.7-5.4-11-11.9
				C1885.2,209.2,1894.8,206.2,1900.2,207.1z"/>
			<path d="M1890.2,128.4c0.2,0,0.5,0.1,0.7,0.2c6.6,2,14,6.9,18.8,10.3c2,10.1,9.6,22,16.1,29.7c-3-1.6-7.7-2.4-12.4-1.7
				c-5-12.1-19-16.4-26.9-14.6c-1.8,0.4-3.6,1.5-5.4,3.1c-3.2-3.5-8-8.7-7.6-15.5C1873.9,132,1884.5,127.3,1890.2,128.4z"/>
			<path d="M1929.6,117.1c-1.2-0.2-2.3-0.4-3.3-0.4c-14.7-0.5-17.1,7.2-17.1,17.5c0,1.5,0.2,3,0.5,4.6c-4.7-3.4-12.2-8.3-18.8-10.3
				c-0.2-0.1-0.5-0.1-0.7-0.2c-1.8-3.2-4-8.3-3.8-13.9c0.2-5.4,4.1-11.1,10.5-11.5C1906,102.4,1921.4,107.3,1929.6,117.1z"/>
			<path d="M1913.3,166.9c4.8-0.7,9.4,0,12.4,1.7c3.8,4.6,7.2,7.6,8.7,8c0.5,0.1,1.4,0.2,2.4,0.2c7.3,6.3,14.8,14.6,16.8,21.5
				c2.2,7.7,6.1,19.3,6.4,28.4c-3.1,1.8-6.6,3.5-10.3,5.1c-14-6.3-50.5-26.5-52.3-44.1C1895.8,174.1,1904.6,168.1,1913.3,166.9z"/>
			<path d="M1929.6,117.1c11.1,2.1,27.7,12.2,40,24.8c-5.1,30-25.1,34.8-32.8,34.8c-4-3.5-8-6.4-10.9-8.1c-0.1,0-0.1-0.1-0.2-0.1
				c-6.4-7.7-14.1-19.7-16.1-29.7c-0.3-1.6-0.5-3.1-0.5-4.6c0-10.3,2.4-18,17.1-17.5C1927.3,116.8,1928.4,116.9,1929.6,117.1z"/>
		</g>
		<g>
		</g>
	</g>
	<g id="XMLID_10_">
		<g>
			<path class="st2" d="M2217.8,180.6c3.4-0.2,6.6,7.4,2.6,10.1c-2.9,2-6.7-0.7-7.1-4.4C2213.2,184.8,2214.6,180.8,2217.8,180.6z"/>
			<path class="st1" d="M2306.3,165.7c6,8.1,8.9,19.1,6.6,33.9c-11.4,0.8-26.1,14-26.9,21.4c-0.5,4.4,0.5,7.6,2.4,9.9
				c-10.4,5.3-25.3,5.3-31.9,5.1c8.7-12.4,2-31.8-1.2-46.5c-4.4-20.4-13.4-34.5-18.4-41c7.3-2.1,16.2-3.3,26.3-2.3
				c3.9,0.4,7.9,1,11.7,1.8C2287.6,150.7,2299.2,156.1,2306.3,165.7z"/>
			<path class="st1" d="M2197.7,164.9c-3.5-1.9-10.9,0.9-15.4,4.7c-1.1,1-2.1,2-2.7,3c-2.2,3.6,0.8,7.9,4.3,8.8
				c5.7,1.5,12.2-1.6,14.1-5.1C2200.3,172.2,2201.5,167,2197.7,164.9z M2162.1,185.4c3.1-9.1,13.9-15.5,18.4-18.5
				c0.2-0.1,0.5-0.3,0.7-0.4c0.9-0.6,1.8-1.4,2.7-2.3c4.3-4.4,8.4-11.2,16-12.7c8-1.6,14.2,1.5,18.4,5.4c1.5,1.4,2.7,3,3.7,4.4
				c3.4,5.3,10.9,27.5,12.1,44.8c1.1,17.3-15.6,15.4-27.7,30.5c-2.1,2.7-3.4,5-3.9,7.1c-4.2-0.4-8.1-1.5-10.9-2.5
				c0.4-5.5-2.5-13.2-7.2-15.5c-4.2-2.1-10-1.1-14.2,0.9c-9.6-12.3-10.5-29.4-8.4-39.3C2161.7,186.5,2161.9,185.9,2162.1,185.4z
				 M2220.4,190.7c4-2.6,0.8-10.3-2.6-10.1c-3.2,0.2-4.6,4.1-4.4,5.6C2213.7,190,2217.4,192.7,2220.4,190.7z M2219,216.9
				c0.4-4.1-1.1-7-8.5-9c-9.8-2.8-16.6,2.4-17.5,6c-1.1,4.7,5.1,8.7,12.2,9.8S2218.6,221,2219,216.9z M2207,191.9
				c1.5,0.2,2.8-2.4,2.7-3.8c-0.1-1.5-2-3.6-3.4-3.3C2204.5,185.2,2205.3,191.7,2207,191.9z"/>
			<path d="M2191.3,241.1c-0.1,1.2-0.3,2.4-0.8,3.3c-2.4,5.3-13.2,7.5-21.8,2.3c-8.7-5.3-6.2-14.3-3.2-17.3c1-1,2.6-2.1,4.4-2.9
				c4.3-2,10-3,14.2-0.9C2188.8,227.9,2191.7,235.6,2191.3,241.1z"/>
			<path d="M2167.6,160c6.4,0.1,10.6,3.9,12.9,6.8c-4.6,3-15.4,9.4-18.4,18.5c-4.7-3.3-9.2-8.8-9.2-15.9
				C2152.9,160.4,2160.6,159.9,2167.6,160z"/>
			<path d="M2209.8,188.2c0.1,1.3-1.2,3.9-2.7,3.8c-1.7-0.2-2.5-6.7-0.7-7.1C2207.8,184.6,2209.6,186.6,2209.8,188.2z"/>
			<path d="M2182.3,169.6c4.5-3.8,11.8-6.6,15.4-4.7c3.8,2.1,2.6,7.3,0.4,11.5c-1.9,3.5-8.5,6.6-14.1,5.1c-3.6-0.9-6.6-5.3-4.3-8.8
				C2180.3,171.6,2181.2,170.6,2182.3,169.6z"/>
			<path d="M2230.9,150.3c-5.7,2.2-10,4.6-12.8,6.4c-4.1-3.9-10.4-7.1-18.4-5.4c-7.5,1.6-11.6,8.3-16,12.7
				c-9.3-21.3,1.8-26.7,13.9-27.8C2206.8,135.5,2222.9,145.1,2230.9,150.3z"/>
			<path d="M2230.9,150.3c1.9-0.7,3.9-1.4,6-2c5,6.5,14,20.6,18.4,41c3.2,14.7,9.9,34.1,1.2,46.5c-0.1,0.1-0.1,0.2-0.2,0.3
				c-9,12.4-26,21.3-37.8,21.1c-6.7-0.1-18.8-4-16.2-13.8c0.6-2.1,1.8-4.5,3.9-7.1c12.1-15.1,28.8-13.2,27.7-30.5
				c-1.1-17.3-8.7-39.5-12.1-44.8c-0.9-1.4-2.1-2.9-3.7-4.4C2220.9,155,2225.2,152.5,2230.9,150.3z"/>
			<path d="M2210.5,207.8c7.3,2.1,8.9,4.9,8.5,9c-0.4,4.1-6.6,7.9-13.7,6.8s-13.4-5.1-12.2-9.8
				C2193.9,210.2,2200.7,205.1,2210.5,207.8z"/>
			<path d="M2296.3,138.2c7.9-0.5,16.9,3.6,15.4,13.7c-0.9,6.2-3.6,11-5.4,13.7c-7.2-9.6-18.7-14.9-31.4-17.7
				C2278.8,145,2287.8,138.8,2296.3,138.2z"/>
			<path d="M2312.9,199.6c1.4-0.1,2.7,0,3.9,0.3c12.2,3,27.3,18.4,23.5,26.4c-3.8,7.9-23.7,10.9-30.9,10.5c-5.2-0.3-16.2,0-21.1-6
				c-1.9-2.3-2.9-5.4-2.4-9.9C2286.8,213.6,2301.5,200.4,2312.9,199.6z"/>
		</g>
		<g>
		</g>
	</g>
	<g id="XMLID_11_">
		<g>
			<path class="st1" d="M2609.5,208.9c-2.3-0.9-4.9-1.3-7.7-1.1c-13.5,1.2-38.3,2-35.7,32.3c-9.6,0.4-20-0.1-29.9-1.8
				c4-6.1,13-8.9,23-16.1c6.2-4.4,13.9-14.9,16.2-23.2c2.6-9.6-1.2-13.8-7.4-15.1c0.1-3.9,0.7-10.3,3.6-15.2c3-5,8.4-9.1,11.7-11.3
				c2.1,0.9,4.1,1.9,6,2.9c2.8,1.5,5.4,3.1,7.5,4.7c1.8,1.4,3.6,3.1,5.1,5c7.4,8.9,11.6,22.8,8,36.8
				C2609.9,207.6,2609.7,208.3,2609.5,208.9z"/>
			<path class="st1" d="M2547.6,145c-3.9-2.6-10.8-1.8-12,0.9c-1.3,3,0.2,5.8,2.3,7.9c2.3,2.4,7.3,3.4,10,1.5
				C2550.4,153.4,2551.6,147.6,2547.6,145z M2564,150.2c1.5,3.9,1.9,9.3,0.4,15.7c-0.9,3.8-5.7,12.3-12.7,21.3
				c-11,14-27.4,29.1-43.4,28.5c-5.2-0.2-9.5-1.3-13-3.1c-13.1-6.6-15.9-21.7-16.3-28c1.3,0.4,2.6,0.5,3.9,0.4
				c6.9-0.7,10.7-8.5,11.9-13.7c1-4.7-0.6-12.2-7.9-13.4c-2.7-0.4-5.4-0.2-7.9,0.6c2.6-5.2,9.5-16.6,23.1-22.2
				c2.6-1.1,5.1-1.8,7.5-2.3c13.6-2.7,22.9,3.8,29.6,7.1c1.7,0.8,3.3,1.5,4.7,1.6c7.9,0.9,7.9-1.7,13.9,0.4c0.9,0.3,1.8,0.8,2.6,1.6
				C2561.8,145.9,2563.1,147.8,2564,150.2z M2539.8,170.6c1.2-0.9,1.2-3.2,0.3-4.2c-1-1.1-5.9,3-4,4.3
				C2537,171.3,2538.9,171.4,2539.8,170.6z M2522.6,184.7c4.2-10.1-4.9-19.6-9.8-19.6c-3.9,0-6,2.9-6.6,7.3
				c-0.9,6.6,2.4,13.6,4.9,15.2C2513.4,189.2,2519.9,191.2,2522.6,184.7z"/>
			<path d="M2583.4,157.4c-3.3,2.2-8.7,6.3-11.7,11.3c-2.9,4.9-3.6,11.3-3.6,15.2c-0.2,0-0.5-0.1-0.7-0.1
				c-4.1-0.7-11.1,1.6-15.7,3.5c7-9,11.8-17.6,12.7-21.3c1.5-6.4,1.1-11.8-0.4-15.7C2568.3,151.5,2576,154.1,2583.4,157.4z"/>
			<path d="M2583.4,157.4c-7.4-3.3-15.1-5.9-19.4-7.2c-0.9-2.4-2.1-4.2-3.6-5.5c3.2-2.5,10.6-7.3,19-6.3c11.3,1.3,15.9,4.5,16,10.2
				c0.1,5.1-3.8,9.7-6,11.8C2587.5,159.3,2585.5,158.4,2583.4,157.4z"/>
			<path d="M2620.5,181.7c5.7,6.2,6.4,19.2,1.7,23c-3.3,2.7-9.1,2.6-12.1,2.3c3.6-14.1-0.6-27.9-8-36.8
				C2606.2,171.8,2615,175.8,2620.5,181.7z"/>
			<path d="M2609.5,208.9c8.4,3.3,13.4,12.6,10.8,17.7c-4.1,7.9-24.5,10.7-45,12.8c-2.9,0.3-6,0.5-9.1,0.6
				c-2.7-30.2,22.1-31.1,35.7-32.3C2604.6,207.6,2607.2,208,2609.5,208.9z"/>
			<path d="M2568.1,183.9c6.2,1.3,10,5.5,7.4,15.1c-2.3,8.3-10,18.7-16.2,23.2c-10,7.2-19,10.1-23,16.1c-9.9-1.8-19.2-4.8-26.1-9.7
				c-7.4-5.1-12.2-11.6-14.9-15.9c3.5,1.8,7.8,2.9,13,3.1c15.9,0.6,32.4-14.5,43.4-28.5c4.6-1.8,11.6-4.2,15.7-3.5
				C2567.6,183.8,2567.9,183.8,2568.1,183.9z"/>
			<path d="M2540.1,166.4c0.9,1,0.9,3.3-0.3,4.2c-0.9,0.7-2.8,0.7-3.7,0.1C2534.2,169.5,2539.1,165.3,2540.1,166.4z"/>
			<path d="M2479,158.5c2.5-0.8,5.2-1,7.9-0.6c7.3,1.1,8.9,8.6,7.9,13.4c-1.1,5.3-4.9,13.1-11.9,13.7c-1.3,0.1-2.6,0-3.9-0.4
				c-4.9-1.5-9.4-6.6-8.5-15.2C2471.1,163.4,2474.6,159.9,2479,158.5z"/>
			<path d="M2512.8,165.1c4.9,0,14,9.5,9.8,19.6c-2.7,6.5-9.2,4.5-11.5,3c-2.5-1.7-5.8-8.7-4.9-15.2
				C2506.9,168,2508.9,165.1,2512.8,165.1z"/>
			<path d="M2547.6,145c4,2.6,2.8,8.5,0.2,10.3c-2.6,1.9-7.6,0.9-10-1.5c-2-2.1-3.6-4.9-2.3-7.9
				C2536.8,143.1,2543.7,142.3,2547.6,145z"/>
			<path d="M2540.1,132c0.4,4.4-0.4,7.5-1,9.1c-6.7-3.2-15.9-9.8-29.6-7.1c2.6-3.4,10.6-12.9,16.8-13.5
				C2533.3,119.8,2539.7,127.1,2540.1,132z"/>
		</g>
		<g>
		</g>
	</g>
	<g id="XMLID_12_">
		<g>
			<path class="st1" d="M2903.7,186.5c0.8-0.7,1.4-1.4,2-2.2c-2.8,9.6-3.4,20.6-3.4,25c0,2.6,0.7,5.2,2.1,7.3
				c-2.1,2.6-4.3,4-6.1,4.9c-4.1-2.8-9.2-4.9-13.5-5.4c-9.6-1.1-20.2,4.4-20.9,12.1c-0.7,7.9,3,10.3,9,12.4
				c-7.1,1-16.4-0.5-22.6-1.8c7.2-5.1,3.5-11.6,0.6-16c-2.5-3.8-7.6-9.8-11.5-13.4c4.5-4,13-12,18.8-14.8c6.8-3.3,13.3-5.8,18.6-6.4
				c-0.5,1.7-0.4,3.7,1.1,5.6C2881.3,197.9,2896.5,192.9,2903.7,186.5z"/>
			<path class="st1" d="M2804.7,192.6c-0.1-0.1-0.1-0.2-0.2-0.2c-2.9-4.6-2.5-19.9,0.5-33c1.1-4.9,2.6-9.6,4.3-13.2
				c1.9-4,4.8-7.8,8.2-11.1c6.1-5.8,14.1-10.1,23-11.2c6.1-0.8,12.3-0.7,17.6,0.3c6.7,1.3,12.2,4,15,8.3c1.9,2.9,3.2,6.2,4.1,9.3
				c1.5,5,2.1,9.3,3.5,10.2c2.2,1.4,8.2,2.5,9.2,8c0,0.1,0.1,0.3,0.1,0.4c0.9,6.4-1.8,15-12.2,22.3c-3.1,2.2-6.9,4.3-11.6,6.2
				C2846.4,197.2,2816.1,210.4,2804.7,192.6z M2868,165.4c3.1,0,6.6-4.5,6.6-9.7c0-2.4-4.6-9.5-8.8-8.3c-3.1,0.9-5.3,5.5-5.1,9.5
				C2861,161.5,2863.4,165.4,2868,165.4z M2854.3,175.3c0.8-0.3,1.9-1.7,1.7-2.5c-0.5-2.1-4.7-0.8-4.9,1
				C2851.1,175,2853.1,175.7,2854.3,175.3z M2833.8,167.7c0.7-6-4.8-11.6-8.5-10.9c-4.2,0.8-6.1,7.9-5.2,13.5
				c0.8,5.7,4.2,7.5,7.1,6.8C2830.6,176.3,2833.1,173.5,2833.8,167.7z"/>
			<path d="M2877.3,141.8c-0.9-3.1-2.2-6.4-4.1-9.3c-2.8-4.2-8.3-7-15-8.3c2-1.9,4.8-4.1,8.1-4.9c6.4-1.6,13.2,1,15.4,8.7
				C2883.4,133.7,2880,139.1,2877.3,141.8z"/>
			<path d="M2904.3,216.6c-1.3-2.1-2.1-4.7-2.1-7.3c0-4.4,0.6-15.4,3.4-25c1.9-2.4,2.9-5.1,3.1-7.9c0.2-0.4,0.4-0.8,0.6-1.2
				c4.8,3.4,11.9,9.8,13.1,18.8c2,15.5-2.3,24.7-7.9,26.4C2910,221.8,2906.4,219.9,2904.3,216.6z"/>
			<path d="M2908.8,174.9c0,0.5,0,1.1-0.1,1.6c-1.2,2.4-2.2,5.1-3.1,7.9c-0.6,0.8-1.2,1.5-2,2.2c-7.1,6.4-22.4,11.4-25.7,7.3
				c-1.5-1.8-1.6-3.8-1.1-5.6c0.5-1.8,1.5-3.3,2.1-4.1l-1-1.4c10.4-7.3,13-15.9,12.2-22.3c0-0.2,0-0.3-0.1-0.4
				C2901.3,158.7,2908.6,166.5,2908.8,174.9z"/>
			<path d="M2872.9,240.7c-6-2.1-9.8-4.5-9-12.4c0.7-7.8,11.3-13.3,20.9-12.1c4.3,0.5,9.3,2.6,13.5,5.4c5.1,3.4,8.8,8.1,8.3,12.4
				c-1.3,10-20.9,11-29.4,8.2C2875.6,241.6,2874.2,241.1,2872.9,240.7z"/>
			<path d="M2874.6,155.7c0,5.2-3.5,9.7-6.6,9.7c-4.5,0-6.9-3.9-7.2-8.6c-0.2-4,2-8.6,5.1-9.5C2870,146.2,2874.6,153.3,2874.6,155.7
				z"/>
			<path d="M2866.4,189c4.6-1.9,8.5-4,11.6-6.2l1,1.4c-0.6,0.8-1.7,2.3-2.1,4.1c-5.3,0.6-11.9,3.1-18.6,6.4
				c-5.8,2.9-14.4,10.8-18.8,14.8c3.9,3.6,9,9.6,11.5,13.4c2.9,4.4,6.7,10.9-0.6,16c-1.2,0.8-2.6,1.6-4.4,2.3
				c-10.9,4.5-28.1,0.6-36.8-14.1c-6.5-10.9-5.4-26.9-4.4-34.5C2816.1,210.4,2846.4,197.2,2866.4,189z"/>
			<path d="M2856,172.8c0.2,0.8-0.9,2.3-1.7,2.5c-1.2,0.4-3.3-0.3-3.2-1.6C2851.3,172,2855.5,170.7,2856,172.8z"/>
			<path d="M2825.3,156.8c3.7-0.7,9.2,4.8,8.5,10.9c-0.7,5.8-3.2,8.6-6.6,9.5c-2.8,0.7-6.2-1.1-7.1-6.8
				C2819.2,164.7,2821.1,157.7,2825.3,156.8z"/>
			<path d="M2804.6,135.4c4.6-1.6,10.1-0.8,13-0.2c-3.4,3.3-6.2,7.1-8.2,11.1c-1.8,3.6-3.2,8.3-4.3,13.2c-2.3-1-5.9-3-7.8-6.7
				C2794.1,146.8,2798.1,137.6,2804.6,135.4z"/>
		</g>
		<g>
		</g>
	</g>
	<g id="XMLID_13_">
		<g>
			<path class="st1" d="M3204.7,181.4c1.8,1.9,3.9,5.2,5.7,9.1c-4.2,2.9-8.3,8.2-11.5,13.8c0-0.2,0.1-0.4,0.1-0.5
				c0.9-5.3,1.5-15.3,0.2-26.8C3201.4,178.5,3203.4,180,3204.7,181.4z"/>
			<path class="st1" d="M3166.5,208.8c-1,5.7-2.6,17.8,0.2,24.8c-5.9,2.7-12.8,2.2-17.6,1.4c1.5-2.8,1.8-6.6-0.1-12.1
				c-1.5-4.6-4.9-8.5-7.4-10.8c2.9,0,5.9,0,9.1-0.2C3156.7,211.6,3161.9,210.5,3166.5,208.8z"/>
			<path class="st1" d="M3147.6,207.5c-0.8,1.4,2.1,2.7,3.2,2.4c1.1-0.3,3-1.1,2.7-2.5S3148.1,206.7,3147.6,207.5z M3175.3,204
				c2.5-1.4,7.6-5.2,7.6-10.2c0-3.7-4.5-8.9-9.9-7.8c-5.4,1.1-8.5,9.2-7.3,13.7C3167.1,205.3,3172.8,205.4,3175.3,204z
				 M3188.9,170.5c0.7,1.7,1.2,3.4,1.6,5c2.3,9.6-5.2,26.4-24.1,33.4c-4.6,1.7-9.8,2.8-15.8,3.1c-3.2,0.1-6.2,0.2-9.1,0.2
				c-5.8-0.1-10.8-0.5-15.2-1.3c0.1,0,0.2,0,0.3,0c3.4,0,7.9-3.9,8.8-8.5c0.8-4.5-3.7-10.7-8.5-10.2c-3.9,0.5-8.1,5.1-8.5,9.2
				c-0.5,4.8,2.6,7.8,5.6,8.9c-8.2-2-13.8-5.6-17.1-11.5c-1.8-3.2-3-7.1-3.4-11.7c-0.3-2.7-0.1-6,0.7-9.5c2.2-9.2,8.8-19.7,22.8-25
				c4.3-1.6,9.2-2.7,14.9-3.1c8.5-0.6,15.6-0.1,21.4,1.2c10.8,2.4,17.5,7.5,21.7,13.1C3186.8,166,3188,168.3,3188.9,170.5z"/>
			<path d="M3107,150.3c7.3-5.3,16.2-0.5,20.1,2.2c-14,5.2-20.6,15.8-22.8,25C3101.7,171.9,3096.9,157.6,3107,150.3z"/>
			<path d="M3178.4,143.6c7.1,0,11.8,6.3,10.7,12.1c-0.7,3.9-2.7,6.7-4,8.1c-4.2-5.6-11-10.7-21.7-13.1
				C3165.8,148.8,3172.6,143.6,3178.4,143.6z"/>
			<path d="M3182.9,193.8c0,4.9-5.1,8.8-7.6,10.2s-8.2,1.4-9.6-4.2c-1.1-4.5,2-12.6,7.3-13.7
				C3178.4,184.9,3182.9,190.1,3182.9,193.8z"/>
			<path d="M3153.6,207.4c0.3,1.4-1.6,2.3-2.7,2.5c-1.1,0.3-4.1-1-3.2-2.4C3148.1,206.7,3153.3,205.9,3153.6,207.4z"/>
			<path d="M3127,192.1c4.8-0.6,9.3,5.6,8.5,10.2c-0.9,4.5-5.4,8.5-8.8,8.5c-0.1,0-0.2,0-0.3,0c0,0,0,0,0,0
				c-0.8-0.2-1.6-0.3-2.3-0.5c0,0,0,0,0,0c-3-1.1-6.1-4.1-5.6-8.9C3119,197.2,3123.1,192.6,3127,192.1z"/>
			<path d="M3149.1,235c-1.1,2-2.7,3.4-4.7,4.4c-2.9,1.6-6.9,1.5-12.4-1.1c-3.5-1.7-7.6-4.5-12.3-8.6c-7.1-6.1-10.3-16.3-11.8-24.6
				c-0.4-2.3-0.7-4.5-0.8-6.4c3.3,5.9,8.9,9.5,17.1,11.5c0,0,0,0,0,0c0.8,0.3,1.6,0.5,2.3,0.5c0,0,0,0,0,0c4.4,0.9,9.5,1.3,15.2,1.3
				c2.4,2.4,5.8,6.2,7.4,10.8C3150.9,228.4,3150.6,232.2,3149.1,235z"/>
			<path d="M3132,238.3c-1.3,0.7-4.6,2.1-9.4,0.7c-7.2-2.1-21.6-17.2-14.8-33.9c1.5,8.3,4.7,18.5,11.8,24.6
				C3124.5,233.8,3128.5,236.6,3132,238.3z"/>
			<path d="M3210.4,190.4c4.6,9.6,8.4,23.4,5.8,32.3c-2.1,7.6-6.8,15.6-14.1,15.4c-7.5-0.2-9.6-11.5-9.3-17.9c3.3-6.5,5.4-13,6.1-16
				C3202.1,198.6,3206.2,193.4,3210.4,190.4z"/>
			<path d="M3166.7,233.6c-2.9-6.9-1.2-19.1-0.2-24.8c18.9-7,26.3-23.8,24.1-33.4c-0.4-1.6-0.9-3.3-1.6-5c2.9,1.7,6.9,4,10.3,6.4
				c1.2,11.4,0.7,21.4-0.2,26.8c0,0.2-0.1,0.3-0.1,0.5c-2.6,4.6-4.7,9.4-5.7,13.3c-0.2,0.7-0.3,1.6-0.4,2.7
				c-4.7,9.3-11.6,18.8-19.5,18.5C3170,238.6,3168,236.6,3166.7,233.6z"/>
		</g>
		<g>
		</g>
	</g>
	<g id="XMLID_2_">
		<g>
			<path class="st1" d="M3487.1,198.3c3.9-0.3,8.4-2.6,11.7-4.9c1.3-0.9,2.6-2.1,3.7-3.3c0,3.3-0.2,7.4-0.8,11.9
				c-2.7-1.5-6.7-3.2-11.4-3.6c-1.1-0.1-2.2-0.1-3.2,0L3487.1,198.3z"/>
			<path class="st1" d="M3451.6,218.3c-3.3-0.9-5.9-2-7.8-2.9c2.8-2.4,4.7-5.8,4.7-9.3c-0.1-7.9-4.5-11.9-0.9-17.3
				c3.4-4.9,21.5-13.9,34.5-11.1c-2.2,5.1-4.4,12.1-2.5,16.5c1.5,3.4,4.3,4.5,7.5,4.2l0,0.2c-9.1,0.5-12.3,6.8-14.8,11.9
				c-1.2,2.5-2.1,5.9-2.3,9.5C3462.7,220.5,3456.4,219.6,3451.6,218.3z"/>
			<path class="st1" d="M3408.3,169.5c-0.7-0.6-1.3-1.3-1.7-2c-4-6.5,0.8-13.2,2.2-16.6c0.9-2.2,1.9-7.8,2.4-11.3
				c2.5,0.8,5.2,0.6,6.6,0c4.2-1.9,7.5-7.2,7.2-13.4c-0.1-1.9-1.3-3.6-3.2-4.8c3-2.4,9.4-6.3,20.9-8.3c15.1-2.6,29.7,0,35,1.2
				c-2.4,1.3-4.1,3.4-3.8,6c0.6,4.8,3.7,10.4,10.2,12.1c1.3,0.3,2.4,0.3,3.4,0c1.1,2.6,2.6,6.3,3.1,8.5c0.8,3.5,11.1,9.2,9.5,16.1
				c-0.1,0.3-0.1,0.5-0.2,0.8c-1.4,4.1-6.2,8.4-15,11.8c-6.9,2.7-16.3,4.8-28.5,6C3431.5,178,3414.4,174.9,3408.3,169.5z
				 M3450.6,166.1c0,1.4,2.7,2.1,3.7,2c1.3-0.2,3-1.5,3.1-2.5C3457.5,163.9,3450.6,164.6,3450.6,166.1z M3483.9,157.1
				c1.1-3.4-0.3-9.3-5.9-12.1c-5.6-2.8-9.3,0.7-9.7,5.2c-0.7,7.7,3.2,9.5,6.3,10.6C3478.2,162.1,3482.8,160.5,3483.9,157.1z
				 M3434.5,164.7c2.4-2.2,3.9-9,2.5-13c-1.3-4-7.6-3.4-10.2-0.6c-2.5,2.8-2.7,10.1-0.9,12.2
				C3428.8,166.8,3432.2,166.8,3434.5,164.7z"/>
			<path d="M3470,219.8c0.3-3.6,1.1-7,2.3-9.5c2.6-5,5.7-11.3,14.8-11.9c1-0.1,2-0.1,3.2,0c4.7,0.3,8.8,2.1,11.4,3.6
				c-1,7.7-3.3,16.5-7.9,23.9c-4.8,7.6-11.3,11.9-18.4,9.3C3470.9,233.7,3469.5,226.5,3470,219.8z"/>
			<path d="M3451.6,218.3c0,6.5-1.1,18.5-9.9,21.3c-12.1,4-23.1-6.8-26.7-14.7c-2.6-5.5-3.6-18.7-4-26.1c0.3,0.6,0.6,1.2,0.9,1.7
				c7.1,11.9,16.9,17.4,23.9,17.8c2.8,0.2,5.7-1,8-3C3445.7,216.3,3448.3,217.4,3451.6,218.3z"/>
			<path d="M3443.9,215.4c-2.3,2-5.2,3.2-8,3c-7.1-0.4-16.9-5.9-23.9-17.8c-0.3-0.6-0.6-1.1-0.9-1.7c-4.2-9-3.5-22.6-2.7-29.3
				c6.2,5.3,23.2,8.5,48,6.2c12.2-1.1,21.6-3.3,28.5-6l0.6,1.5c-0.2,0.3-1.7,2.9-3.2,6.3c-13-2.8-31.1,6.2-34.5,11.1
				c-3.7,5.4,0.7,9.4,0.9,17.3C3448.6,209.5,3446.6,213,3443.9,215.4z"/>
			<path d="M3502.5,190.1c-1.1,1.2-2.3,2.4-3.7,3.3c-3.3,2.4-7.8,4.6-11.7,4.9c-3.2,0.2-6-0.8-7.5-4.2c-2-4.4,0.3-11.4,2.5-16.5
				c1.5-3.4,3-6,3.2-6.3l-0.6-1.5c8.8-3.4,13.6-7.7,15-11.8c0.1-0.3,0.2-0.6,0.2-0.8c7.3,1.7,10.2,10,9.5,17.2
				C3508.8,180.1,3506.4,185.9,3502.5,190.1z"/>
			<path d="M3478,145c5.6,2.8,7.1,8.8,5.9,12.1c-1.1,3.4-5.7,5-9.3,3.7c-3.1-1.1-7-2.9-6.3-10.6C3468.7,145.7,3472.3,142.1,3478,145
				z"/>
			<path d="M3450.6,166.1c0-1.5,6.9-2.3,6.8-0.6c-0.1,1-1.8,2.3-3.1,2.5C3453.3,168.2,3450.6,167.6,3450.6,166.1z"/>
			<path d="M3437,151.7c1.3,3.9-0.2,10.8-2.5,13c-2.3,2.1-5.7,2.1-8.6-1.3c-1.8-2.1-1.6-9.4,0.9-12.2
				C3429.4,148.4,3435.7,147.7,3437,151.7z"/>
			<path d="M3421.7,121.6c1.9,1.2,3.1,2.9,3.2,4.8c0.3,6.2-3,11.5-7.2,13.4c-1.4,0.6-4,0.8-6.6,0c-2.7-0.8-5.2-2.6-6.1-6
				c-2.8-10.4,5.3-13.4,8.1-13.8C3416.3,119.4,3419.4,120.1,3421.7,121.6z"/>
			<path d="M3487.3,132.5c-1,0.3-2.1,0.3-3.4,0c-6.5-1.7-9.6-7.3-10.2-12.1c-0.3-2.6,1.4-4.7,3.8-6c2.1-1.1,4.8-1.7,7.2-1.4
				c5.1,0.6,8.2,5.1,7.9,9.3C3492.4,125.8,3491.1,131.3,3487.3,132.5z"/>
		</g>
		<g>
		</g>
	</g>
	<g id="XMLID_1_">
		<g>
			<path class="st1" d="M3753.8,154c0.1,1.1,2.6,1.6,3.4,1.4c0.7-0.2,1.9-1.4,1.8-2.4C3758.8,151.3,3753.7,152.3,3753.8,154z
				 M3784.3,123.8c1.1,3.1,1.5,5.6,3.4,7.9c3.4,3.9,7.1,9.8,6.9,17c0,1.1-0.2,2.2-0.4,3.3c-1.7,8.8-20.2,19.7-40.1,20.6
				c-17.7,0.8-33.1,0.3-41.6-10.3c-1-1.3-2-2.7-2.8-4.3c-2.2-4.4-2.3-14.1,1.1-23.5c2.5-7.2,7.1-14.3,14.1-18.9
				c0.1-0.1,0.3-0.2,0.4-0.3c9.5-6,25.7-9.4,38-7.7c5.2,0.7,9.7,2.3,12.7,5C3781.2,117,3783.1,120.7,3784.3,123.8z M3783.2,146.4
				c1.1-3.4,1.3-7.3-2.3-12.1c-3.7-4.8-10-3.4-12.1,2.5c-1.3,3.8-1.4,8.5,2.8,12.4C3775.6,152.9,3782.1,149.8,3783.2,146.4z
				 M3734.3,157c3.8-3.4,5.7-10.4,3.8-15.4c-2-5.1-5.6-5.8-8.8-4.8c-5.1,1.7-9.1,10.6-7.4,17.4C3723.5,161,3733.1,158,3734.3,157z"
				/>
			<path class="st1" d="M3749,223.5c-4.3-0.4-9.2-1.3-14.8-3.3c-7.7-2.7-12.2-7.3-14.9-11.7c-1.1-1.9-1.9-3.7-2.4-5.3
				c0.7,0,1.4,0,2.2-0.1c14.7-2,11.3-12.1,17.2-16.9c5.9-4.8,18.7-8.6,29.1-9.9c12-1.4,23.2-1.4,28,0.8c4.7,2.2,7.5,10.2,12.5,8.3
				c-0.3,4.8-1.6,11.8-5.8,18c-3.4-2.4-8-1.9-10.3-0.3c-5.9,4-8.8,8.1-9.9,11.9c-2.1,1.7-5.1,3.6-9.6,5.2
				C3765.2,222.1,3758.5,224.3,3749,223.5z"/>
			<path d="M3778.1,102.6c7.3,0.3,12.6,6.6,12.1,11c-0.5,4.6-4,8.4-6,10.2c-1.1-3.1-3-6.8-8.1-11.3c-3-2.7-7.5-4.3-12.7-5
				C3766,105.9,3772.4,102.4,3778.1,102.6z"/>
			<path d="M3711.2,110.5c5.1-1.3,10.7,2.5,13.8,5c-7.1,4.6-11.6,11.7-14.1,18.9c-4.4-3.2-6.5-8.8-6.5-12.8
				C3704.3,116.8,3706.9,111.6,3711.2,110.5z"/>
			<path d="M3738,141.6c2,5.1,0,12-3.8,15.4c-1.1,1-10.7,4-12.4-2.8c-1.7-6.8,2.3-15.7,7.4-17.4
				C3732.4,135.7,3736.1,136.5,3738,141.6z"/>
			<path d="M3759,153.1c0.1,0.9-1.1,2.2-1.8,2.4c-0.8,0.2-3.3-0.3-3.4-1.4C3753.7,152.3,3758.8,151.3,3759,153.1z"/>
			<path d="M3780.9,134.2c3.7,4.8,3.5,8.8,2.3,12.1c-1.1,3.4-7.6,6.6-11.6,2.8c-4.2-4-4.1-8.7-2.8-12.4
				C3770.9,130.8,3777.2,129.4,3780.9,134.2z"/>
			<path d="M3800,203.4c1.5,1,2.7,2.6,3.5,4.8c2.5,7.3,2.6,16.6-2.6,24.5c-2.9,4.4-15.2,3.8-18.4-2.3c-1.7-3.1-4.6-8.9-2.6-15.4
				c1.1-3.9,4-8,9.9-11.9C3792,201.6,3796.6,201.1,3800,203.4z"/>
			<path d="M3749,223.5c-0.8,4.6-2.6,10.7-6.8,14.9c-3,3-12.2,4.9-17-2.2c-4.5-6.6-8.4-15.6-5.8-27.7c2.7,4.4,7.2,9.1,14.9,11.7
				C3739.8,222.2,3744.7,223.2,3749,223.5z"/>
			<path d="M3805.8,185.4c-4.9,1.9-7.7-6-12.5-8.3c-4.8-2.3-16-2.3-28-0.8c-10.4,1.2-23.2,5.1-29.1,9.9c-5.9,4.8-2.5,15-17.2,16.9
				c-0.8,0.1-1.5,0.2-2.2,0.1c-12.5-0.2-12.4-18.3-10.6-25.5c1.3-5,4.2-11.5,6.2-15.4c8.5,10.7,23.9,11.2,41.6,10.3
				c19.9-0.9,38.4-11.9,40.1-20.6c0.2-1.1,0.3-2.2,0.4-3.3c2.2,1.3,6.9,4.5,10.1,10.2c4.2,7.6,6.5,24.2,1.4,26.4
				C3806,185.4,3805.9,185.4,3805.8,185.4z"/>
		</g>
		<g>
		</g>
	</g>
</g>
</svg>
