<?xml version="1.0" encoding="utf-8"?>
<!-- Generator: Adobe Illustrator 25.2.3, SVG Export Plug-In . SVG Version: 6.00 Build 0)  -->
<svg version="1.1" id="Layer_2" xmlns="http://www.w3.org/2000/svg" xmlns:xlink="http://www.w3.org/1999/xlink" x="0px" y="0px"
	 width="3900px" height="300px" viewBox="0 0 3900 300" style="enable-background:new 0 0 3900 300;" xml:space="preserve">
<style type="text/css">
	.st0{fill:#FFFFFF;}
	.st1{fill:#FCBBC3;}
</style>
<g id="XMLID_1_">
	<g>
		<path class="st0" d="M104.6,127.8c-4.8-2.3-7.9-5.4-8.9-9c-3-10.4,3.3-24.7,6.1-30.2c5.3,2,19-7,21.6-20.4
			c0.4-2.2-0.2-4.2-1.5-5.8c5.1-2.9,20-10.2,36.2-7.3c4.1,0.7,7.6,1.6,10.6,2.7c9.2,3.2,13.5,7.7,16.1,13.5
			c1.9,4.3,2.4,7.9,2.8,10.6c0.2,2,0.4,3.6,1,4.8c3,6,8.3,8.3,6.8,19.2c-0.6,4-2.5,8.6-6.4,12.8c-6.6,7.2-18.6,13.5-38,14.7
			C130.3,134.5,114.1,132.5,104.6,127.8z M185.1,106c1.9-2.3,1.9-10.4-1.1-14.1c-3-3.8-9-5.6-12-3c-3,2.6-2.6,14.8,0.2,18.1
			C176.6,112.2,183.2,108.2,185.1,106z M154.1,119c2.5-0.1,5-2.4,4.8-4.2c-0.2-2-8.8-1.1-9.9,1C148.3,117.3,151.9,119.1,154.1,119z
			 M132,113c4.1-3.4,3.6-11.3,1.3-16.6c-2.3-5.3-9.2-6.4-12.6-2.3c-3.4,4.1-6.1,14.7-3,18.4C121.1,116.7,127.9,116.3,132,113z"/>
		<path class="st0" d="M95.1,189.5c0.1-5.7,0.3-10.9,0.4-14.8c11.6-3.4,22.1-18.5,26.9-21.6c11.9-7.7,19.1-8,32.4-8.5
			c17.1-0.6,30.5,0.9,40.5,7.2c4.5,2.8,5.4,11.6,10.8,14.6c-0.4,2.5-0.9,4.8-1.6,7.2c-2.6,9-7.7,17.6-20.6,28.3
			c-3.5,2.9-7.5,4.9-11.7,6.4c-10.6,3.7-22.3,3.6-29.9,2.9c0.1-0.5,0.1-1,0.1-1.4C142.9,203,127.5,186.8,95.1,189.5z"/>
		<path d="M96.2,221c-1.1-9-1.3-21.2-1.2-31.5c32.4-2.6,47.8,13.5,47.5,20.2c0,0.4-0.1,0.9-0.1,1.4c-1.4,12.5-14.3,35.9-25.8,36.6
			C104.5,248.5,97,226.7,96.2,221z"/>
		<path d="M204.5,173.5c3.5,12.2,2.6,32.2-10.8,40.1c-9.4,5.6-17-0.1-21.5-5.5c4.2-1.5,8.2-3.5,11.7-6.4
			C196.9,191.1,202,182.6,204.5,173.5z"/>
		<path d="M158.9,114.8c0.2,1.9-2.3,4.1-4.8,4.2c-2.3,0.1-5.8-1.7-5.1-3.2C150.1,113.7,158.7,112.8,158.9,114.8z"/>
		<path d="M133.3,96.4c2.3,5.3,2.8,13.2-1.3,16.6c-4.1,3.4-10.9,3.8-14.3-0.4c-3-3.7-0.4-14.3,3-18.4
			C124.1,90,131.1,91.1,133.3,96.4z"/>
		<path d="M101.8,88.6c-0.1,0-0.2-0.1-0.3-0.1c-5.6-2.6-9.4-15.2,0-24.1c8.2-7.7,16.8-6.4,20.3-2.1c1.3,1.6,1.9,3.7,1.5,5.8
			C120.8,81.6,107.1,90.6,101.8,88.6z"/>
		<path d="M187.4,52.7c9.7,5.1,10.2,19.7,0.1,29.1c-0.3-2.8-0.8-6.3-2.8-10.6c-2.6-5.8-7-10.3-16.1-13.5
			C171.1,54.2,177.6,47.6,187.4,52.7z"/>
		<path d="M184,91.9c3,3.8,3,11.9,1.1,14.1c-1.9,2.2-8.5,6.2-13,0.9c-2.8-3.2-3.2-15.4-0.2-18.1C174.9,86.2,180.9,88.1,184,91.9z"/>
		<path d="M206.1,166.4c-5.4-3-6.3-11.8-10.8-14.6c-10-6.3-23.3-7.7-40.5-7.2c-13.3,0.4-20.5,0.8-32.4,8.5
			c-4.8,3.1-15.3,18.3-26.9,21.6c-4,1.2-8.2,0.9-12.3-1.7c-9.1-5.8,9.3-35.2,21.3-45.2c9.5,4.7,25.7,6.7,46.2,5.4
			c19.5-1.2,31.5-7.5,38-14.7c5.2,1.7,13.2,4.7,18.4,9c12.6,10.5,18.4,36.3,6,39.3C210.2,167.7,207.9,167.4,206.1,166.4z"/>
	</g>
	<g>
	</g>
</g>
<g id="XMLID_2_">
	<g>
		<path class="st0" d="M505.5,166.2C505.5,166.3,505.5,166.3,505.5,166.2c-0.7,9.2-3.1,20-10,27.8c-7.5,8.5-15.4,13.3-23.1,15.9
			c-11.3,3.8-22.3,2.9-31.2,2c0.6-2.3,1-4.9,1.2-7.8c1.1-14.3-10.9-22.3-18.9-25.9c5.7-6.6,10.1-14.8,13-18.4
			c5.5-6.9,20.1-10.8,30.8-12.1c16.4-2,30.1,4.1,38.5,12.1C505.7,161.8,505.7,164,505.5,166.2z"/>
		<path class="st0" d="M497.5,130c-6.6,5.8-19.7,9.5-43.8,11c-22.4,1.4-39.2-0.6-48.8-5.4c-4.1-2-6.9-4.6-8.2-7.6
			c-5.2-11.8,2-18.9,4.8-22.9c1.8-2.5,4.7-6.1,6.6-8.3c6.3,0.3,19.5-9.1,18.5-16.8c-0.2-1.2-0.5-2.3-1-3.3
			c3.6-2.9,12.4-8.2,27.9-8.2c6.9,0,12.8,1.6,17.8,4.2c9.3,4.8,15.4,12.8,19.1,19.2c2.3,4,3.6,7.3,4.3,9.1
			c2.2,5.9,10.7,14.3,7.3,22.9C501.1,126.1,499.7,128.1,497.5,130z M486.7,114.2c1.9-6.4-4.5-17.5-11.3-16.7
			c-6.5,0.8-7.4,9.6-7.9,15.2c-0.6,5.7,4.2,9.6,9,9.6C481.4,122.4,485.3,119,486.7,114.2z M453.6,124.3c0.9,0,4-1.4,3.7-3.1
			c-0.2-1.1-6.9-1.2-7.5,0.4C449.3,122.9,452.7,124.3,453.6,124.3z M436.5,114.5c2.8-5.7,1.6-16.2-4.8-17.5c-5.4-1.1-10.7,5.7-13,9
			c-2.3,3.4-4,12.1,3.1,15S433.7,120.1,436.5,114.5z"/>
		<path d="M457.2,121.2c0.3,1.7-2.8,3.1-3.7,3.1c-0.8,0-4.2-1.4-3.8-2.7C450.3,120,457,120.1,457.2,121.2z"/>
		<path d="M425.6,76.7c0.5,1,0.9,2.1,1,3.3c1,7.7-12.2,17.2-18.5,16.8c-0.8-0.1-1.6-0.3-2.1-0.7c-4.5-3.7-7.6-18.9,0.6-24.3
			C412.7,67.8,422.3,70.3,425.6,76.7z"/>
		<path d="M493.2,82.3c0.3,3.5-1.3,7.1-2.9,9.6c-3.7-6.4-9.8-14.4-19.1-19.2c2.9-1.5,7.7-3.5,11.6-2.8
			C488.7,71,492.8,76.9,493.2,82.3z"/>
		<path d="M475.5,97.5c6.8-0.8,13.2,10.2,11.3,16.7c-1.4,4.8-5.4,8.2-10.2,8.2c-4.8,0-9.6-4-9-9.6C468.1,107.1,469,98.3,475.5,97.5z
			"/>
		<path d="M431.7,97c6.4,1.3,7.6,11.9,4.8,17.5c-2.8,5.6-7.6,9.3-14.7,6.5s-5.4-11.6-3.1-15C421,102.6,426.3,95.8,431.7,97z"/>
		<path d="M505.7,159.8c-8.4-8-22.1-14.1-38.5-12.1c-10.7,1.3-25.3,5.3-30.8,12.1c-2.9,3.6-7.3,11.8-13,18.4
			c-5.5,6.4-12.1,11.2-19.5,8.7c-0.8-0.3-1.6-0.6-2.3-1c-9-5-5.2-18.1-3.4-28.1c1.4-7.5,4.7-17.1,6.5-22.3
			c9.6,4.8,26.4,6.7,48.8,5.4c24.1-1.5,37.3-5.2,43.8-11c3.7,4.3,11.6,14.1,15.2,24c3.1,8.7,4.4,19.9-5.7,25.1
			c-0.2-4.2-0.7-8.5-1.5-12.8c0,0,0,0,0,0C505.7,164,505.7,161.8,505.7,159.8z"/>
		<path d="M507,179.1c0.9,21.9-6.6,39.4-19.1,40.1c-9.1,0.5-13.5-4.8-15.5-9.2c7.8-2.6,15.6-7.4,23.1-15.9c6.9-7.8,9.3-18.6,10-27.8
			C506.3,170.6,506.8,174.9,507,179.1z"/>
		<path d="M441.2,212c-3.7,14.8-13.9,18.7-21.6,17.9c-8.2-0.8-12.4-5.9-16.1-18.6c-2.2-7.5-2.1-18.2-1.7-25.3c0.7,0.4,1.4,0.7,2.3,1
			c7.4,2.5,14-2.3,19.5-8.7c8,3.7,20.1,11.7,18.9,25.9C442.2,207.1,441.8,209.7,441.2,212z"/>
	</g>
	<g>
	</g>
</g>
<g id="XMLID_3_">
	<g>
		<path class="st0" d="M808.2,167.5c-0.8,8.9-3.5,17.5-9.7,23.2c-6.5,6-14.3,12.2-23.2,16.4c-10.5,5-22.6,7.2-35.8,3.3
			c2.6-4.1,3.7-8.8,4-12.6c0.4-7.2-6-13.5-10.7-17.1c3.1-6.8,4.7-15.7,7.6-20.8c4.8-8.5,17-15.4,27.4-15.8
			c15.7-0.5,32.2,7,40.7,16.5C808.4,162.9,808.4,165.2,808.2,167.5z"/>
		<path class="st0" d="M705.3,128.5c-3.3-2.1-5.8-4.7-7.4-7.8c-5.7-11.3,0-21.5,2.3-24.6c1.5-2.1,2.6-5.4,3.2-7.4
			c2.8,0.7,5.6-0.1,7.2-0.2c3.4-0.3,16.4-9.9,13.6-23.2c-0.2-0.9-1.1-2-2.5-3c3.3-3.1,11.6-9,28.2-9.4c6.9-0.2,12.7,1.2,17.5,3.5
			c13.2,6.4,18.7,19.5,19.5,23.8c0.3,1.5,1.1,3.1,2.2,4.8c3.2,5,8.4,11.1,8,20.4c-0.2,4.9-1.4,9.6-4.8,13.7
			c-5.1,6.4-15.2,11.4-34.2,14C734.3,136.3,715.7,135,705.3,128.5z M786,107.7c3.3-2.9,2.8-11.6-2.3-17.2c-5.1-5.7-11-1.2-12.6,1.4
			c-1.7,2.8-2,11.9,1.3,15.5C775.1,110.4,782.1,111.1,786,107.7z M754.1,119c2,0,4-2.8,3.7-4.2c-0.3-1.4-7.8-0.8-8,0.4
			C749.5,116.6,752.2,119,754.1,119z M729.8,113.1c3-3.8,5.2-10.4,2.4-16.9c-2.8-6.5-10.6-2-12.6,0.4c-3.1,3.7-5.6,11-2.5,16.7
			C720.2,118.8,727,116.7,729.8,113.1z"/>
		<path d="M739.4,210.4c-3,4.7-7.8,8.5-15.2,8.8c-13.8,0.6-17.2-8.5-19.8-16.7c-1.6-5.2-0.9-20.5-0.5-27.6c3.1,8.1,9,15.4,17.5,15.2
			c5.5-0.1,8.9-4.2,11.3-9.5c4.7,3.6,11.2,9.9,10.7,17.1C743.2,201.6,742,206.3,739.4,210.4z"/>
		<path d="M808.2,167.5c2.8,7.3,4.8,20.2,3.9,29.1c-0.7,6.8-1.4,28.2-15.8,30.2c-10.9,1.5-18.1-12.7-20.9-19.7
			c8.9-4.2,16.7-10.4,23.2-16.4C804.7,185,807.4,176.4,808.2,167.5z"/>
		<path d="M732.7,180.7c-2.4,5.3-5.8,9.4-11.3,9.5c-8.5,0.2-14.3-7.1-17.5-15.2c-1.6-4.1-2.4-8.3-2.6-11.9
			c-0.6-14.5,2.3-28.1,4-34.5c10.4,6.5,29,7.8,52.8,4.6c19-2.6,29.1-7.6,34.2-14c3.5,2.7,9.1,8.1,12.1,16.8c1.8,5,3.9,14.6,4,24.7
			c-8.5-9.6-25-17.1-40.7-16.5c-10.4,0.4-22.6,7.3-27.4,15.8C737.4,165,735.8,173.9,732.7,180.7z"/>
		<path d="M785.5,52.9c7.9,3.1,11.6,12.4,9.9,19.2c-1.1,4.4-4.2,9.7-6.3,12.9c-1.1-1.7-1.9-3.3-2.2-4.8c-0.8-4.4-6.3-17.5-19.5-23.8
			C770.9,54.5,779.4,50.5,785.5,52.9z"/>
		<path d="M783.8,90.5c5.1,5.6,5.6,14.3,2.3,17.2c-4,3.4-10.9,2.7-13.6-0.3c-3.2-3.7-3-12.7-1.3-15.5
			C772.8,89.3,778.7,84.8,783.8,90.5z"/>
		<path d="M757.8,114.8c0.3,1.4-1.7,4.2-3.7,4.2c-2,0-4.7-2.4-4.4-3.8C750,113.9,757.5,113.3,757.8,114.8z"/>
		<path d="M732.2,96.1c2.8,6.5,0.6,13.1-2.4,16.9c-2.8,3.6-9.6,5.8-12.7,0.1c-3.1-5.6-0.5-12.9,2.5-16.7
			C721.7,94.1,729.4,89.6,732.2,96.1z"/>
		<path d="M721.7,62.3c1.4,1,2.3,2.1,2.5,3c2.8,13.3-10.2,22.9-13.6,23.2c-1.7,0.1-4.5,1-7.2,0.2c-2.9-0.7-5.7-3.1-7.2-9.6
			c-2.8-12.7,7-19.9,11.3-20.6C712.3,57.8,718.3,59.9,721.7,62.3z"/>
	</g>
	<g>
	</g>
</g>
<g id="XMLID_4_">
	<g>
		<path class="st1" d="M1042.6,109.3c2.9-0.2,6.2,0.5,6.1,6c-0.1,4.5-3.5,8.5-6.9,8.5c-3.4,0-5.4-2.3-5.1-6.2
			C1037,114.7,1038.9,109.6,1042.6,109.3z"/>
		<path class="st0" d="M1014.5,75.8c5.6-4,13.2-7.1,23.4-7.6c7.2-0.4,12.8,0.1,17.4,1.1c13,2.8,17.3,10,23.6,14.2
			c0.6,0.4,1.4,0.9,2.2,1.3c5.1,2.9,13.5,7.2,15.3,13.1c0.3,1,0.6,2.2,0.9,3.5c2.1,10.7,0.4,28.5-33,36.4
			c-23.2,5.5-39.5,5.5-47.7,1.5c-6.3-3-19.9-12.8-28.8-15.6c-0.6-2.7-1.1-6.7-0.3-11.2c0.9-4.9,6-8.3,9.1-11.6
			c0.7-0.8,1.3-1.5,1.7-2.3C999.6,95.8,1003.1,83.9,1014.5,75.8z M1073.5,96.7c0.8-4-1.1-11.2-6.5-14c-5.4-2.8-9.2,2.1-10,4.5
			c-1.1,3.4-0.9,11.3,4.1,14.1C1067.5,104.9,1072.6,100.6,1073.5,96.7z M1048.7,115.3c0.1-5.5-3.2-6.2-6.1-6
			c-3.7,0.3-5.6,5.4-5.8,8.3c-0.3,3.9,1.7,6.2,5.1,6.2C1045.2,123.8,1048.6,119.8,1048.7,115.3z M1043.5,106c1.4-0.3,3.2-2,2.8-3.7
			c-0.5-2.3-6.2,0-6.7,1C1038.8,105.3,1042.1,106.3,1043.5,106z M1022.1,114.2c4.4-5.4,2.9-13.6,1.1-17.2c-1.6-3.1-5.1-4.2-9.1-1.5
			c-5.1,3.4-6.9,13.9-4.3,17.9C1012.3,117.3,1018.4,118.7,1022.1,114.2z"/>
		<path class="st0" d="M1105.7,157.1c1.3,2.1,2.2,6.1,2.8,9.1c-16.9-1.7-25.1,10.7-25.4,18.3c-0.1,3.5,1.1,6,3.3,7.7
			c-3.7,4.3-10.5,11-19.4,13.3c-9.1,2.4-17.7,2.4-23.9,1.8c0.9-7.5-1.1-19.1-13.4-20.9c-10.5-1.5-22.6,2.6-29.2,5.3
			c0.7-6.6,2-13.9,1.9-17.5c9-6.7,31.6-22.1,50.4-25.4c20.2-3.6,38.6-2.8,47.5-2C1101.4,150,1104.1,154.5,1105.7,157.1z"/>
		<path d="M1043.1,207.3c-0.2,1.6-0.5,3-0.9,4.1c-2.3,6.2-9.1,22.2-25.2,20.5c-16.1-1.7-16.9-24.2-16.9-32.4c0-2.2,0.2-4.9,0.5-7.7
			c6.6-2.8,18.7-6.9,29.2-5.3C1042,188.2,1044,199.9,1043.1,207.3z"/>
		<path d="M1108.5,166.2c0.2,0,0.3,0,0.5,0.1c17.2,2,18,10.6,18.3,16c0.3,5.4-6,12.7-18.4,13.6c-8.5,0.6-17.7,0.3-22.4-3.6
			c-2.2-1.8-3.4-4.2-3.3-7.7C1083.4,176.9,1091.6,164.5,1108.5,166.2z"/>
		<path d="M987.6,123.8c8.9,2.8,22.5,12.5,28.8,15.6c8.2,4,24.6,4,47.7-1.5c33.4-7.9,35.1-25.8,33-36.4c2.5-3.1,6.8-7.2,11.4-7.1
			c7.3,0.3,13.1,3.1,11.1,22c-2,18.9-18.5,25.5-19.7,27.5c-0.3,0.6-0.2,1.7,0.3,3.1c-8.9-0.8-27.2-1.6-47.5,2
			c-18.8,3.4-41.4,18.8-50.4,25.4c0-0.6,0-1.1-0.1-1.4c-0.8-4-10.4-11-18.9-22.3c-8.5-11.3-8.1-24.1-2.3-27.1
			C982.7,122.7,984.9,122.9,987.6,123.8z"/>
		<path d="M1081.9,71.6c1,5.2-0.1,10.5-0.9,13.2c-0.8-0.5-1.6-0.9-2.2-1.3c-6.3-4.2-10.6-11.4-23.6-14.2c2-2.7,6.8-8.3,13.4-7.8
			C1077.4,62,1081,66.5,1081.9,71.6z"/>
		<path d="M1067,82.7c5.4,2.8,7.3,10.1,6.5,14c-0.8,3.9-5.9,8.2-12.3,4.6c-5.1-2.8-5.3-10.7-4.1-14.1
			C1057.8,84.8,1061.6,79.8,1067,82.7z"/>
		<path d="M1046.4,102.3c0.4,1.7-1.4,3.4-2.8,3.7c-1.4,0.3-4.7-0.7-3.9-2.6C1040.1,102.3,1045.8,100,1046.4,102.3z"/>
		<path d="M1023.2,97c1.8,3.6,3.3,11.9-1.1,17.2c-3.7,4.5-9.8,3.1-12.3-0.8c-2.5-4-0.8-14.5,4.3-17.9
			C1018.1,92.8,1021.7,93.8,1023.2,97z"/>
		<path d="M1014.5,75.8c-11.4,8.1-14.9,20-16.4,22.8c-0.4,0.8-1,1.5-1.7,2.3c-2.3-1.9-5.6-5.2-6.2-9.1c-1.5-9,4.3-17.6,12-18.4
			C1007,72.9,1011.5,74.4,1014.5,75.8z"/>
	</g>
	<g>
	</g>
</g>
<g id="XMLID_5_">
	<g>
		<path class="st1" d="M1346.7,106.4c4.1-0.6,6.7,2.4,6.4,5.5c-0.4,3.9-3.8,8.1-7.9,8.3c-3,0.1-7-0.8-6.2-5.5
			C1339.6,111.4,1342.6,106.9,1346.7,106.4z"/>
		<path class="st0" d="M1301.8,105.7c1.3-1.3,2.5-2.4,3.5-3.3c1.8-1.7,4.8-6.5,10.2-11c0.7,0.7,1.1,1.2,1.1,1.2l1.4,2.4
			c-3.7,1.8-6.6,6.2-7.1,9.9c-0.2,1.8,0.1,3,0.5,3.9c-5.7,3.1-11,8-14.6,14.9c-0.8,1.5-1.5,3.1-2.1,4.9c-1-1.6-2.3-4.3-2-8.4
			C1292.9,114.9,1297.8,109.6,1301.8,105.7z"/>
		<path class="st0" d="M1356.3,83.2c11.7,3.1,15.8,9.9,17.5,10.7c1.2,0.6,2.8,1.2,4.4,2.2c2,1.1,4.1,2.7,5.7,5.4
			c-2.3,2.2-4.4,4.6-6.1,6.8c-5.3,6.8-6.6,17.7-8.1,20.1c-1.5,2.4-3.8,5.8-17.9,8.8c-9.8,2.1-19.8,1.8-25.1,1.5
			c2.7-4.4,6.3-11.3,6.9-16.9c0.8-7.5,1.1-16.7-9.1-16.7c0.4-1.3,0.8-2.8,0.7-4.4c-0.1-2.2-0.4-7.2-5.1-6.4
			c-0.7,0.1-1.5,0.3-2.1,0.7l-1.4-2.4c0,0-0.4-0.5-1.1-1.2c5.6-4.8,13.8-9.3,26-9.7C1347.4,81.5,1352.3,82.1,1356.3,83.2z
			 M1367.8,100.6c2.4-2.8,0.8-5.8-1-7.8c-1.8-2.1-6.1-2.9-8.5-1.5c-1.7,1-2.9,4.4-0.9,7.7C1359.5,102.5,1365.8,103.1,1367.8,100.6z
			 M1353.1,111.8c0.3-3.1-2.3-6-6.4-5.5c-4.1,0.6-7.1,5-7.7,8.2c-0.8,4.7,3.2,5.6,6.2,5.5C1349.3,120,1352.7,115.7,1353.1,111.8z
			 M1344.3,103.3c0.9-0.2,2.8-1.1,2.4-2.4c-0.5-1.6-5-1.1-5.3,0.2C1341.1,102.6,1343.4,103.5,1344.3,103.3z"/>
		<path class="st0" d="M1407.2,174.7c-4.1,9.4-10.8,18.3-24.4,26c-14.3,8.1-30.3,6.6-36.3,5.6c0,0,0-0.1,0-0.1
			c0.9-6.4-1.1-28.8-17.1-28.4c-14.7,0.3-20.6,5.5-25.1,17.8c-1.3-7.8,0.4-17.2-0.2-21.2c-0.1-0.8-0.3-1.5-0.6-2.2
			c7.4-6.5,25.1-20.4,43-24.3c16.2-3.5,29.1-3.5,35.7-3.2c-1.2,2.1-2.2,4.7-2.8,8.1c-1.4,8.6-1.2,18.4,6.1,23.5
			C1391.1,180.2,1398.4,180.7,1407.2,174.7z"/>
		<path d="M1307.2,88.9c4-0.9,6.8,1.1,8.3,2.5c-5.3,4.5-8.4,9.3-10.2,11c-0.9,0.9-2.2,2-3.5,3.3c-1.2-1.3-2.6-3.3-2.9-5.9
			C1298.3,94.7,1302.3,89.9,1307.2,88.9z"/>
		<path d="M1325.2,100.7c0.1,1.6-0.3,3.2-0.7,4.4c-0.2,0-0.4,0-0.6,0c-4,0.2-8.3,1.4-12.5,3.6c-0.4-0.9-0.7-2.2-0.5-3.9
			c0.5-3.7,3.3-8.1,7.1-9.9c0.7-0.3,1.4-0.5,2.1-0.7C1324.9,93.6,1325.1,98.5,1325.2,100.7z"/>
		<path d="M1346.7,100.9c0.4,1.3-1.4,2.2-2.4,2.4c-0.9,0.2-3.2-0.7-2.9-2.2C1341.7,99.8,1346.2,99.3,1346.7,100.9z"/>
		<path d="M1378.5,85.1c1.4,4,0.4,8.7-0.3,11c-1.6-0.9-3.2-1.5-4.4-2.2c-1.7-0.9-5.8-7.6-17.5-10.7c2.4-1.3,7.7-4,11.3-4.1
			C1371,78.9,1376.6,79.6,1378.5,85.1z"/>
		<path d="M1366.8,92.8c1.8,2,3.4,5,1,7.8c-2.1,2.4-8.3,1.8-10.4-1.6c-2-3.3-0.8-6.7,0.9-7.7C1360.8,89.9,1365,90.8,1366.8,92.8z"/>
		<path d="M1324.5,105.1c10.2-0.1,10,9.2,9.1,16.7c-0.6,5.6-4.3,12.5-6.9,16.9c5.3,0.3,15.3,0.6,25.1-1.5c14.1-3,16.4-6.4,17.9-8.8
			c1.5-2.4,2.8-13.4,8.1-20.1c1.7-2.2,3.8-4.6,6.1-6.8c4.7-4.5,10.2-7.9,14.6-6.8c6.6,1.7,7.4,13.1,5.3,22.2
			c-1.5,6.8-3.8,12.1-5.2,15.2c-3.4,0.8-6.4,2.4-8.2,4c-2.5,2.3-5.8,4.3-8.2,8.5c-6.5-0.3-19.5-0.3-35.7,3.2
			c-17.9,3.9-35.5,17.8-43,24.3c-1.4-3.3-4.5-6.1-8.2-15.4c-3.7-9.3-3.3-20-0.5-28.2c0.6-1.8,1.3-3.4,2.1-4.9
			c3.7-6.8,9-11.8,14.6-14.9c4.2-2.3,8.5-3.5,12.5-3.6C1324.1,105.1,1324.3,105.1,1324.5,105.1z"/>
		<path d="M1398.5,132.1c3.9-1,8.3-1,11.9,1.2c5.1,3,4.8,15.2,1,28.9c-1.1,4.2-2.4,8.4-4.2,12.5c-8.8,6-16.1,5.5-21.8,1.6
			c-7.3-5.1-7.5-14.9-6.1-23.5c0.6-3.4,1.5-6.1,2.8-8.1c2.4-4.2,5.7-6.2,8.2-8.5C1392.1,134.5,1395.1,132.9,1398.5,132.1z"/>
		<path d="M1346.5,206.3c-0.9,6.4-3.1,14.5-13.9,15.5c-10.9,0.9-24.4-14.2-27.2-22.4c-0.4-1.2-0.7-2.4-0.9-3.8
			c4.5-12.4,10.3-17.5,25.1-17.8c16-0.4,18,22,17.1,28.4C1346.5,206.2,1346.5,206.2,1346.5,206.3z"/>
	</g>
	<g>
	</g>
</g>
<g id="XMLID_6_">
	<g>
		<path class="st0" d="M1685.1,162.6c7.2,2.3,13.8-1,19-7.1c0,15.6-6.7,50.5-50.4,50.4c-53.8-0.2-54-26.2-55.3-33.9
			c-1-5.7-0.2-16.5,0.5-23.6c1.9,10.5,7.3,18.2,11.3,19.2c15.2,3.8,26.2-9,32-24.5c1.6-4.3,2.6-8.8,2.9-13.2
			c5.1-2.1,15.9-5.6,28.9-3.5c0,0,0,0.1,0,0.1C1669.5,142.1,1675.7,159.7,1685.1,162.6z"/>
		<path d="M1674.1,126.6c3.4-11.6,15.4-23.1,28.6-19.9c11.3,2.8,14.2,20.1,9.2,34.6c-1.8,5.3-4.5,10.3-7.8,14.2
			c-5.1,6.1-11.7,9.4-19,7.1C1675.7,159.7,1669.5,142.1,1674.1,126.6C1674,126.7,1674,126.7,1674.1,126.6z"/>
		<path d="M1645.1,130.1c-0.3,4.4-1.3,8.9-2.9,13.2c-5.8,15.4-16.8,28.2-32,24.5c-4.1-1-9.4-8.8-11.3-19.2c-1.5-7.9-1-17.3,3.2-26.5
			c8.2-17.8,25.2-19.8,34.4-17.1C1642.5,106.6,1646.2,117.8,1645.1,130.1z"/>
	</g>
	<g>
	</g>
</g>
<g id="XMLID_7_">
	<g>
		<path class="st0" d="M1952.4,130.1c22.6-1.7,37.1,4.2,45.2,9.4c2.9,8,5.7,18.5,5.4,27.8c-0.2,0.2-0.4,0.5-0.6,0.7
			c-3.3,4.2-17.3,16.2-39.2,19c-30.1,3.9-41.8-3.6-48.9-5.8c-3-0.9-6.1-1.9-9-2.8c-2.2-3.2-4.1-6.4-5.9-9.7
			c2.1-6.3,9.1-23.2,27.4-32.3c5.1-2.6,11.1-4.5,18-5.5C1947.5,130.5,1950,130.2,1952.4,130.1z"/>
		<path d="M1911,122.2c6.5,3.7,12.3,9.8,15.9,14.1c-18.3,9.2-25.3,26-27.4,32.3c-5.8-10.8-9.2-21.9-8.6-30.6
			C1891.8,123.5,1900.1,116,1911,122.2z"/>
		<path d="M1994.6,131.8c0.9,2.1,2,4.7,3,7.6c-8.1-5.2-22.6-11-45.2-9.4c-2.9-3.2-6.3-8.3-5.6-13.9c1.1-9.4,6.6-15.2,16.2-12.6
			C1972.6,106.2,1990.3,122,1994.6,131.8z"/>
		<path d="M2018.9,160.2c4.5,3.2-4,17.4-8.7,21.6c-7.1,6.4-13.5,7.9-19.7,8.3c4.9-3.6,9.1-8.1,11-13.8c1-2.8,1.4-5.9,1.5-9.2
			C2007.4,162,2014.3,156.9,2018.9,160.2z"/>
		<path d="M1940.1,201.1c-5,0.6-13.4,1.1-22.8-0.2c-15.4-2.1-24.7-10-26.5-16.2c-1.9-6.2-0.2-8.7,3.6-8.7c2.3,0,6.5,1,11.1,2.3
			c2.5,3.6,5.2,7.2,8.1,10.5C1920.2,196.5,1930.2,199.9,1940.1,201.1z"/>
		<path d="M1990.6,190.2c-7.1,5.2-15.8,8.3-21.9,9.6c-4.4,0.9-16.3,2.8-28.6,1.3c-9.8-1.2-19.9-4.5-26.6-12.2
			c-2.9-3.3-5.6-6.9-8.1-10.5c2.9,0.8,6,1.8,9,2.8c7.1,2.3,18.8,9.8,48.9,5.8c21.8-2.9,35.8-14.8,39.2-19c0.2-0.2,0.4-0.5,0.6-0.7
			c-0.1,3.3-0.5,6.4-1.5,9.2C1999.6,182,1995.5,186.6,1990.6,190.2z"/>
	</g>
	<g>
	</g>
</g>
<g id="XMLID_8_">
	<g>
		<path class="st1" d="M2238.4,122.8c4.8,0.9,5.4,7.6,3.7,12.4c-1,0.3-2.1,0.6-3.2,0.9c-4.3,1.3-8.8,3-13.1,5
			c-0.3-2.6-0.3-6.8,1.2-10.5C2228.5,127,2233.1,121.8,2238.4,122.8z"/>
		<path class="st0" d="M2212.8,117.7c-5.1,0.2-6.2,5.4-6.5,6.9c-0.6,2.6-0.5,7.6,3.7,7.6c4.1,0,6.2-3.7,6.8-7
			C2217.2,122.1,2215.4,117.6,2212.8,117.7z M2256.4,117.5c1.7-1.7,1-5.6-0.7-7.6c-1.7-2.1-9.3-4.3-11-2.4c-1.6,1.7-2.6,4.8,1.3,8.9
			C2249.6,120.1,2254.4,119.6,2256.4,117.5z M2200.9,133.7c0.5-4.5,3.2-11.1,8.3-16.8c3.4-3.8,7.9-7.1,13.6-9.3
			c4.1-1.6,8.6-2.3,13-2.5c7.2-0.2,14.2,1.1,19.2,3.2c1.8,0.7,3.4,1.3,5,1.8c2.9,0.9,5.5,1.6,7.7,2.5c2.9,1.1,5.4,2.6,7.3,5.5
			c2.7,3.9,2.9,8.9,2.8,11.7c-10.4-0.9-20.6,1.1-35.8,5.4c1.7-4.9,1.1-11.6-3.7-12.4c-5.3-0.9-9.9,4.2-11.3,7.8
			c-1.5,3.8-1.5,7.9-1.2,10.5c-9.2,4.1-17.6,9-21.8,11.6c-1.8-0.9-3.4-2.2-5.1-3.7c-0.5-6.6,1.2-10.3,1.8-14.6
			C2200.8,134.1,2200.9,133.9,2200.9,133.7z M2231.8,120.3c0.7-0.2,1.8-1.5,1.4-2.2c-0.5-1.1-4.2,0.4-4.1,1.4
			C2229.2,120.4,2231.3,120.4,2231.8,120.3z"/>
		<path class="st0" d="M2202.6,180.9c-0.1-0.1-0.1-0.3-0.2-0.4c4.5-8.9,16.4-25.3,45-34.4c20.2-6.4,37.2-6.4,48-5.3
			c0.1,0.1,0.2,0.3,0.3,0.4c6.6,6.1,9.3,12.2,12.1,15.2c-4.4-0.2-9.3-0.1-13,1.2c-8.7,2.9-13.7,11.7-13.9,23.3
			c-0.1,3.4,1.3,6.7,3.4,9.8c-3.8,2.6-10.3,6.8-15.5,8.8c-6.6,2.5-14.6,3.8-19.2,4.4c-2.5-3.2-7.3-5.5-15-7.9
			c-8.5-2.6-22.5-2-28.2-1.6c0-2.4-0.2-4.3-0.6-5.6C2204.8,185.4,2203.7,182.8,2202.6,180.9z"/>
		<path d="M2209.2,116.9c-5.2,5.7-7.8,12.3-8.3,16.8c0,0.2-0.1,0.5-0.1,0.7c-2.5-0.7-6.5-2.3-7.7-5.8c-2.4-7.1,1.8-10.8,4.9-11.9
			C2201.6,115.5,2206.7,116.3,2209.2,116.9z"/>
		<path d="M2212.8,117.7c2.7-0.1,4.5,4.4,3.9,7.5c-0.6,3.2-2.6,7-6.8,7c-4.1,0-4.2-5-3.7-7.6
			C2206.6,123.1,2207.7,117.8,2212.8,117.7z"/>
		<path d="M2233.2,118.1c0.4,0.8-0.7,2.1-1.4,2.2c-0.5,0.1-2.6,0.1-2.7-0.9C2229,118.5,2232.6,117,2233.2,118.1z"/>
		<path d="M2255.8,109.8c1.7,2.1,2.3,5.9,0.7,7.6c-2,2.1-6.9,2.6-10.3-1.1c-3.8-4.2-2.8-7.2-1.3-8.9
			C2246.5,105.6,2254.1,107.8,2255.8,109.8z"/>
		<path d="M2260,110.1c-1.6-0.5-3.3-1.1-5-1.8c-4.9-2.1-12-3.4-19.2-3.2c1-1.6,3.2-4.3,7.6-5.5c6.6-1.7,10.3-0.1,13.1,2.4
			C2258.6,104,2259.6,108,2260,110.1z"/>
		<path d="M2284.3,190.7c-2.1-3.1-3.4-6.4-3.4-9.8c0.2-11.7,5.3-20.4,13.9-23.3c3.7-1.2,8.6-1.4,13-1.2c0.5,0.6,1,1,1.5,1.3
			c3.4,2.3,13.7,11.3,16.9,20.1c2.3,6.3,3.8,14.8,1.6,21.1c-3.6,10.1-16.8,7.3-24.9,5.2C2297.4,202.8,2288.9,197.5,2284.3,190.7z"/>
		<path d="M2249.6,203.9c1,1.3,1.6,2.8,1.9,4.5c0.9,6-0.8,21.6-8.2,27.5c-7.3,5.8-17.4,4.9-24.4,0.1c-7-4.7-13.7-11.2-13-28.2
			c0.2-5.3,0.4-9.9,0.4-13.4c5.8-0.4,19.8-1.1,28.2,1.6C2242.4,198.4,2247.2,200.6,2249.6,203.9z"/>
		<path d="M2204.1,152.6c4.2-2.5,12.6-7.4,21.8-11.6c4.3-1.9,8.8-3.7,13.1-5c1.1-0.3,2.1-0.6,3.2-0.9c15.2-4.4,25.4-6.3,35.8-5.4
			c0.1-2.8-0.2-7.8-2.8-11.7c-1.9-2.8-4.4-4.3-7.3-5.5c1.2-2.1,3.9-6,8.3-7.9c5.6-2.5,11.7-0.2,15,2.6c5.9,5.1,5.6,14.5,5.2,22.1
			c-0.3,6.9-1.4,10.1-0.6,11.5c-10.8-1.1-27.8-1.1-48,5.3c-28.6,9.1-40.5,25.5-45,34.4c-0.1,0.1-0.1,0.2-0.2,0.4
			c-5.7-0.6-15.5-2.2-21.3-7.4c-8.5-7.5-10.6-18.5-10.2-24.4c0.4-5.5,4.7-14.2,14.6-9.9c6,2.6,9.8,6.6,13.5,9.9
			C2200.6,150.4,2202.2,151.7,2204.1,152.6z"/>
	</g>
	<g>
	</g>
</g>
<g id="XMLID_9_">
	<g>
		<path class="st0" d="M2599.7,162.8c0,0.1,0.1,0.2,0.1,0.3c-9.4,0.5-19.3,13.5-20.2,20.6c-0.5,4.4,0,7.9,1.2,10.9
			c-9.3,6.3-22.4,5.4-29.9,4.2c-0.8-2.7-2-5.2-3.2-7.3c-4.5-7.5-27.9-20.3-45.6-5.9c-0.4-1.2-0.9-2.4-1.5-3.7
			c4.6-5.4,13.4-14.8,23.4-20.1c7.5-0.6,16-1.6,18.8-3.8c3.5-2.7,5.2-5.8,5.3-8.6c7.9-2.3,23.1-6.1,32.6-3.2
			C2590.4,149,2597.8,153,2599.7,162.8z"/>
		<path class="st0" d="M2559.9,84.1c1.5,0.9,2.9,1.8,4.3,2.9c8.3,6.6,7.7,13.4,11.7,17.7c0.5,0.6,1.1,1.2,1.8,1.8
			c4.3,4.1,10.9,9.5,8.6,18.2c-0.3,1.2-1.1,2.3-2.2,3.2c-5.7,4.7-21.1,6.1-39,7.7c-5.4,0.5-12.3,0.8-17.6,1c-5.1-1-10.5-1.2-15-0.1
			c-5.9,1.5-9.6,3.8-12,6.5c-3.1-1.3-8-4.4-8.2-10.1c-0.2-8.3,6-12.8,7.5-18.4c0.7-2.5,1.7-6,3.4-9.9c3.4-7.7,9.3-16.8,19.1-21
			c2.1-0.9,4.5-1.6,7-2.1C2545.4,78.9,2553.7,80.5,2559.9,84.1z M2572.9,109.2c0.2-3.8-3.4-9.4-6.6-10.7c-3.9-1.7-9.2-0.3-10,3.5
			c-0.8,3.8-1.1,8.2,6.4,11.7C2569.6,116.8,2572.7,112.6,2572.9,109.2z M2542.4,116.4c0.9,0,3.1-1,2.7-2.4c-0.4-1.3-5.5-1.3-5.8,0
			C2538.9,115.6,2541.5,116.4,2542.4,116.4z M2521.6,113.4c2.3-5.8,0.4-10.2-2.6-10.6c-2.3-0.4-5.4,1.4-7.6,5.4
			c-2.3,3.9-2.2,8.4,0.6,9.9C2515.2,119.9,2519.9,117.8,2521.6,113.4z"/>
		<path d="M2550.9,198.8c2.2,7.4,1.9,16.5-5.1,25.4c-9.6,12.2-24.5,12.6-33.9,5.5c-9.4-7.2-8.7-37.3-9-41c-0.1-0.9-0.4-2-0.8-3.1
			c17.7-14.4,41.1-1.6,45.6,5.9C2548.9,193.6,2550,196.1,2550.9,198.8z"/>
		<path d="M2601.6,163.2c10,1.3,18.5,6.5,22.2,13.4c4.3,8.1,7.7,18.6,3.2,27.1c-3.2,5.9-20.3,7.7-28.4,4.7
			c-6.3-2.4-14.6-5.6-17.8-13.8c-1.2-2.9-1.7-6.5-1.2-10.9c0.8-7.1,10.7-20.1,20.2-20.6C2600.4,163.1,2601,163.1,2601.6,163.2z"/>
		<path d="M2584,88.9c1.3,10.2-2.7,14.6-6.3,17.6c-0.7-0.6-1.3-1.2-1.8-1.8c-4-4.3-3.4-11.1-11.7-17.7c-1.3-1.1-2.8-2.1-4.3-2.9
			c2.5-1.4,7.3-3.5,12-3.3C2577,81.1,2583.4,84.5,2584,88.9z"/>
		<path d="M2566.3,98.5c3.2,1.4,6.8,6.9,6.6,10.7c-0.2,3.4-3.3,7.6-10.2,4.4c-7.5-3.5-7.1-7.9-6.4-11.7
			C2557,98.2,2562.3,96.8,2566.3,98.5z"/>
		<path d="M2506.6,77.2c7-1.2,13,3.7,15.8,6.4c-9.8,4.2-15.7,13.3-19.1,21c-2.4-2.3-5.9-6.6-6.5-11.8
			C2496,86.2,2499.7,78.4,2506.6,77.2z"/>
		<path d="M2518.9,102.8c3,0.5,4.9,4.8,2.6,10.6c-1.7,4.4-6.3,6.5-9.7,4.6c-2.7-1.5-2.8-5.9-0.6-9.9
			C2513.6,104.2,2516.7,102.4,2518.9,102.8z"/>
		<path d="M2545.2,114.1c0.4,1.3-1.8,2.4-2.7,2.4s-3.5-0.8-3.1-2.4C2539.7,112.8,2544.8,112.8,2545.2,114.1z"/>
		<path d="M2603.5,138.9c5,5.4,8.5,15,5.1,19.6c-2.1,2.8-5.4,4.1-8.9,4.3c-1.9-9.8-9.3-13.8-19.1-16.8c-9.4-2.8-24.7,0.9-32.6,3.2
			c0.1-1.5-0.3-2.9-1.1-4.2c-1.7-2.7-10.2-6.8-19.5-8.6c5.2-0.2,12.2-0.6,17.6-1c17.9-1.6,33.3-3,39-7.7
			C2589.5,129.8,2598.6,133.6,2603.5,138.9z"/>
		<path d="M2548,149.3c-0.1,2.8-1.7,5.9-5.3,8.6c-2.8,2.1-11.2,3.2-18.8,3.8c-10,5.3-18.8,14.6-23.4,20.1c-1.2-2.6-2.4-5.3-3-7.5
			c-1.1-4.1-2.4-12.4-1.3-20.5c0.6-4,1.5-7.7,4.2-10.8c2.4-2.7,6.1-5,12-6.5c4.5-1.1,9.9-0.9,15,0.1c9.2,1.8,17.8,5.9,19.5,8.6
			C2547.7,146.4,2548.1,147.8,2548,149.3z"/>
	</g>
	<g>
	</g>
</g>
<g id="XMLID_10_">
	<g>
		<path class="st0" d="M2884.9,122.2c-0.1,0.6-0.3,1.2-0.5,1.8c-3,9.2-18.8,17.2-36.9,21.3c-2.6,0.6-5.2,1.1-7.9,1.5
			c-20.4,3.2-38,5.2-46.3-4.7c-0.3-0.4-0.6-0.8-0.9-1.2c-7.9-11.3,2.8-16.7,3.2-19.5c0.4-3,0.9-7.4,1.9-11.3c0.4-1.8,1-3.6,1.7-5
			c5.8-12.4,16.2-16.5,16.2-18.4c0-1-3.7-2.4-8.2-2.7c4-3.8,14.1-11.6,31.5-12.7c11.7-0.8,19.5,2.4,24.1,5.3
			c-3.2,2.5-4.7,5.9-5.1,8.4c-1.1,8.5,9,16.4,13.8,18.6c2.9,1.4,6.4-0.4,9.1-3.4C2883.5,105.4,2886.9,113.7,2884.9,122.2z
			 M2870.1,119.6c0.4-5.1-3.5-8.7-6-10.4c-2.5-1.7-9.4-1.1-10.7,3.8c-0.9,3.5-0.9,11.3,5.6,15.1
			C2865.1,131.5,2869.7,124.6,2870.1,119.6z M2839.7,133.4c0.1-1.9-5.1-1-5.7-0.1c-0.9,1.4,1.8,2.5,2.7,2.5
			C2837.8,135.8,2839.6,134.4,2839.7,133.4z M2816.6,135.4c3.7-2.8,4.9-9.6,3.8-16.4c-0.6-3.6-3.5-7.4-7.9-5.6
			c-4.1,1.7-9.8,11-7.9,17.4C2805.9,135.5,2812.9,138.2,2816.6,135.4z"/>
		<path class="st0" d="M2876.7,195.9c-12,3.5-25.3,2.9-32.6,2.1c-0.7-2.7-1.7-5.1-2.6-6.9c-3.1-6.3-19.6-10.4-28-12.2
			c2.9-6.2,1-11.2,3.6-15.3c2.7-4.4,10.2-11.1,31-15.9c0.7-0.2,1.4-0.3,2.1-0.5c12.2-2.6,20.3-2.6,25.1-2.1
			c-2.2,4.6-5.8,7.3-6.4,12.8c-0.6,5.7,3.5,8.6,8.7,8.8c8.7,0.3,19.2-5.2,22.3-8.5c0.8-0.9,1.8-1.9,2.6-3.2c1,2.9,1.5,5.7,1.6,8.4
			c0.2,9.2-4.7,17.3-11.3,23.7C2888.2,191.4,2882.6,194.2,2876.7,195.9z"/>
		<path d="M2834,133.3c0.6-1,5.9-1.8,5.7,0.1c-0.1,1-1.9,2.4-3,2.4C2835.8,135.8,2833.2,134.7,2834,133.3z"/>
		<path d="M2844,198c1.6,6.3,1.4,14.5-6.2,21.9c-7.3,7.2-23.2,7.8-29.9,0.2c-7-8-6.7-21-4.5-31.8c3.7-1.5,7-4.2,9-7.5
			c0.4-0.6,0.7-1.2,0.9-1.8c8.4,1.7,25,5.9,28,12.2C2842.4,192.9,2843.4,195.3,2844,198z"/>
		<path d="M2927.9,187.1c0,14.2-10.4,16-24.3,16c-8.7,0-19.9-4.1-26.9-7.2c5.9-1.7,11.5-4.5,16-8.8c6.6-6.4,11.5-14.4,11.3-23.7
			C2908.3,165.6,2927.9,175.7,2927.9,187.1z"/>
		<path d="M2875.2,145.1c-4.8-0.5-12.9-0.5-25.1,2.1c-0.7,0.1-1.4,0.3-2.1,0.5l-0.5-2.3c18.1-4.1,33.9-12.2,36.9-21.3
			c0.2-0.6,0.4-1.2,0.5-1.8c5.3,2.7,17.8,9.8,19.4,16.8c1.8,8.3,0.2,12.9-1.9,16c-0.9,1.3-1.8,2.3-2.6,3.2
			c-3.1,3.2-13.6,8.8-22.3,8.5c-5.1-0.2-9.2-3.1-8.7-8.8C2869.3,152.4,2873,149.7,2875.2,145.1z"/>
		<path d="M2803.5,188.2c-4.3,1.7-9.2,1.8-13.4-0.9c-8.5-5.5-7.2-17.1-4.4-28.8c1.2-5.2,5.2-12.3,7.6-16.3c8.3,9.9,25.9,8,46.3,4.7
			c2.6-0.4,5.3-0.9,7.9-1.5l0.5,2.3c-20.8,4.8-28.2,11.5-31,15.9c-2.6,4.1-0.7,9.1-3.6,15.3c-0.3,0.6-0.6,1.2-0.9,1.8
			C2810.5,184,2807.2,186.7,2803.5,188.2z"/>
		<path d="M2820.4,119c1.1,6.8-0.1,13.6-3.8,16.4c-3.7,2.8-10.7,0.1-12.1-4.6c-1.8-6.4,3.8-15.8,7.9-17.4
			C2816.9,111.6,2819.8,115.3,2820.4,119z"/>
		<path d="M2864.1,109.2c2.5,1.7,6.4,5.2,6,10.4c-0.4,5.1-5,12-11.1,8.5c-6.6-3.8-6.6-11.6-5.6-15.1
			C2854.6,108.1,2861.5,107.5,2864.1,109.2z"/>
		<path d="M2862.7,76.7c2.6-2,6.2-3.4,11.1-3.1c7.9,0.5,12.2,12.6,10.5,19.4c-0.7,2.7-2.1,5.3-3.8,7.3c-2.7,3.1-6.2,4.8-9.1,3.4
			c-4.8-2.3-15-10.2-13.8-18.6C2858,82.6,2859.5,79.2,2862.7,76.7z"/>
		<path d="M2807.1,84.1c4.5,0.3,8.2,1.7,8.2,2.7c0,2-10.4,6-16.2,18.4c-0.7,1.4-1.2,3.1-1.7,5c-8-6.6-6.3-17.1-3.6-21.2
			C2796.8,84.8,2802.4,83.8,2807.1,84.1z"/>
	</g>
	<g>
	</g>
</g>
<g id="XMLID_11_">
	<g>
		<path class="st0" d="M3111.4,165.9c3.6,5.2,8.8,13.9,14.2,22.3c-16.6-2.4-24,5.5-26.9,10.4c-0.9-1.6-1.8-3.3-2.6-5.2
			c-5.9-13.3-3.9-28-0.2-40.1C3099.5,154.9,3106.4,158.7,3111.4,165.9z"/>
		<path class="st0" d="M3182.4,199.8c-6.2,3.8-12.9,5.6-17.1,6.5c1.2-4.6,1.4-10.2,0.6-15.2c-0.9-5.5-3.3-10-5.3-12.8
			c8.9,1,17.6,0.1,24-1.3c1.3,3.5,3.8,8.9,8.6,12.1C3190.6,193.7,3186.6,197.2,3182.4,199.8z"/>
		<path class="st0" d="M3123.1,149.9c-5-15.2,0-41.2,0-41.2h0.3c-0.1,4.7,1.2,9.1,2.9,10.2c6,3.9,15.8-4.3,17.7-6.2
			c1.9-1.9,3.9-7.3,0-13.9c-0.6-1-1.2-1.8-1.9-2.5c2.7-1.3,9.3-3.4,23-3.4c11.6,0,22,5.1,29.6,11.1c5.1,4,8.9,8.4,11.1,11.9
			c2.4,3.9,4.1,10.4,5.2,15.8c0.7,3.5,1.1,6.5,1.2,8c0.4,4.1,3,6,2.8,12.1c-0.1,4.5-2.2,8.7-5.6,12.4c-4.1,4.5-10,8.2-16.4,10.8
			c-1.9,0.7-4.7,1.6-8.2,2.3c-6.4,1.3-15.1,2.2-24,1.3C3145.5,176.6,3129.6,169.6,3123.1,149.9z M3202.9,156.6
			c3.2-0.4,4.9-4.7,4.9-9c0-4.9-0.8-10.4-4.9-10c-4.2,0.4-8.9,8.8-8.1,14.7C3195.4,156.2,3199.7,157,3202.9,156.6z M3183.3,170.4
			c1.5,0,4.4-2.8,4.3-3.8c-0.2-2.1-8.8-1.9-9.6,0C3177.3,168.3,3181.8,170.4,3183.3,170.4z M3158.1,159.4c4.3-4.5,6-10.1,4.3-15.4
			c-1.3-4.1-6.4-3.9-11.3-1.5c-5.1,2.5-7.7,10.2-7,14.9C3145.1,163.3,3155.3,162.3,3158.1,159.4z"/>
		<path d="M3212,187.2c2.8,1.8,6.9,5.7,5.6,12.3c-1.9,9.8-10.5,12.9-17.5,11.5c-9.9-2-15.1-7.6-17.6-11.2c4.2-2.6,8.1-6.1,10.9-10.7
			c1,0.6,2,1.2,3.2,1.6C3203.7,193.5,3209,192,3212,187.2z"/>
		<path d="M3138.1,205.8c7.2,8.1,13.5,11.9,19.1,10.7c-3.7,7.8-17.8,5.6-23.2,4.6c-5.7-1-24.2-3-35.4-22.5c0,0,0,0,0,0
			c2.9-4.9,10.3-12.8,26.9-10.4C3130,195,3134.5,201.7,3138.1,205.8z"/>
		<path d="M3123.1,108.6c0,0-5,26,0,41.2c6.5,19.7,22.4,26.8,37.7,28.4c1.9,2.8,4.3,7.3,5.3,12.8c0.8,4.9,0.6,10.5-0.6,15.2
			c-1.2,4.5-3.2,8.1-6.2,9.5c-0.6,0.3-1.3,0.5-2,0.7c-5.6,1.3-11.9-2.6-19.1-10.7c-3.7-4.1-8.2-10.7-12.6-17.6
			c-5.3-8.3-10.6-17.1-14.2-22.3c-4.9-7.2-11.9-11-15.7-12.7c3-10,7.2-18.2,9.1-22.4c3.1-6.8,13.4-18,18.6-23.4
			c0,0.4-0.1,0.8-0.1,1.2H3123.1z"/>
		<path d="M3212,187.2c-2.9,4.8-8.2,6.2-15.5,3.4c-1.1-0.4-2.2-1-3.2-1.6c-4.8-3.2-7.3-8.5-8.6-12.1c3.5-0.7,6.3-1.6,8.2-2.3
			c6.5-2.6,12.4-6.3,16.4-10.8c1.7,3.1,6.3,9.3,4.9,17.2C3213.7,183.5,3213,185.6,3212,187.2z"/>
		<path d="M3212.1,103.7c6.8,3,8.3,12.9,6,19.4c-1.9,5.4-5.4,7.6-7.3,8.4c-1.1-5.3-2.8-11.9-5.2-15.8c-2.1-3.5-6-7.9-11.1-11.9
			C3199.2,102.9,3207.4,101.6,3212.1,103.7z"/>
		<path d="M3187.6,166.6c0.1,0.9-2.8,3.8-4.3,3.8c-1.5,0-6-2-5.3-3.8C3178.8,164.7,3187.4,164.5,3187.6,166.6z"/>
		<path d="M3207.8,147.6c0,4.4-1.7,8.6-4.9,9c-3.2,0.4-7.5-0.4-8.1-4.3c-0.8-5.9,3.9-14.3,8.1-14.7
			C3207,137.2,3207.8,142.7,3207.8,147.6z"/>
		<path d="M3162.4,144c1.7,5.3,0,10.9-4.3,15.4c-2.8,2.9-13,3.9-13.9-2.1c-0.8-4.7,1.9-12.4,7-14.9
			C3156,140.2,3161.1,139.9,3162.4,144z"/>
		<path d="M3142.1,96.2c0.7,0.7,1.3,1.5,1.9,2.5c3.9,6.6,1.9,12,0,13.9c-1.9,1.9-11.7,10.2-17.7,6.2c-1.6-1.1-3-5.5-2.9-10.2
			c0-0.4,0-0.8,0.1-1.2c0.2-2.8,1-5.6,2.5-7.8C3129.7,93.9,3137,91.1,3142.1,96.2z"/>
	</g>
	<g>
	</g>
</g>
<g id="XMLID_12_">
	<g>
		<path class="st0" d="M3444.9,202c-7.8-1.9-19.4-18.5-28.7-26.7c-6.3-5.6-12.3-5.7-15.4-5.2c0.1-8.1,0.8-16,1.9-22
			c0.6-3.7,1.8-7.5,3.2-11.1c12.3,8.1,15.3,17.1,19.6,28.6c5.8,15.2,15.6,25.6,24.9,24c11-2,10.2-16.4,12.1-25.1
			c2-8.8,9.5-9.9,16.9-9.3c11.3,0.9,16,11.2,16.8,19.9c0.4,3.7,1.1,6.7,2.4,8.5c-1.2,1.9-4.6,6.1-12.4,12.1c-3.9,3-9.1,5-14.6,6.2
			C3462.1,203.9,3451.7,203.6,3444.9,202C3444.9,202,3444.9,202,3444.9,202z"/>
		<path class="st0" d="M3413.7,121.3c-2.4-8.5,3.1-16.3,6.4-20.1c2.3-2.6,4.4-6.1,5.8-8.4c0.2,0.2,0.4,0.4,0.6,0.6
			c8.3,6.2,24.7-12.8,25.5-17.3c0.1-0.8,0.2-1.5,0.3-2.2v0c19.8-5.2,34.7-1.3,42.8,3.7c2.3,1.4,4.1,3,5.2,4.4
			c6.7,8.4,6.9,18.1,7.8,24.9c0,0.2,0,0.4,0.1,0.5c1.3,8.6,8.1,17.2,4.8,26.8c-0.8,2.3-1.7,4.6-4.2,6.8c-4.3,3.7-13.3,6.7-34.2,7.6
			c-36.8,1.5-55.3-15-59.9-24.6C3414.3,123.2,3414,122.2,3413.7,121.3z M3500.3,118.1c0-5.7-5.4-11.5-9.5-7.4
			c-6.8,6.7-4.2,17.7,1.9,18C3497.2,128.9,3500.3,123.6,3500.3,118.1z M3472.6,130.5c1.1,0.1,3.9-1.1,3.9-2.7
			c-0.1-2-6.6-1.9-7.2-0.5C3468.7,128.9,3471.7,130.4,3472.6,130.5z M3456.9,116c2-4.8,1.3-11.7-4.9-12
			c-6.2-0.3-14.4,10.7-12.6,15.6C3442.9,128.6,3454.9,120.8,3456.9,116z"/>
		<path d="M3508.1,182.7c1.2,17.5-8.1,32.6-18.4,34.6c-8.6,1.6-15.1-9.2-18.1-15.4c5.5-1.2,10.6-3.2,14.6-6.2
			c7.8-6,11.1-10.2,12.4-12.1c1.2,1.8,2.9,2.6,5.1,2C3505.4,185.2,3506.9,184.2,3508.1,182.7z"/>
		<path d="M3444.9,202c-3.5,11.6-8.8,15.8-16.6,15.8c-8.5,0-15.5-5.1-22.3-16.4c-4.1-6.8-5.4-19.2-5.2-31.4
			c3.2-0.5,9.1-0.3,15.4,5.2C3425.4,183.5,3437.1,200.1,3444.9,202z"/>
		<path d="M3498.5,183.6c-1.2-1.9-2-4.8-2.4-8.5c-0.8-8.8-5.5-19.1-16.8-19.9c-7.5-0.6-15,0.6-16.9,9.3c-2,8.8-1.1,23.2-12.1,25.1
			c-9.2,1.6-19.1-8.8-24.9-24c-4.4-11.5-7.3-20.4-19.6-28.6c2.4-6.2,5.6-11.9,7.9-15.7c0.2,0.9,0.6,1.8,1,2.7
			c4.5,9.6,23,26.1,59.9,24.6c20.9-0.9,29.9-3.9,34.2-7.6c1.3,4.2,3.6,12.5,4.1,19.3c0.6,9-1,17.8-4.8,22.3
			c-1.2,1.5-2.7,2.6-4.4,2.9C3501.4,186.1,3499.7,185.4,3498.5,183.6z"/>
		<path d="M3476.5,127.8c0.1,1.6-2.8,2.8-3.9,2.7c-0.9-0.1-4-1.6-3.3-3.2C3469.9,125.9,3476.4,125.8,3476.5,127.8z"/>
		<path d="M3509.1,77.4c9.8,4.6,9.1,14.4,7.5,19.9c-1.5,5.1-6.1,8.2-8.5,9.6c-0.9-6.8-1.1-16.5-7.8-24.9c-1.2-1.5-2.9-3-5.2-4.4
			C3499.2,76.5,3505.1,75.5,3509.1,77.4z"/>
		<path d="M3490.8,110.7c4.1-4.1,9.5,1.8,9.5,7.4c0,5.5-3.1,10.8-7.6,10.5C3486.6,128.4,3484,117.4,3490.8,110.7z"/>
		<path d="M3452,104c6.2,0.3,6.9,7.2,4.9,12c-2,4.8-14,12.6-17.4,3.6C3437.6,114.7,3445.8,103.7,3452,104z"/>
		<path d="M3425.9,92.8c-3.3-3.6-1.9-12.6,1-19c3.1-6.8,11.3-10.4,17.8-8.8c5.6,1.5,7.9,4.2,7.6,8.8v0c0,0.7-0.1,1.4-0.3,2.2
			c-0.8,4.5-17.2,23.5-25.5,17.3C3426.3,93.2,3426.1,93,3425.9,92.8z"/>
	</g>
	<g>
	</g>
</g>
<g id="XMLID_13_">
	<g>
		<path class="st0" d="M3755.3,71.8c9.8,0.3,18.4,2.8,22,5.1c2.7,1.7,4.9,3.5,6.8,5.1c2.8,2.5,5.1,4.8,8.2,6.4
			c5.1,2.8,14.4,1.7,16.9,12.1c1.7,7,0.2,15.9-5.8,23.4c-5.3,6.7-14.2,12.4-27.5,14.7c-24.6,4.2-51.1,7.6-68-2.3
			c-0.1,0-0.1-0.1-0.2-0.1c-4.7-3-9.2-16.4-6.7-29.9c1.1-5.8,3.5-11.7,7.7-16.8c4-4.8,8.1-8.2,12.3-10.7c10.7-6.4,21.5-6.7,29.8-7.1
			C3752.3,71.8,3753.8,71.7,3755.3,71.8z M3779.2,102.3c6.2,1.8,10.3-0.8,10.2-5.4c-0.1-3.4-3.2-8.9-8.3-10.6
			c-5.1-1.7-7.9,0.7-8.5,4.6C3771.7,97.2,3775.4,101.2,3779.2,102.3z M3763.1,111.3c1-0.4,2.5-2.7,2-3.4c-0.8-1.4-5.7,0.9-6.1,1.9
			C3758.6,111.2,3762.3,111.6,3763.1,111.3z M3739.6,116.6c2.3-3.9,3.8-9.3,0.4-16.9c-3.4-7.6-11.9-4.5-14.4,0.1
			c-2.8,5.1-4.8,14.5-0.1,19.2C3731.4,124.9,3737.4,120.6,3739.6,116.6z"/>
		<path class="st0" d="M3775.8,203.3c-13.5,3-27.7,2.8-33.1,2.5c0.2-1,0.3-2,0.3-3c0.5-15.6-17.9-24.5-37.7-18c0-1.3,0-2.6,0-3.7
			c8.8-1.7,14.8-9.9,21.1-15c16.1-13.3,27.6-17,46.6-20.1c15.8-2.5,24.8-2.5,30.8,0.6c5.2,2.8,9.7,6.7,10.3,15.1
			c0.1,2.2,0,4.7-0.4,7.5c-0.5,3.2-1.2,6.2-2.3,9.1c0,0,0,0,0,0c-3.8,10.2-12,18.4-31.6,23.9C3778.5,202.6,3777.2,203,3775.8,203.3z
			"/>
		<path d="M3811.4,178.4c1,8.1-0.9,21.2-4.8,29c-4.8,9.6-12.7,14.4-20.6,9.9c-4.9-2.8-8.4-9.4-10.2-14c1.3-0.3,2.7-0.6,4-1
			C3799.4,196.8,3807.6,188.6,3811.4,178.4z"/>
		<path d="M3742.8,205.8c-1.8,9.2-9.8,17.9-17.2,17.9c-8.2,0-12.4-4.2-15.8-10.5c-3.6-6.6-4.4-19.5-4.4-28.4
			c19.8-6.6,38.3,2.4,37.7,18C3743.1,203.8,3743,204.8,3742.8,205.8z"/>
		<path d="M3705.4,181.2c-2.5,0.5-5.3,0.5-8.3-0.4c-11.6-3.1-9-19.5-3.7-28.5c4-6.7,10.9-13.1,14.2-15.9c0.1,0,0.1,0.1,0.2,0.1
			c16.9,9.9,43.5,6.5,68,2.3c13.3-2.3,22.2-8,27.5-14.7c4.9,2.6,12.1,6.8,15.4,11.3c6.8,9,7.6,18.4,3.7,22.9c-2.4,2.8-6,3.4-8.3,3.5
			c-0.6-8.4-5.1-12.3-10.3-15.1c-5.9-3.1-15-3.1-30.8-0.6c-19,3.1-30.5,6.8-46.6,20.1C3720.2,171.3,3714.1,179.5,3705.4,181.2z"/>
		<path d="M3708.4,75.8c4.8-0.8,9.6,1.3,12.6,3.1c-4.2,2.5-8.3,6-12.3,10.7c-4.2,5.1-6.6,10.9-7.7,16.8c-2.4-1.9-5.5-5.7-6.1-12.3
			C3693.9,84.8,3700.5,77.2,3708.4,75.8z"/>
		<path d="M3785.2,67.3c1.7,5.9,0.1,11.6-1.1,14.7c-1.9-1.7-4.1-3.4-6.8-5.1c-3.6-2.3-12.2-4.9-22-5.1c2.7-3,8.2-8.5,13.8-10.1
			C3777,59.4,3783.7,62.2,3785.2,67.3z"/>
		<path d="M3765.1,107.9c0.4,0.7-1,3-2,3.4c-0.8,0.3-4.5-0.1-4-1.5C3759.4,108.8,3764.3,106.4,3765.1,107.9z"/>
		<path d="M3789.4,97c0.1,4.6-3.9,7.2-10.2,5.4c-3.9-1.1-7.5-5.1-6.6-11.4c0.6-3.9,3.4-6.3,8.5-4.6C3786.2,88,3789.3,93.5,3789.4,97
			z"/>
		<path d="M3740,99.7c3.4,7.6,1.9,13-0.4,16.9c-2.3,4-8.2,8.2-14.1,2.4c-4.7-4.7-2.7-14.1,0.1-19.2
			C3728.1,95.2,3736.6,92.1,3740,99.7z"/>
	</g>
	<g>
	</g>
</g>
</svg>
