<?xml version="1.0" encoding="utf-8"?>
<!-- Generator: Adobe Illustrator 25.2.3, SVG Export Plug-In . SVG Version: 6.00 Build 0)  -->
<svg version="1.1" id="Layer_2" xmlns="http://www.w3.org/2000/svg" xmlns:xlink="http://www.w3.org/1999/xlink" x="0px" y="0px"
	 width="3900px" height="300px" viewBox="0 0 3900 300" style="enable-background:new 0 0 3900 300;" xml:space="preserve">
<style type="text/css">
	.st0{fill:#FFFFFF;}
	.st1{fill:#FCBBC3;}
</style>
<g id="XMLID_1_">
	<g>
		<path class="st0" d="M192.6,160.6c1.6,6.7,3.9,16,5.4,24.1c-5.5,3.8-12,6.8-17.8,11.9c-7.2,6.2-17.8,16.9-16.8,21.6
			c0,0.1,0,0.2,0.1,0.2c-7.1,1.2-18.3,1.9-29.1-2.7c0.3-5.4-1.4-10.9-6.6-15.4c-4.8-4.2-13.3-8.8-20-12.1
			c5.4-8.7,8.4-21.1,13.8-26.5c4.6-4.6,23.3-9.8,36.7-10C168.6,151.6,183.8,154.1,192.6,160.6z"/>
		<path class="st0" d="M102,90.2c3.5-6.6,3.9-13.9,13.8-22.8c1.2-1.1,2.6-2,4.2-2.9c7.5-4.2,18.6-6.2,26-6.2c9,0,17.9,0.6,24.9,3.5
			c4.4,1.8,8.1,4.5,10.5,8.6c4.2,6.9,5.2,14.1,6.4,19.8c0.6,2.9,1.2,5.5,2.3,7.3c3.8,6.4,9,9.9,7,20c-0.7,3.5-2.3,6.4-4.6,8.9
			c-7.9,8.7-24.7,12-46,12c-20.6,0-38-2.5-47.4-10.6c-3.1-2.7-5.4-6.1-6.5-10.3c-3.4-12.8,5.3-20.4,8.7-25.8
			C101.4,91.2,101.7,90.7,102,90.2z M178.7,106.4c1.1-5.1-1.1-10-5.3-12.6s-9.6-1.9-10.7,5.1c-0.6,3.8-1.1,11.7,4.9,14.7
			C173.6,116.5,177.6,111.2,178.7,106.4z M146.4,117.9c1.5,0,4-1.9,3.5-3c-0.8-1.9-6.9-1.5-7.4,0C141.8,117,145.3,117.9,146.4,117.9
			z M125.2,111.8c4.3-4,5.2-11.2,3.8-15.8c-1.1-3.6-4.3-5.6-9.2-3c-4.9,2.6-8.4,11.2-7.9,15.4C112.8,116.3,121.7,115.1,125.2,111.8z
			"/>
		<path d="M185.7,60.1c7.1,2.6,13.4,15.8,9.2,24.3c-1.7,3.6-4.9,5.2-7.2,5.8c-1.1-5.6-2.2-12.8-6.4-19.8c-2.5-4.1-6.1-6.8-10.5-8.6
			C174.6,60.2,180.9,58.3,185.7,60.1z"/>
		<path d="M149.9,114.9c0.5,1.1-2,3-3.5,3c-1.1,0-4.6-0.9-3.9-3C143,113.4,149.1,113,149.9,114.9z"/>
		<path d="M120,64.5c-1.6,0.9-3,1.8-4.2,2.9c-10,8.9-10.3,16.2-13.8,22.8c-3-2.7-6.9-7-8-12.6c-2-10.1,7.3-17.3,13.2-18.3
			C113.2,58.3,117.7,62,120,64.5z"/>
		<path d="M129,96c1.5,4.7,0.6,11.9-3.8,15.8c-3.6,3.2-12.4,4.5-13.4-3.4c-0.5-4.2,3-12.8,7.9-15.4C124.7,90.4,127.9,92.4,129,96z"
			/>
		<path d="M173.4,93.8c4.1,2.6,6.4,7.5,5.3,12.6c-1.1,4.8-5.1,10.2-11.1,7.1c-6-3-5.5-10.9-4.9-14.7
			C163.8,91.9,169.3,91.1,173.4,93.8z"/>
		<path d="M163.4,218.2c-1-4.8,9.6-15.4,16.8-21.6c5.8-5,12.3-8.1,17.8-11.9c1,5.5,1.8,10.4,1.8,13.4c0,11.5-0.8,24.5-15.4,29.7
			c-6.7,2.4-18.6,0-20.8-9.4C163.5,218.3,163.5,218.3,163.4,218.2z"/>
		<path d="M134.4,215.7c-0.2,3.6-1.3,7-2.8,10.2c-3.8,7.7-17.9,22.4-31.8,14.9c-12-6.5-12.7-29.3-10.5-43.7c0.3,0.1,0.6,0.1,0.9,0.2
			c8.4,1.6,13.7-2.8,17.6-9c6.7,3.3,15.3,7.9,20,12.1C133.1,204.8,134.8,210.4,134.4,215.7z"/>
		<path d="M89.3,197.1c-14.1-3.7-6.4-29.4-4.2-39.7c2-9.4,8.4-21.8,13.8-29.6c9.3,8.1,26.8,10.6,47.4,10.6c21.3,0,38.1-3.3,46-12
			c5.6,4.9,16.1,15.4,17.6,26.1c2.7,18.9-3.4,26.3-11.9,32.2c-1.5-8.1-3.8-17.4-5.4-24.1c-8.8-6.5-24.1-9-34.3-8.8
			c-13.4,0.2-32.1,5.4-36.7,10c-5.5,5.5-8.4,17.8-13.8,26.5c-3.9,6.3-9.2,10.6-17.6,9C89.9,197.2,89.6,197.2,89.3,197.1z"/>
	</g>
	<g>
	</g>
</g>
<g id="XMLID_2_">
	<g>
		<path class="st0" d="M489.8,132.8c-7.5,6.3-21.6,11.9-44.4,12.7c-20.1,0.7-40.1-2-49.1-9.1c-3.4-2.7-5.3-6.1-4.9-10.1
			c1.3-14.4,9.2-15.8,11.3-23.5c0.3-1.2,0.7-3,1.5-5.3c2.1-6.3,6.6-15.6,17.8-21.2c6-3,13.8-4.9,24.2-4.6c7.8,0.2,13.8,1.2,18.5,2.8
			c10.6,3.6,14.4,9.9,18,14.9c0.9,1.3,1.8,3.2,2.7,5.2c1.6,3.5,3.2,7.5,5.4,9.9c3.4,3.8,8.3,10.3,5.6,19.2
			C495.6,126.6,493.5,129.8,489.8,132.8z M447,124.6c1.7,0,3.6-1.4,3.3-3.2c-0.2-1.6-6.5-0.9-7.1,0.4
			C442.5,123.5,445.6,124.6,447,124.6z M477.2,117.3c4.9-2.5,4.7-8.7,1.5-13.2c-3.2-4.5-8.3-6.9-11.5-5.5c-3.4,1.5-4.5,7.3-3.4,12
			C465,115.4,472.3,119.7,477.2,117.3z M427.2,115.8c2.4-3.8,3.2-13.5-0.2-15.1c-5.2-2.3-8.8,0.9-12,5.5c-3.2,4.5-3.4,12.4,0.9,14.3
			C420.2,122.4,424.7,119.6,427.2,115.8z"/>
		<path class="st0" d="M394.9,189.4c1.3-4.7,3.4-9.2,6.5-12.8c11.5-13.6,21.5-22.4,49.3-22.8c19.4-0.3,36.3,6.2,39.9,16.4
			c3.5,10,2.1,16.2,4.4,20.2c-4.4,1.8-14.8,6.2-19.7,10.3c-4.6,3.9-9.3,9.7-10.4,15.7c-11.7,4-25.6,0.7-31.3-1.1
			c0.1-8.4-6.6-14.7-14.2-21c-4.1-3.4-13-5.8-18.1-6.9h0C399.7,188.3,397.5,189.2,394.9,189.4z"/>
		<path d="M433.6,215.3c0,0.5,0,1-0.1,1.5c-0.7,6.6-4.9,11.7-10.4,14.3c-5.5,2.6-23.1,3-27.7-8.1c-2.5-6.1-4.4-20.9-0.7-33.7
			c2.7-0.2,4.9-1.1,6.5-2.1h0c5.2,1.2,14,3.5,18.1,6.9C427.1,200.7,433.7,206.9,433.6,215.3z"/>
		<path d="M465,216.4c1.1-6,5.8-11.8,10.4-15.7c4.9-4.1,15.3-8.6,19.7-10.3c0,0.1,0.1,0.1,0.1,0.2c0.9,1.4,4.3,4.1,7.6,3.1
			c0.6,3.9,0.9,9.4,0.1,16.9c-0.9,8.4-5.1,19.4-14.9,22.6c-9.8,3.2-19.9-2.4-22.6-10.4C464.7,220.6,464.6,218.5,465,216.4z"/>
		<path d="M495,190.4c-2.3-4-0.9-10.1-4.4-20.2c-3.6-10.2-20.5-16.6-39.9-16.4c-27.9,0.4-37.8,9.2-49.3,22.8
			c-3.1,3.6-5.2,8.1-6.5,12.8c-1.9,0.1-4-0.1-6.3-0.9c-10-3.6-5.6-20.3-2.6-30.7c2.3-7.9,7.8-17.3,10.4-21.3c9,7.1,29,9.7,49.1,9.1
			c22.9-0.8,36.9-6.4,44.4-12.7c3.8,3.8,9.7,10.2,12.8,17.2c4.7,10.5,8.3,27.3,4.9,37.7c-1.2,3.7-3,5.4-4.8,5.9
			c-3.3,1-6.8-1.7-7.6-3.1C495.1,190.5,495.1,190.4,495,190.4z"/>
		<path d="M489.5,79.3c0.5,8.1-1.5,12.1-4,15.4c-0.9-2-1.8-3.9-2.7-5.2c-3.6-5-7.5-11.3-18-14.9c3.7-2.2,9.5-5.1,13.9-4.5
			C485.5,71,489.1,74.2,489.5,79.3z"/>
		<path d="M478.7,104.1c3.2,4.5,3.4,10.7-1.5,13.2c-4.9,2.4-12.2-1.9-13.4-6.6c-1.1-4.7,0-10.5,3.4-12
			C470.4,97.2,475.5,99.6,478.7,104.1z"/>
		<path d="M427,100.7c3.4,1.5,2.6,11.3,0.2,15.1c-2.4,3.8-7,6.6-11.3,4.7c-4.3-1.9-4.1-9.8-0.9-14.3
			C418.1,101.7,421.7,98.4,427,100.7z"/>
		<path d="M450.3,121.4c0.3,1.8-1.6,3.2-3.3,3.2c-1.4,0-4.5-1.1-3.8-2.8C443.8,120.6,450.1,119.8,450.3,121.4z"/>
		<path d="M413.4,73.1c4.5,0,7.2,1.9,8.5,3.3c-11.1,5.6-15.7,14.9-17.8,21.2c-2.9-1.8-6.1-5.4-4.7-12.2
			C401.4,75.8,406.5,73.1,413.4,73.1z"/>
	</g>
	<g>
	</g>
</g>
<g id="XMLID_3_">
	<g>
		<path class="st0" d="M787.6,87.3c0.4,3.3,0.7,6.2,2.7,8.8c5.1,6.8,11,16.1,4.8,27.7c-0.9,1.7-2.3,3.3-4,4.6
			c-9.7,7.7-30.6,9.7-47.4,9.2c-15.2-0.4-34.6-2.6-44.8-9.5c-3.1-2.1-5.3-4.6-6.3-7.7c-4.9-14.8,5.9-23,8.2-28.4
			c0.2-0.5,0.5-1.2,0.8-1.9c2.3-6.2,6.4-18.6,19-25.3c0.6-0.3,1.3-0.7,1.9-1c13.4-6.1,33.4-9.7,48.7-0.6c1.9,1.1,3.7,2.4,5.4,3.9
			C785.8,75.4,786.9,81.9,787.6,87.3z M778.7,111.2c1.7-3.1,2.5-11.6-4-16.7c-6.5-5.1-10.5-1.6-11.1,1.6c-1.1,5.9-0.2,13.8,3.5,16.9
			C770.8,116.2,777,114.3,778.7,111.2z M746.8,117.8c1.1-0.3,3.1-1.4,2.8-2.8c-0.3-1.4-6.8-1-6.9,0.7
			C742.6,117.1,745.7,118.1,746.8,117.8z M721.7,113.9c7.9-3.1,7.9-12.4,7.6-16.1c-0.3-3.7-2.1-7-6.2-5.9
			c-6.5,1.7-10.9,7.8-11.2,14.4C711.6,113.3,716.2,116.1,721.7,113.9z"/>
		<path class="st0" d="M692.3,180.2c1.4-8.2,3.9-15.2,7.8-18.1c11.7-9,27.1-14.5,48.6-15c21.2-0.4,26.7,1.3,31.5,11.1
			c4.1,8.5,6.9,22.7,12,30.8c-3.9,1.5-13,5.6-19.3,11.9c-4.3,4.3-7,8.2-8.2,12.2c-14,3.4-27.2,1.5-33.8,0.1
			c-1.1-6.4-8.4-13.9-14.5-18.4c-8.2-6.1-19.3-9.3-24.6-10.5C691.9,182.9,692.1,181.5,692.3,180.2z"/>
		<path d="M785.5,61.4c6.8,2,12.1,9.3,10.2,16.4c-1.2,4.2-5.1,7.5-8,9.5c-0.7-5.4-1.8-11.9-11-20.1c-1.7-1.5-3.5-2.8-5.4-3.9
			C774.5,61.9,780.7,60,785.5,61.4z"/>
		<path d="M749.6,115c0.3,1.4-1.7,2.5-2.8,2.8c-1.1,0.3-4.2-0.8-4.1-2.2C742.8,114,749.3,113.6,749.6,115z"/>
		<path d="M709,59.7c5.8-0.2,9.7,3,11.6,5c-12.7,6.7-16.8,19.1-19,25.3c-3.3-2.4-8.3-7.2-7.8-14.2C694.2,68.8,698.5,60.1,709,59.7z"
			/>
		<path d="M729.3,97.8c0.3,3.7,0.3,13-7.6,16.1c-5.5,2.2-10-0.6-9.7-7.6c0.3-6.6,4.7-12.7,11.2-14.4C727.2,90.8,729,94.1,729.3,97.8
			z"/>
		<path d="M774.7,94.6c6.5,5.1,5.7,13.6,4,16.7c-1.7,3.1-7.9,4.9-11.6,1.8c-3.7-3.1-4.7-11-3.5-16.9
			C764.2,92.9,768.2,89.5,774.7,94.6z"/>
		<path d="M764.5,213.1c1.2-4,3.9-7.9,8.2-12.2c6.3-6.3,15.5-10.3,19.3-11.9c0.8,1.3,1.7,2.5,2.7,3.4c1.8,1.7,5.1,3,8.6,2.8
			c0.8,4.2,2,12.2,1.6,20c-0.6,10.5-10.2,22.7-19.2,24.4c-9,1.7-18.9-7.3-21.2-15.5C763.5,220.2,763.5,216.6,764.5,213.1z"/>
		<path d="M730.8,213.2c0.2,1.4,0.2,2.7-0.2,3.9c-2.3,7.1-5.5,11.1-14.4,13.5c-6.8,1.9-17.9,1-22.5-10c-2.6-6.4-3.7-22.4-2-36.3
			c5.3,1.2,16.4,4.4,24.6,10.5C722.4,199.4,729.7,206.8,730.8,213.2z"/>
		<path d="M803.4,195.2c-3.5,0.3-6.8-1.1-8.6-2.8c-1-0.9-1.9-2.1-2.7-3.4c-5.1-8.1-7.9-22.3-12-30.8c-4.8-9.9-10.3-11.6-31.5-11.1
			c-21.5,0.4-36.8,5.9-48.6,15c-3.9,3-6.4,9.9-7.8,18.1c-2,0.4-4.3,0.3-6.4-1.1c-8.3-5.2-2.7-21.6-0.3-27.2
			c2.7-6.4,10.2-18.9,13.3-23.8c10.2,6.9,29.6,9.1,44.8,9.5c16.8,0.5,37.7-1.5,47.4-9.2c3.8,3.7,11.5,11.3,15.4,17
			c5.4,7.6,12.4,18.6,9,35.9C813.6,191.3,808.3,194.8,803.4,195.2z"/>
	</g>
	<g>
	</g>
</g>
<g id="XMLID_4_">
	<g>
		<path class="st1" d="M1043,117.8c3.1-1.4,10.7,4.2,10.7,6.8s-11.2,8.8-13.7,4.9C1038.3,126.9,1039.9,119.3,1043,117.8z"/>
		<path class="st0" d="M1094.1,163.6c1,3,3.7,12.6,1.6,24.2c-8.9-2.5-20.1,2.8-21.8,11c-1,4.8,0.3,9.8,3.3,14c-2.8,2-8.2,4.8-18.4,7
			c-9.1,1.9-18,0.2-24.1-1.6c-1.4-5.3-4.9-10-10.6-12.2c-9.9-3.7-23.3-5.6-31.3,4.2c-4-13.1-5.1-27.8-5.1-30.2
			c0-0.7-0.2-1.4-0.6-2.3c12.4-6.1,41.4-19.1,67.9-21.7c22.1-2.1,33.8,2.9,39.2,6.3C1094,162.8,1094,163.3,1094.1,163.6z"/>
		<path class="st0" d="M997.3,98c1.7-1.3,3.3-2.5,4.7-3.6c2.4-1.9,6.4-7.9,13.5-13c6.5-4.7,15.5-8.6,28.1-7.9
			c5.4,0.3,10.1,1.3,14.2,2.7c14.3,4.9,21.2,14.9,25.1,18.7c0.4,0.4,0.7,0.7,1.1,0.9c3.5,2.6,12.2,8.5,15.4,16
			c1.4,3.3,1.7,6.8,0.1,10.5c-6.8,15.8-28.3,19.6-54.6,19.9c-16.6,0.2-31.1-1.5-38.7-2.6c-3.6-5.4-9-12.1-15.3-15.5
			c-1.6-0.9-3.4-1.6-5.2-2.2c-0.2-3.3-0.3-8.9,1.4-12.9C988.9,104.9,993.3,101.2,997.3,98z M1078.3,106.3c1.1-4.8-2.3-11.9-6.5-13.3
			c-4.2-1.4-9.5-0.8-11,3c-2.2,5.4,0.1,11.2,5.4,14.5C1072.6,114.7,1077.6,109,1078.3,106.3z M1042.1,114c1.6-0.3,3.7-2.3,3.4-3.7
			c-0.3-1.4-6.5-1.8-7.8,0.8C1036.9,112.9,1041,114.2,1042.1,114z M1053.7,124.6c0-2.5-7.6-8.2-10.7-6.8c-3.1,1.4-4.7,9-3,11.7
			C1042.5,133.5,1053.7,127.2,1053.7,124.6z M1016.6,118.3c3.7-3.7,6.1-12.8,2.7-17.7c-3.4-4.8-10.2-2.2-13,0.7
			c-4,4.2-5.1,11.4-2.3,17.1C1006,122.4,1012.9,121.9,1016.6,118.3z"/>
		<path d="M1095.7,187.8c0.3,0.1,0.6,0.2,0.8,0.2c10,3.4,18.2,15.2,17.4,24.7c-0.5,5.5-12.1,12.7-23.4,9.3
			c-5.6-1.7-10.2-5.1-13.2-9.2c-3-4.2-4.3-9.2-3.3-14C1075.6,190.6,1086.7,185.3,1095.7,187.8z"/>
		<path d="M1034.7,218.1c0.6,2.3,0.8,4.8,0.7,7.1c-0.6,7.9-3,18.6-12.1,19.5c-10.1,0.9-19.1-7.6-27.7-27c-1.1-2.4-2-5-2.8-7.7
			c8-9.8,21.5-7.9,31.3-4.2C1029.8,208.1,1033.3,212.8,1034.7,218.1z"/>
		<path d="M1005.1,72.8c5.8,1.7,9,6.1,10.3,8.6c-7.1,5.1-11.1,11.1-13.5,13c-1.3,1.1-3,2.3-4.7,3.6c-3.1-2.2-8.7-7.2-7.9-14.9
			C990.4,74.4,996.7,70.3,1005.1,72.8z"/>
		<path d="M1087.9,82.6c0.2,6.7-3.2,10.7-5,12.3c-3.9-3.8-10.8-13.8-25.1-18.7c2.5-2.4,8.1-6.5,15.7-5.9
			C1082.9,71,1087.7,76.3,1087.9,82.6z"/>
		<path d="M1071.8,93c4.2,1.4,7.6,8.5,6.5,13.3c-0.7,2.8-5.7,8.4-12.1,4.2c-5.2-3.4-7.6-9.2-5.4-14.5
			C1062.3,92.2,1067.5,91.6,1071.8,93z"/>
		<path d="M1045.5,110.4c0.3,1.4-1.8,3.4-3.4,3.7c-1.1,0.2-5.2-1.1-4.4-2.8C1039.1,108.6,1045.2,109,1045.5,110.4z"/>
		<path d="M1019.3,100.6c3.4,4.8,1,14-2.7,17.7s-10.6,4.1-12.6,0.1c-2.8-5.7-1.7-12.8,2.3-17.1C1009,98.4,1015.9,95.8,1019.3,100.6z
			"/>
		<path d="M985.7,122c1.9,0.6,3.6,1.3,5.2,2.2c6.2,3.3,11.7,10.1,15.3,15.5c7.6,1.1,22.1,2.8,38.7,2.6c26.3-0.3,47.9-4.1,54.6-19.9
			c1.6-3.7,1.2-7.3-0.1-10.5c2.5-1.1,7-2.3,10.3,0.8c4.8,4.5,5.7,15.7,0.8,24.4c-4.3,7.9-15.1,20.4-16.3,25.2
			c-5.3-3.5-17.1-8.5-39.2-6.3c-26.5,2.6-55.5,15.6-67.9,21.7c-1.3-2.6-4.7-6.3-11.5-12.4c-7.2-6.3-13.5-17.4-10.2-32.3
			C968.1,120.8,977.6,119.6,985.7,122z"/>
	</g>
	<g>
	</g>
</g>
<g id="XMLID_5_">
	<g>
		<path class="st1" d="M1342.3,125.2c2.3,0,4.6,1.7,4.2,3.9c-0.4,2.4-3.7,5.7-7.1,5.7c-3.4,0-6.3-1-4.9-4.7
			C1335.5,127.7,1338.9,125.3,1342.3,125.2z"/>
		<path class="st0" d="M1334.6,130.1c-1.4,3.7,1.5,4.7,4.9,4.7c3.4,0,6.6-3.2,7.1-5.7c0.4-2.2-1.9-4-4.2-3.9
			C1338.9,125.3,1335.5,127.7,1334.6,130.1z M1333.3,143.6c0.8-5.4-0.1-10.5-5.2-12.5c-12.9-5-29.6,12.5-34.3,19.3
			c-0.8,1.1-1.5,2.3-2,3.6c-1.2-4.6-2.3-11.4-0.6-16.9c2.8-9.3,4.2-9.3,6.2-13c0.5-1,1.5-3.4,3.4-6.4c3.3-5.4,9.3-12.8,20.2-17.1
			c5.5-2.2,12.2-3.7,20.5-3.7c9-0.1,15.3,0.9,19.9,2.3c10.8,3.4,12.1,9.4,15.3,11.4c1.4,0.9,2.9,1.4,4.4,2c4.2,1.5,8.6,2.7,11,8
			c-4.8,2.7-8.7,8.2-12.8,11.7c-6.2,5.4-10.4,7.9-24,10.4C1345.7,144.5,1337.4,144,1333.3,143.6z M1374.7,122c1.7-6.4-2.8-11-6.8-13
			c-3.9-2-8,0.1-8.7,3.2c-0.9,4.3,1,10.2,5.3,13C1368.8,128,1373.6,126.4,1374.7,122z M1341.3,120.6c1.1,0,2.8-1,2.5-2.4
			c-0.2-1.2-4.8-1.1-5.5,0.7C1337.8,120.2,1340.2,120.6,1341.3,120.6z M1320.8,118.7c0.6-3.4-0.1-7.3-6.3-5.9
			c-6.2,1.4-11.1,6.8-10,12.1c0.6,2.8,6.1,2.9,8.9,1.8C1316.3,125.5,1320.2,122.1,1320.8,118.7z"/>
		<path class="st0" d="M1395.7,171.5c-5.6-0.3-10.4,1.9-15,5.7c-7.4,5.9-11.3,13.6-9.3,24.3c0.5,2.7,1.6,4.8,3.1,6.2
			c-2.7,2.3-7.5,5.5-15.8,7.9c-10.2,2.9-21.4,1.1-27.3-0.3c0.6-3.2,0.6-6.1,0.5-7.8c-0.3-4.8-4.1-15.1-16.1-17.9
			c-11.7-2.8-19.1,9.3-22.4,16.8c-2.3-4.8-3.8-9.8-4.4-14.2c-0.3-2.6-0.6-5.2-0.8-7.8c10.1-6.9,34.6-21.7,61.8-22.7
			c20.2-0.8,35.4,3,43.8,5.8c-0.1,0.3,0,0.5,0,0.7C1393.9,168.8,1394.7,170,1395.7,171.5z"/>
		<path d="M1374.7,94.5c7.1,0.6,11.3,6.3,10.7,10.2c-0.5,3.3-2.6,6.1-4.4,7.8c-1.5-0.6-3.1-1.1-4.4-2c-3.2-2-4.5-8-15.3-11.4
			C1364.5,97.1,1370,94.1,1374.7,94.5z"/>
		<path d="M1313,94.7c4,0.8,6.5,3.6,7.9,5.8c-10.8,4.4-16.8,11.7-20.2,17.1c-1.3-2.5-4.2-8.9-2.8-14.5
			C1299.6,96.1,1306.9,93.4,1313,94.7z"/>
		<path d="M1314.5,112.8c6.2-1.4,6.9,2.5,6.3,5.9c-0.6,3.4-4.5,6.8-7.3,7.9c-2.8,1.1-8.3,1-8.9-1.8
			C1303.4,119.6,1308.3,114.2,1314.5,112.8z"/>
		<path d="M1343.8,118.2c0.2,1.4-1.4,2.4-2.5,2.4s-3.5-0.4-3-1.7C1339,117.2,1343.6,117,1343.8,118.2z"/>
		<path d="M1368,109c4,2,8.5,6.6,6.8,13c-1.2,4.4-5.9,6-10.2,3.2c-4.2-2.8-6.2-8.7-5.3-13C1360,109.1,1364,107,1368,109z"/>
		<path d="M1374.4,207.7c-1.5-1.5-2.6-3.5-3.1-6.2c-2-10.7,1.9-18.3,9.3-24.3c4.6-3.7,9.4-6,15-5.7c2.5,3.8,6.1,9.9,5.3,17.5
			c-1.1,10.7-7.3,19.8-11.9,21.5C1385.8,211.7,1378.6,212.1,1374.4,207.7z"/>
		<path d="M1331.3,215.3c-1.1,5.9-3.9,12.6-10.8,13.8c-10.4,1.8-21.3-10-27.2-22.8c3.3-7.5,10.7-19.5,22.4-16.8
			c12,2.8,15.8,13.1,16.1,17.9C1331.9,209.1,1331.9,212.1,1331.3,215.3z"/>
		<path d="M1291.8,154c0.6-1.3,1.3-2.5,2-3.6c4.7-6.8,21.5-24.3,34.3-19.3c5.1,2,6,7.1,5.2,12.5c4.1,0.4,12.3,0.9,21.9-0.9
			c13.6-2.5,17.8-5.1,24-10.4c4.1-3.5,7.9-9,12.8-11.7c2.5-1.4,5.2-2,8.4-1.3c9.3,2.2,8.2,14.7,5.1,24c-2.9,8.7-11.4,20.6-11.9,24.2
			c-8.3-2.8-23.5-6.6-43.8-5.8c-27.2,1.1-51.7,15.8-61.8,22.7C1287.3,173,1288,161.9,1291.8,154z"/>
	</g>
	<g>
	</g>
</g>
<g id="XMLID_6_">
	<g>
		<path class="st0" d="M1588.8,180c-1.4-12.6,0.8-21.9,2.7-27c-0.1,1.6-0.1,3,0.1,4.1c3.1,17.8,22.3,18.6,33.6,14.1
			c8.8-3.5,13.2-15.5,14.2-25.6c4.8-0.6,12.1-1.1,17.6,0.4c1.2,7.8,4.3,15.6,10.3,20.4c12.1,10,29.3,3.1,34.2-7.6
			c2.1,4.3,4.1,11,2.8,19.7c-1.7,11.6-11.9,39.5-55.3,40.4C1605.4,219.8,1590.5,195.6,1588.8,180z"/>
		<path d="M1701.4,158.8c-4.9,10.6-22,17.6-34.2,7.6c-5.9-4.9-9.1-12.6-10.3-20.4c-1.3-8.3-0.2-16.7,2.1-21.6
			c3.8-8,13.3-10.7,22.9-5.1c9.6,5.6,24.3,23.2,20.3,37.3C1702.1,157.3,1701.8,158.1,1701.4,158.8z"/>
		<path d="M1591.5,153c0.8-10.4,8.3-28.8,23.3-31.5c17.2-3.1,24.2,8.8,24.8,16.4c0.2,2.3,0.1,4.9-0.1,7.7
			c-1.1,10.1-5.4,22.1-14.2,25.6c-11.3,4.5-30.5,3.7-33.6-14.1C1591.4,156,1591.3,154.6,1591.5,153z"/>
	</g>
	<g>
	</g>
</g>
<g id="XMLID_7_">
	<g>
		<path class="st0" d="M1996.7,152.5c3.7,6.8,5.6,15.6,4.6,27.2c0,0.3-0.1,0.6-0.1,0.8c-7.7,5.5-23.7,15.7-42.6,20.9
			c-20.7,5.7-46.8,3.5-57.2,2.3c-4.6-5.7-6.4-16.7-7-25.7c-0.3-3.9-0.3-7.5-0.3-10.1c0.3,0.9,0.8,1.6,1.2,2.2
			c11.6,15.2,31.9,3.6,35-5.9c1.8-5.5,1.9-10.5,1.1-14.9c3.8-2.2,11.5-5.9,21.1-6c3.2,9,9.6,15.9,12.8,17.5
			c10.2,5.1,26.1,3.9,27.9-9.6c0.2-1.1,0.2-2.3,0.2-3.4C1994.7,149.2,1995.8,150.8,1996.7,152.5z"/>
		<path d="M2001.2,180.5c0-0.3,0.1-0.6,0.1-0.8c1-11.6-0.9-20.4-4.6-27.2c1.4-2.3,3.7-5.3,6-5.8c4-0.8,8.5-2,10.2,6.8
			c1.5,7.8-0.5,33.1-15.5,41.3C1999.7,190.4,2000.7,185.7,2001.2,180.5z"/>
		<path d="M1993.6,147.8c0,1.1-0.1,2.2-0.2,3.4c-1.9,13.5-17.8,14.7-27.9,9.6c-3.2-1.6-9.6-8.5-12.8-17.5c-1.9-5.3-2.7-11.4-1-17.5
			c4-14.4,16.4-11.8,22-8.2C1980.2,121.8,1993.5,133.3,1993.6,147.8z"/>
		<path d="M1997.4,194.7c-4.6,8.8-14.4,15.9-35.6,22.2c-16.9,5-31.6,3.4-42.7-1c-7.8-3.1-13.8-7.5-17.5-11.9
			c-0.1-0.1-0.1-0.1-0.2-0.2c10.4,1.2,36.5,3.4,57.2-2.3c18.9-5.2,34.9-15.4,42.6-20.9C2000.7,185.7,1999.7,190.4,1997.4,194.7z"/>
		<path d="M1901.4,203.7c0,0.1,0.1,0.1,0.2,0.2c3.7,4.4,9.7,8.9,17.5,11.9c-20.5,2-34.4-13.8-38.6-20.7c-5.9-9.6-2.5-15.8,2.3-18.1
			c2.9-1.4,8.1-0.2,11.8,0.9C1895.1,187.1,1896.8,198,1901.4,203.7z"/>
		<path d="M1931.5,149.3c0.8,4.4,0.7,9.4-1.1,14.9c-3.1,9.5-23.4,21.2-35,5.9c-0.5-0.6-0.9-1.4-1.2-2.2c-3.9-9.1-0.9-29.3,6.6-37.3
			c8.2-8.8,16.7-5.1,21.5,0.6C1925.3,134.8,1930,141,1931.5,149.3z"/>
	</g>
	<g>
	</g>
</g>
<g id="XMLID_8_">
	<g>
		<path class="st1" d="M2242.5,124.4c1.2,2.7-2,6.3-5,7.2c-2.6,0.8-5.6,0.8-6.5-0.9c-0.8-1.3-0.4-2.9,1.1-4.7
			C2234.6,123.3,2241.7,122.6,2242.5,124.4z"/>
		<path class="st0" d="M2225.9,113c-1.4-0.4-5.8,0.3-8.5,3.8c-2.9,3.9-2.4,7.4-0.6,8.8c1.9,1.3,5.5,0.1,8.3-2.7
			C2229.2,118.8,2228.7,113.8,2225.9,113z M2242.5,124.4c-0.8-1.9-7.9-1.1-10.4,1.7c-1.6,1.8-1.9,3.4-1.1,4.7
			c0.9,1.7,3.9,1.7,6.5,0.9C2240.5,130.8,2243.7,127.2,2242.5,124.4z M2240.9,120.9c1.5,0,2.8-1.4,2.7-2.5c-0.2-1.4-5.7-0.9-5.8,0.4
			C2237.6,120.2,2239.4,120.9,2240.9,120.9z M2272.1,118.6c1.1,1.2,2.3,2.2,3.5,2.9c1.1,0.6,2.3,1.3,3.4,2.1c3,2.2,5.5,5.5,3.7,10.3
			c-1,2.6-2.8,4.5-4.6,5.8c-5.5-1.4-14.9-1.9-33.1-3.9c-16.3-1.8-36.1,1.8-43.5,3.3c-1.6-1.7-3.6-5-2-9.5c0.5-1.5,1.2-2.8,2-3.9v0
			c1.4-1.9,3.1-3.2,4.9-4.5c2.1-1.4,4.4-2.7,6.6-4.4c2.5-1.9,4.8-4.5,8.3-6.8c4.2-2.8,10.3-5.1,20.5-4.8c7.3,0.1,12.5,1.1,16.3,2.4
			c3.9,1.3,6.4,3,8.2,4.5C2268.1,113.3,2269.9,116.2,2272.1,118.6z M2266.6,122.6c2.3-2.4-0.4-6.1-2.4-8.1c-1.4-1.4-6.3-3.3-9.2-1
			c-1.9,1.5-1.5,4.5,1.1,7.5C2258.7,124.1,2265,124.3,2266.6,122.6z"/>
		<path class="st0" d="M2301.1,172.4c-4.5-0.2-10.6-0.2-16.4,1c-10.9,2.3-18,9.8-18.3,21.3c-0.1,3,1.2,5.7,3.4,8.1
			c-2.9,1-9.4,2.6-20.5,3c-10.6,0.4-19.1-2.7-23.7-4.8c0.4-0.8,0.8-1.5,1.1-2.3c3.2-7.7-6.4-18.8-17.1-23.5
			c-4.1-1.8-13-0.2-18.2,1.1c1.1-3,2.3-9.2,2.4-13.1c5.1-3.8,21-13.7,47.3-13.2c21.6,0.4,38.9,3.2,48.1,5.1c0,0.2,0,0.4,0.1,0.5
			C2290.1,157.8,2296.7,167.4,2301.1,172.4z"/>
		<path d="M2267.7,105.2c6.2,1.2,6.2,5.5,6.2,7.5c0,2.6-1,4.6-1.9,5.8c-2.2-2.4-4-5.2-5.7-6.6c-1.8-1.5-4.2-3.2-8.2-4.5
			C2259.6,106.2,2262.6,104.2,2267.7,105.2z"/>
		<path d="M2243.5,118.4c0.1,1.1-1.2,2.5-2.7,2.5c-1.5,0-3.2-0.8-3.1-2.1C2237.9,117.5,2243.4,117.1,2243.5,118.4z"/>
		<path d="M2225.9,113c2.7,0.8,3.2,5.8-0.8,9.8c-2.8,2.8-6.4,4.1-8.3,2.7c-1.9-1.3-2.3-4.9,0.6-8.8
			C2220.1,113.2,2224.5,112.5,2225.9,113z"/>
		<path d="M2215.8,106.4c3.6,0.4,5.1,2.4,5.7,3.5c-3.5,2.3-5.9,4.9-8.3,6.8c-2.2,1.7-4.5,3-6.6,4.4c-0.9-1.2-3.1-4.5-2.2-7.8
			C2205.4,109.2,2210.7,105.8,2215.8,106.4z"/>
		<path d="M2264.1,114.5c2.1,2,4.7,5.6,2.4,8.1c-1.6,1.8-7.9,1.5-10.5-1.5c-2.6-3-3-6-1.1-7.5
			C2257.9,111.2,2262.7,113.1,2264.1,114.5z"/>
		<path d="M2278.2,139.7c1.8-1.3,3.7-3.2,4.6-5.8c1.8-4.8-0.7-8.1-3.7-10.3c2.6-2.2,8.6-6.5,15.8-4.7c8.3,2.1,7.1,14.9,3.9,22.2
			c-2.7,6.1-9.5,11.3-9.7,14c-9.2-1.9-26.5-4.7-48.1-5.1c-26.3-0.5-42.1,9.4-47.3,13.2c0-1.2-0.1-2.2-0.3-2.9
			c-1.9-4.9-13.4-10.2-11.9-24.3c1.3-12.3,7.4-14.2,12.1-14.3c3.6-0.1,6.3,2.1,8.1,4v0c-0.8,1.1-1.5,2.4-2,3.9
			c-1.6,4.6,0.4,7.8,2,9.5c7.4-1.5,27.2-5,43.5-3.3C2263.2,137.7,2272.7,138.2,2278.2,139.7z"/>
		<path d="M2269.8,202.7c-2.1-2.4-3.4-5.1-3.4-8.1c0.3-11.5,7.3-19,18.3-21.3c5.8-1.2,11.9-1.2,16.4-1c0.3,0.4,0.6,0.7,0.9,1
			c4.3,4.5,11.3,21.5,7.2,30.3c-4.1,8.8-15.8,10.7-25.6,7.3C2278.4,209.2,2273.1,206.4,2269.8,202.7z"/>
		<path d="M2225.6,200.9c-3.6,6.9-10.6,13.6-21.3,15.8c-8.5,1.8-17.2-1.5-18.8-9.6c-1.5-7.7,0.9-19.2,5.6-30.3
			c0.1-0.2,0.2-0.4,0.2-0.6c5.2-1.2,14.1-2.9,18.2-1.1c10.7,4.7,20.3,15.8,17.1,23.5C2226.4,199.4,2226,200.1,2225.6,200.9z"/>
	</g>
	<g>
	</g>
</g>
<g id="XMLID_9_">
	<g>
		<path class="st0" d="M2570.9,121.2c-1.3-4.8-5.3-7.2-8.9-6.8c-3.4,0.4-5.2,4.7-4.1,9.2c1.1,4.7,3.4,8.3,7.9,7.8
			C2568.9,131,2572,125.2,2570.9,121.2z M2509.5,115.4c0.4-0.4,0.8-0.8,1.1-1.2c2.6-3,5.6-10.7,15.1-14.8c3.9-1.7,8.9-2.8,15.5-2.7
			c6.6,0.1,11.9,1.6,16.2,3.7c8.4,4.1,12.6,10.7,14.7,14c0.5,0.8,0.8,1.3,1.1,1.7c2.3,3,9.6,8.3,6.6,17.1c-0.2,0.5-0.4,0.9-0.8,1.4
			c-4,4.8-19.9,9.7-35.6,9.9c-14.7,0.2-34.2-0.4-40.7-6.4c-1.1-1-1.8-2.2-2.1-3.5C2498.8,125.6,2505.5,119.6,2509.5,115.4z
			 M2542.6,129.4c1-0.1,2.5-1.1,2.4-1.8c-0.2-1.5-4.2-1.4-5.4-0.2C2538.1,128.8,2541.4,129.5,2542.6,129.4z M2524.2,125.8
			c1.1-3.4,1.3-10.3-3-11.9c-2.6-1-8,2.7-10,7.3c-2.1,4.9,0.3,9.9,3.4,10.5C2520.8,132.8,2523.1,129.1,2524.2,125.8z"/>
		<path class="st0" d="M2589.6,153.8c3.3,4.7,8.5,14,7.1,23.9c-6.3-8.1-16.5-2.5-22.6,2.2c-5,3.9-6.9,12.3-6.8,19.2
			c-14.8,8.8-34,3.9-42.4,1c0.6-8.5-2.6-17.6-9.5-20.2c-8.2-3.1-18.2-2.9-24.5-1.4c0.1-1.9,0.3-3.9,0.4-5.8c0.3-3.9,1-8.1,2.1-12.1
			c8.3,3.9,27.2,7.2,33.9,1.5c1.2-1,2-2.1,2.4-3.2c7.4-1.1,22.5-3.1,32.3-1.9c-0.7,2.7-0.5,5.4,1.7,7.4c6.5,5.9,18.4-2,24-7.6
			C2588.5,156,2589.2,155,2589.6,153.8z"/>
		<path d="M2539.5,127.4c1.2-1.2,5.2-1.3,5.4,0.2c0.1,0.8-1.4,1.7-2.4,1.8C2541.4,129.5,2538.1,128.8,2539.5,127.4z"/>
		<path d="M2568.2,95.3c7.9,0.8,9.3,7.6,8.8,11.6c-0.4,2.5-3,5.6-4.9,7.5c-2-3.3-6.3-9.9-14.7-14
			C2559.3,98.1,2562.9,94.7,2568.2,95.3z"/>
		<path d="M2515.2,95.1c6.1-0.1,9.2,2.5,10.6,4.2c-9.6,4.1-12.5,11.8-15.1,14.8c-0.3,0.4-0.7,0.8-1.1,1.2c-1.5-1-4.4-3.6-4.5-9.4
			C2504.9,99.3,2509.5,95.2,2515.2,95.1z"/>
		<path d="M2521.2,113.9c4.2,1.5,4.1,8.5,3,11.9c-1.1,3.4-3.4,7.1-9.6,5.9c-3.1-0.6-5.5-5.5-3.4-10.5
			C2513.2,116.6,2518.6,112.9,2521.2,113.9z"/>
		<path d="M2570.9,121.2c1,3.9-2,9.8-5.1,10.2c-4.5,0.6-6.8-3.1-7.9-7.8c-1.1-4.5,0.7-8.8,4.1-9.2
			C2565.6,114,2569.6,116.4,2570.9,121.2z"/>
		<path d="M2596.7,177.7c0.2,0.3,0.4,0.5,0.6,0.8c6.2,9.3,0.6,21.5-5.4,27.7c-5.9,6.2-17.1,9.9-22.4,2.8c-1.3-1.8-2.1-5.5-2.2-9.8
			c-0.1-6.9,1.9-15.3,6.8-19.2C2580.2,175.2,2590.4,169.6,2596.7,177.7z"/>
		<path d="M2525,200.2c-0.1,1.9-0.4,3.7-0.9,5.5c-2.7,9.4-10.7,12.6-22.2,7.2c-12.1-5.7-12-19.6-11-34.3c6.3-1.4,16.3-1.7,24.5,1.4
			C2522.4,182.6,2525.6,191.7,2525,200.2z"/>
		<path d="M2589.6,153.8c-0.4,1.2-1.1,2.2-1.9,3c-5.6,5.6-17.5,13.5-24,7.6c-2.2-2-2.4-4.8-1.7-7.4c-9.8-1.2-24.9,0.8-32.3,1.9
			c-0.4,1.1-1.1,2.2-2.4,3.2c-6.7,5.7-25.6,2.4-33.9-1.5c2.4-9,6.3-17.6,9.3-22.7c6.5,6,26,6.6,40.7,6.4c15.7-0.3,31.6-5.1,35.6-9.9
			C2588.5,137.6,2591.8,147.6,2589.6,153.8z"/>
	</g>
	<g>
	</g>
</g>
<g id="XMLID_10_">
	<g>
		<path class="st0" d="M2810.3,119.4c3.4-3.8,9.9-10.2,20.1-13c3.6-1,7.7-1.6,12.3-1.5c7.9,0.2,13.7,1.6,18,3.6
			c8.3,3.8,10.9,9.4,12.7,11.3c0.6,0.7,1.6,1.4,2.7,2.4c3.6,3.1,8.7,7.8,6.5,14.7c-0.2,0.8-0.6,1.6-1.1,2.4
			c-3,4.9-10.5,10-22.8,12.4c-4.6,0.9-9.8,1.4-15.7,1.4c-10.2,0-31.9-1.1-40.9-7.6c-2.7-1.9-4.2-4.3-4-7.2
			c0.7-10.5,7.2-12.9,10.4-16.7C2809,121,2809.6,120.3,2810.3,119.4z M2869.6,130.3c1.4-5.5-5.1-9.6-6.5-10c-2.4-0.6-5.8-1-7,3.3
			c-1,3.4-0.1,7.8,3.6,10.2C2863.5,136.3,2868.6,134.3,2869.6,130.3z M2841.8,138.9c1.1,0.1,3.2-1.3,3-2.5c-0.2-1.8-5.6-1.2-6.2,0.3
			C2838.1,138,2841,138.8,2841.8,138.9z M2821.9,137.6c3.2-1.9,5.1-7.7,4.9-11.5c-0.2-3.8-5.2-4-7-3c-3.6,2.1-7.2,6.8-6.6,11.7
			C2813.8,139.7,2818.7,139.5,2821.9,137.6z"/>
		<path class="st0" d="M2889.4,157.9c2.5,2.8,6.1,8.2,5.8,15.2c-1.1-1.8-2.5-2.9-4.1-2.9c-16.9,0.3-24.3,18.8-25.6,30.2
			c-3.4,1.6-9.2,3.5-17.5,3.8c-9.4,0.2-15.8-1.1-19.1-2.1c-0.4-4.4-1.9-8.9-4.3-12.6c-3.7-5.8-14.1-8.8-19.8-10.1
			c1.6-2.6,2.4-5.3,3.1-6.6c1.5-3,9.6-17.9,35.2-16.8c6.3,0.3,10.5,1.1,13.2,1.8c-1.5,2.3-3,4.9-3.2,6.5c-0.8,5.4,1.3,9,15.4,5.5
			C2878.3,167.6,2885.8,163.6,2889.4,157.9z"/>
		<path d="M2844.9,136.4c0.1,1.3-2,2.6-3,2.5c-0.9-0.1-3.7-0.9-3.2-2.2C2839.3,135.2,2844.7,134.6,2844.9,136.4z"/>
		<path d="M2865.6,200.5c1.3-11.4,8.7-29.9,25.6-30.2c1.6,0,3,1.1,4.1,2.9c2.5,4,3.7,11.6,2.1,18.7c-2.3,10.3-7.6,18.3-13.6,20.9
			c-5.1,2.2-16.9,1.4-18.3-6C2865.3,205.2,2865.3,203,2865.6,200.5z"/>
		<path d="M2859.1,153.8l-0.4-2.2c12.3-2.4,19.8-7.5,22.8-12.4c9.1,0.6,11.9,8.5,9.7,15.2c-0.4,1.2-1,2.4-1.7,3.6
			c-3.6,5.6-11.1,9.6-20.9,12c-14.1,3.4-16.2-0.2-15.4-5.5c0.2-1.6,1.7-4.2,3.2-6.5C2857.5,156,2858.6,154.4,2859.1,153.8z"/>
		<path d="M2871.2,102.6c6.4,0.4,10.6,5.4,10.2,10.7c-0.4,3.9-3.2,7-5.2,8.8c-1.1-0.9-2.1-1.7-2.7-2.4c-1.7-1.9-4.4-7.5-12.7-11.3
			C2862.9,106,2866.9,102.3,2871.2,102.6z"/>
		<path d="M2863.1,120.3c1.4,0.4,7.9,4.5,6.5,10c-1,4-6.2,6-9.9,3.6c-3.8-2.4-4.6-6.8-3.6-10.2
			C2857.4,119.3,2860.8,119.7,2863.1,120.3z"/>
		<path d="M2804.9,179.4c-2,3.1-5.1,6-10.6,6c-0.4,0-0.9,0-1.3-0.1c-11.3-0.9-7.8-18.4-3.7-25.5c3.3-5.8,10.3-12.1,12.8-14.4
			c9,6.5,30.7,7.6,40.9,7.6c5.9,0,11.2-0.5,15.7-1.4l0.4,2.2c-0.5,0.7-1.6,2.3-2.8,4.1c-2.6-0.7-6.9-1.5-13.2-1.8
			c-25.6-1.2-33.7,13.7-35.2,16.8C2807.3,174.1,2806.5,176.9,2804.9,179.4z"/>
		<path d="M2829,202.1c0.7,7.3-1.5,14.3-7.1,16.6c-8.5,3.5-21.8,0.3-27.1-9.8c-3.9-7.5-2-18-0.6-23.6c5.5,0,8.7-2.9,10.6-6
			c5.8,1.3,16.2,4.4,19.8,10.1C2827.1,193.3,2828.6,197.8,2829,202.1z"/>
		<path d="M2819.4,99.6c6.1,0.7,9.7,4.8,11.1,6.7c-10.3,2.9-16.8,9.2-20.1,13c-1.8-1.2-5.8-4.2-6-8.5
			C2803.9,102.2,2811.5,98.7,2819.4,99.6z"/>
		<path d="M2826.8,126.1c0.2,3.8-1.7,9.6-4.9,11.5c-3.2,1.9-8.1,2.1-8.7-2.8c-0.6-4.9,3-9.6,6.6-11.7
			C2821.6,122.1,2826.6,122.4,2826.8,126.1z"/>
	</g>
	<g>
	</g>
</g>
<g id="XMLID_11_">
	<g>
		<path class="st0" d="M3192.6,157.2c2.1,4.6,4.3,11.5,3.5,19.9c-2.4-3.3-6.1-4.7-9.5-5.3C3190.4,168.2,3193.3,163.4,3192.6,157.2z"
			/>
		<path class="st0" d="M3095.1,159.1c-2.2-5.5,2.4-8.6,2.9-11.9c0.3-2.1,0.6-6.4,1.5-11.1c0.8-4.1,2.2-8.4,4.5-11.5
			c2.1-2.8,4.5-5.6,7.6-8.1c5.3-4.2,12.8-7.5,25.4-7.9c13.1-0.4,19.3,2.8,21.6,4.4c-1.1,0.7-1.9,1.5-2.4,2.4
			c-4.3,8.1,0.8,15.2,8.5,16.8c5.6,1.1,10.2-2.9,12.3-7.2c1.6,1.9,3.9,4.3,5.8,5.3c6.2,3.2,7,9,5.6,15.4c-0.1,0.7-0.4,1.5-0.8,2.3
			c-3.3,7.7-16,19.7-38.5,22.5c-1.2,0.2-2.5,0.3-3.8,0.4c-27.5,2.1-43.1-0.4-49.1-9.8C3095.7,160.4,3095.4,159.8,3095.1,159.1z
			 M3161.1,157.2c1.1-4.3-0.9-6.8-2.3-8.1c-2-1.9-5.4-4.3-9-2.1c-2.4,1.5-5.1,8.9-0.9,13.4C3153,164.9,3160.1,161,3161.1,157.2z
			 M3133.4,166.3c0.1-1.3-6-1.5-5.8,0.3c0.1,1.4,2.2,1.9,2.8,1.9C3131.4,168.5,3133.3,167.4,3133.4,166.3z M3114.4,162.3
			c2.1-2.8,3.2-6,2.5-9.4c-0.8-3.7-6.2-6.5-9.8-4.3c-2.8,1.7-5.3,9.6-3,13.2C3106.3,165.3,3112.9,164.3,3114.4,162.3z"/>
		<path class="st0" d="M3146.3,179.1c-1,3-1.1,6.2,1.8,7.8c5.8,3.2,13.3,0.8,19.6-2.5c-2.9,5-4.5,12.3-5.1,17.5
			c0,0.2-0.1,0.4-0.1,0.6c-11.6,4.6-25.8,2.6-32.9,1.2c-0.2-5-3-10.5-6.5-15c-3.7-4.7-10.8-7.4-15.5-8.8c7.6-1.2,18.2-1.5,24.8-1.5
			C3137.1,178.5,3142.3,178.8,3146.3,179.1z"/>
		<path d="M3162.5,202.6c0-0.2,0.1-0.4,0.1-0.6c0.6-5.2,2.3-12.6,5.1-17.5c3.6-1.8,6.8-3.9,9-5.4c2.6-1.7,6.6-4,9.9-7.3
			c3.3,0.5,7,1.9,9.5,5.3c0,0,0,0,0,0c5.5,7.5,1.1,24.1-1.1,28.6c-2.3,4.5-12.2,17.9-23.1,14.5C3161.4,217,3162,207.3,3162.5,202.6z
			"/>
		<path d="M3148.1,186.9c-2.9-1.6-2.7-4.9-1.8-7.8c1-3.3,3.1-6.3,3.1-6.3l-0.3-2.3c22.5-2.8,35.2-14.8,38.5-22.5
			c1.5,1,3,2.5,4.1,5.4c0.5,1.3,0.8,2.6,0.9,3.8c0.7,6.1-2.2,10.9-6,14.6c-3.3,3.2-7.2,5.6-9.9,7.3c-2.2,1.4-5.4,3.5-9,5.4
			C3161.4,187.7,3153.9,190.2,3148.1,186.9z"/>
		<path d="M3127.6,166.6c-0.1-1.8,6-1.6,5.8-0.3c-0.1,1-2.1,2.2-3,2.2C3129.8,168.5,3127.7,168,3127.6,166.6z"/>
		<path d="M3100.5,116c3.3-1.1,7.9-0.2,11.1,0.6c-3.1,2.5-5.4,5.3-7.6,8.1c-2.4,3.1-3.7,7.4-4.5,11.5c-1.3-0.1-3.9-0.9-5.8-5.7
			C3091.1,123.9,3093.1,118.4,3100.5,116z"/>
		<path d="M3158.5,113c2.4-1.6,6-2.5,9.3-2c6.4,1.1,10.5,4.9,10.4,9.2c-0.1,1.4-0.5,3.1-1.3,4.7c-2.1,4.3-6.6,8.3-12.3,7.2
			c-7.7-1.5-12.8-8.7-8.5-16.8C3156.6,114.6,3157.5,113.7,3158.5,113z"/>
		<path d="M3158.8,149.1c1.4,1.3,3.3,3.8,2.3,8.1c-0.9,3.8-8.1,7.7-12.2,3.2c-4.1-4.5-1.5-11.9,0.9-13.4
			C3153.4,144.8,3156.8,147.2,3158.8,149.1z"/>
		<path d="M3107.5,180c-3.8,0.6-6.9,1.5-8.4,2.6c-5.5,4.2-6.9,12.4-5.6,18.8c-3,0.2-6.9-0.5-7.7-5.1c-1.8-10.4,1.1-27,9.3-37.2
			c0.2,0.6,0.6,1.3,1,2c6,9.4,21.6,11.9,49.1,9.8c1.3-0.1,2.6-0.2,3.8-0.4l0.3,2.3c0,0-2,3-3.1,6.3c-4-0.3-9.2-0.6-14.1-0.6
			C3125.7,178.5,3115.2,178.8,3107.5,180z"/>
		<path d="M3129.6,203.8c0.2,3.3-0.7,6.3-3.1,8.7c-5.6,5.6-23.7,2.4-29.7-4c-1.5-1.6-2.6-4.2-3.2-7.2c-1.2-6.4,0.1-14.6,5.6-18.8
			c1.5-1.2,4.6-2,8.4-2.6c4.7,1.4,11.8,4.2,15.5,8.8C3126.6,193.3,3129.3,198.8,3129.6,203.8z"/>
		<path d="M3116.9,152.9c0.8,3.4-0.4,6.6-2.5,9.4c-1.5,2-8.1,3-10.3-0.6c-2.3-3.6,0.2-11.5,3-13.2
			C3110.7,146.4,3116,149.1,3116.9,152.9z"/>
	</g>
	<g>
	</g>
</g>
<g id="XMLID_12_">
	<g>
		<path class="st0" d="M3441.1,215.2c-2.7-0.6-5.2-1.3-7.3-1.9c3-2.3,4.5-5.6,5-7.1c1.5-5.3-1.5-8.5-3-12.8
			c-1.5-4.3,1.3-10.9,13-15.6c6.9-2.8,17.8-3.6,22.5-3.9c-3.5,6.6-5.2,17.5,0.5,20.4c0.3,0.1,0.6,0.3,0.9,0.4
			c-5.7,2.5-9.3,8.1-10.9,16.7c-0.3,1.8-0.5,3.6-0.5,5.4C3455,217.7,3447.5,216.6,3441.1,215.2z"/>
		<path class="st0" d="M3495.5,180.3c0.5,5.9,0.7,19.1-6.4,27.2c0.1-7.9-4.3-12.1-9-13.4c3.3-1.5,6.9-4.4,10.9-8.3
			C3492.9,184,3494.4,182.1,3495.5,180.3z"/>
		<path class="st0" d="M3443.9,164.4c1.1-0.1,3.2-1,3-2.7c-0.1-1.1-5.4-0.9-5.9,0.1C3440.4,163.2,3442.9,164.4,3443.9,164.4z
			 M3400.3,167.1c-2.4-1.7-3.8-3.5-4.1-5.2c-1.2-6.6,1.7-9.1,2.6-11.7c1.3-3.8-0.9-6,1.6-14c1.7,0.9,3.6,1.4,5.4,0.9
			c5.5-1.3,9.8-10.4,9.1-15.5c-0.2-1.6-1.5-3-3.2-3.9c4-2.7,13.5-8,26.2-8.8c13.4-0.9,23.9,1.3,27.9,2.3c-1.7,1.2-2.8,2.4-3.1,3
			c-2.6,6.4,8.6,14.4,12,15.3c1.4,0.4,2.8,0.2,4-0.4c1.9,3.5,2.3,6.5,2.8,7.7c1.1,2.3,8.9,5.1,8.1,16.2c0,0.1,0,0.1,0,0.2
			c-0.8,8.7-13.7,13.7-39.1,18.3C3424.7,176.2,3407.7,172.2,3400.3,167.1z M3470.9,157c2.6-1.6,3.5-6.5,1.7-11.5
			c-1.3-3.4-8.7-5.8-12.2-3.4c-3,2.1-2.1,8.5-0.4,11.1C3461.7,155.9,3467,159.4,3470.9,157z M3425.3,159.6
			c2.5-4.7,2.4-10.4,0.4-13.4c-1.5-2.2-6.1-2.2-7.9,0c-4,4.8-3.3,11.7-1.5,13.6C3419.4,162.8,3423.9,162.2,3425.3,159.6z"/>
		<path d="M3446.9,161.7c0.2,1.7-1.8,2.6-3,2.7c-1,0.1-3.5-1.1-2.9-2.6C3441.4,160.8,3446.7,160.6,3446.9,161.7z"/>
		<path d="M3441.1,215.2c0.2,3.1,0.2,7.8-1.2,12.2c-2.4,7.5-10.4,13.8-22.4,6c-13.9-8.9-16.6-29.6-17.1-39.2
			c3.9,9.5,11.1,16.9,18.2,20c7,3,11.9,1.6,15.2-0.9C3435.9,213.9,3438.4,214.6,3441.1,215.2z"/>
		<path d="M3489.2,207.5c0,1.5-0.2,3.1-0.6,4.8c-3.2,15.1-15.2,20.9-21.3,19c-4.1-1.3-6.4-7.3-6.2-14.6c0-1.7,0.2-3.5,0.5-5.4
			c1.6-8.6,5.2-14.3,10.9-16.7c2.4,0.9,4.9,0.7,7.6-0.6C3484.8,195.4,3489.3,199.7,3489.2,207.5z"/>
		<path d="M3433.8,213.3c-3.2,2.5-8.1,4-15.2,0.9c-7.1-3-14.3-10.5-18.2-20c-3.3-8.1-4.1-17.6-0.1-27.2c7.4,5.1,24.4,9.1,50.1,4.4
			c25.4-4.6,38.3-9.6,39.1-18.3c2.2,0.8,7.8,3.1,8.7,6.7c1.5,6.3,1.7,13.4-2.7,20.5c-1.2,1.8-2.6,3.7-4.5,5.5
			c-4,3.9-7.6,6.8-10.9,8.3c-2.1-0.6-4.2-0.6-6,0c-0.5,0.2-1.1,0.4-1.6,0.6c-0.3-0.1-0.6-0.2-0.9-0.4c-5.6-2.9-4-13.8-0.5-20.4
			c-4.7,0.2-15.5,1.1-22.5,3.9c-11.7,4.7-14.5,11.3-13,15.6c1.5,4.3,4.5,7.5,3,12.8C3438.3,207.7,3436.8,210.9,3433.8,213.3z"/>
		<path d="M3478.7,129.1c-1.2,0.7-2.5,0.8-4,0.4c-3.4-0.9-14.6-8.9-12-15.3c0.3-0.6,1.4-1.9,3.1-3c2.5-1.8,6.3-3.4,10.2-2.5
			c5.6,1.2,8.3,10.6,6.6,15.2C3481.7,126.4,3480.3,128.2,3478.7,129.1z"/>
		<path d="M3411.7,117.7c1.8,0.9,3,2.2,3.2,3.9c0.8,5.1-3.6,14.2-9.1,15.5c-1.8,0.4-3.7,0-5.4-0.9c-3.5-1.9-6.3-5.7-6.4-8.4
			c-0.1-5.7,6-11,9.4-11.4C3406.3,116,3409.4,116.5,3411.7,117.7z"/>
		<path d="M3425.8,146.3c2,2.9,2.1,8.7-0.4,13.4c-1.4,2.5-6,3.2-9,0.2c-1.8-1.8-2.4-8.8,1.5-13.6
			C3419.6,144.1,3424.2,144.1,3425.8,146.3z"/>
		<path d="M3472.6,145.5c1.8,4.9,0.9,9.9-1.7,11.5c-3.9,2.4-9.2-1.1-10.9-3.8c-1.7-2.6-2.6-9,0.4-11.1
			C3463.9,139.7,3471.4,142.1,3472.6,145.5z"/>
	</g>
	<g>
	</g>
</g>
<g id="XMLID_13_">
	<g>
		<path class="st0" d="M3738.7,219c-4.3-0.2-9-0.8-13.7-2.3c-8.1-2.5-13.2-8.3-16.3-13.5c-0.9-1.6-1.7-3-2.2-4.3
			c0.8,0,1.7,0,2.6-0.1c12-1.3,11.8-9.3,16.6-16.1c2.9-4,14.3-7.1,26.6-9.2c14.5-2.4,23.7-3.5,32.3,0.8c3,1.5,5.9,6.2,10.5,5.8
			c0,4.8-0.6,13.4-3.6,21.1c-1.3-2.4-3.9-3.7-9.3-3.4c-7.4,0.5-10.6,8.1-11.8,13.7c-2.5,1.6-6.2,3.5-10.2,4.8
			C3757.9,217.1,3749.2,219.4,3738.7,219z"/>
		<path class="st0" d="M3747.3,152.2c1.8-0.4,2.9-2.7,2.3-3.7c-0.6-1-5.1,0-6,1.3C3742.8,151.1,3745.9,152.5,3747.3,152.2z
			 M3774.6,121c1.1,3.1,1.9,5.7,2.9,6.9c2.6,3,11,8,8,16.8c-0.1,0.4-0.3,0.8-0.5,1.3c-4.4,9.6-17.9,20.3-38.1,21.9
			c-16.5,1.3-35.7-2-44.3-9c-1.9-1.6-3.3-3.4-4-5.4c-1.4-4.1-1.3-13.7,2.4-23.2c2.6-6.8,7-13.5,14-18.3c0.8-0.6,1.7-1.1,2.5-1.6
			c8.7-5,25.1-9.2,38.1-7c2.8,0.5,5.4,1.2,7.8,2.3C3769.7,108.5,3772.6,115.5,3774.6,121z M3771.1,144.7c2.3-1.6,2.8-7.3,0.7-12
			c-1.6-3.5-7.2-5.5-10.9-3.5c-2.8,1.6-3.2,10-0.8,13.6C3762.4,146.2,3767.6,147.1,3771.1,144.7z M3724.9,151.7
			c5.2-3.1,3.8-11,3.4-13.8c-0.4-2.8-3.1-6.3-8.5-4.8c-5.4,1.5-8.5,12.7-7.1,15.7C3714.9,153.1,3719.4,155,3724.9,151.7z"/>
		<path d="M3749.6,148.5c0.6,1-0.5,3.3-2.3,3.7c-1.4,0.3-4.5-1.1-3.6-2.4C3744.5,148.4,3749,147.5,3749.6,148.5z"/>
		<path d="M3738.7,219c-0.5,2.3-1.3,5.7-2.5,9.7c-2.4,7.6-12.1,12.3-20.2,4.5c-6.9-6.6-7.3-24.9-7.2-30c3.1,5.1,8.2,11,16.3,13.5
			C3729.7,218.1,3734.4,218.8,3738.7,219z"/>
		<path d="M3791.6,201.2c1.1,2,1.3,4.7,1.4,7.7c0.2,3.8-2.6,20-11.4,20.5c-8.6,0.4-12-4.8-11.7-13c0-1.1,0.2-2.8,0.6-4.8
			c1.2-5.6,4.4-13.2,11.8-13.7C3787.6,197.5,3790.2,198.9,3791.6,201.2z"/>
		<path d="M3770.9,97.9c8.3,2.5,10.8,8.9,9.5,13.7c-1.3,4.7-4.1,7.8-5.8,9.4c-1.9-5.5-4.8-12.5-11.2-15.4c-2.4-1.1-5-1.8-7.8-2.3
			C3758.7,100.6,3765,96.1,3770.9,97.9z"/>
		<path d="M3795.1,180.2c-4.6,0.3-7.5-4.3-10.5-5.8c-8.6-4.4-17.8-3.2-32.3-0.8c-12.3,2-23.7,5.1-26.6,9.2
			c-4.8,6.8-4.6,14.8-16.6,16.1c-0.9,0.1-1.8,0.1-2.6,0.1c-9.8-0.3-12-9.5-11.1-18.5c0.5-5.4,5-16.6,7.1-21.6
			c8.6,7.1,27.8,10.3,44.3,9c20.2-1.6,33.7-12.3,38.1-21.9c0.2-0.4,0.4-0.8,0.5-1.3c2.8,2.5,9.7,8.9,11.5,13.4
			c3,7.3,6.6,19.6,0,21.7C3796.3,180,3795.7,180.1,3795.1,180.2z"/>
		<path d="M3704.4,106.3c5.3,1.4,8.6,3.5,10.4,5.6c-6.9,4.8-11.3,11.6-14,18.3c-2.6-2.5-7.5-8.2-6.4-14.7
			C3695.8,108.1,3701.1,105.4,3704.4,106.3z"/>
		<path d="M3728.3,137.9c0.4,2.8,1.8,10.7-3.4,13.8c-5.5,3.3-10,1.4-12.1-3c-1.4-3,1.7-14.1,7.1-15.7
			C3725.2,131.6,3727.9,135.1,3728.3,137.9z"/>
		<path d="M3771.8,132.7c2.1,4.7,1.6,10.4-0.7,12c-3.4,2.4-8.6,1.6-11-2c-2.4-3.5-2-12,0.8-13.6
			C3764.5,127.2,3770.2,129.2,3771.8,132.7z"/>
	</g>
	<g>
	</g>
</g>
</svg>
